<svg xmlns="http://www.w3.org/2000/svg" xmlns:xlink="http://www.w3.org/1999/xlink" viewBox="0 0 249.237 250">
  <defs>
    <style>
      .cls-1 {
        fill: #f4e9d3;
      }

      .cls-2 {
        fill: #fff;
      }

      .cls-3 {
        clip-path: url(#clip-path);
      }

      .cls-4 {
        fill: #b8cd65;
      }

      .cls-5 {
        fill: #f9d1b1;
      }

      .cls-6 {
        fill: none;
      }

      .cls-7 {
        fill: #1c1419;
      }

      .cls-8 {
        fill: #df5900;
      }

      .cls-9 {
        fill: #ff853f;
        opacity: 0.6;
      }
    </style>
    <clipPath id="clip-path">
      <path id="_Clipping_Path_" data-name="&lt;Clipping Path&gt;" class="cls-1" d="M199.008,119.212,112.269,96.7V96.61L42,120.782V277.664l70.269-24.04h0l86.739,22.047,70.269-23.524V95.26Z" transform="translate(-42 -95.26)"/>
    </clipPath>
  </defs>
  <g id="Asset_Map" data-name="Asset Map" transform="translate(-22)">
    <g id="Layer_2" data-name="Layer 2" transform="translate(22)">
      <g id="Objects">
        <path id="Path_1250" data-name="Path 1250" class="cls-2" d="M103.249,257.455,22,284.9V104.839L103.249,77.39Z" transform="translate(-22 -34.904)"/>
        <path id="Path_1251" data-name="Path 1251" class="cls-2" d="M409.249,247.455,328,274.9V94.839L409.249,67.39Z" transform="translate(-160.012 -30.394)"/>
        <path id="Path_1252" data-name="Path 1252" class="cls-2" d="M256.739,279.415,170,257.455V77.39l86.739,21.959Z" transform="translate(-88.751 -34.904)"/>
        <path id="_Clipping_Path_2" data-name="&lt;Clipping Path&gt;" class="cls-1" d="M199.008,119.212,112.269,96.7V96.61L42,120.782V277.664l70.269-24.04h0l86.739,22.047,70.269-23.524V95.26Z" transform="translate(-31.02 -42.964)"/>
        <g id="Group_1230" data-name="Group 1230" class="cls-3" transform="translate(10.98 52.296)">
          <path id="Path_1253" data-name="Path 1253" class="cls-4" d="M296.18,86.393S225,82.413,178.33,80.31c1.867,11.583,5.084,31.193,6.736,39.345,13.6-2,31.072-4.644,34.707-5.594l-5.814-25.215,4.43-1.427,8.932,42.37,37.748,1.065,24.5-18.665Z" transform="translate(-103.488 -88.517)"/>
          <path id="Path_1254" data-name="Path 1254" class="cls-4" d="M119.818,125.347c1.559,9.162,2.871,16.782,3.08,17.677h0c.071.4.121.642.121.642l-17.139,2.652-.549-4.392,12.2-2.229-7.955-48.442,4.392-.62s2.69,16.014,5.122,30.348c1.521-.214,5.951-.845,11.616-1.647l-6.615-40.207c-20.362-.889-35.063-1.356-35.228-.856C88.312,79.919,68,100.231,68,100.231l31.292,73.563,47.761-7.137L174.332,131.8,171.1,117.815Z" transform="translate(-53.727 -87.506)"/>
          <path id="Path_1255" data-name="Path 1255" class="cls-5" d="M36.92,132.39,21,133.488l1.071,28.547H50.617Z" transform="translate(-32.529 -112.006)"/>
          <path id="Path_1256" data-name="Path 1256" class="cls-5" d="M67.334,241.863,51.842,230.648l-12.8,22.744-2.394-1.345L49.6,229.028l-21.558-15.6,2.943-1.257L68.36,239.217l3.008-7.752L52.852,191.39H23.13L25.8,262.757l31.292,5.49Z" transform="translate(-33.489 -138.617)"/>
          <path id="Path_1257" data-name="Path 1257" class="cls-4" d="M35,343.358s3.843,59.29,5.49,58.741,33.488-17.018,33.488-17.018l1.647-17.018L61.9,348.3S36.647,342.809,35,343.358Z" transform="translate(-38.843 -207.14)"/>
          <path id="Path_1258" data-name="Path 1258" class="cls-5" d="M132,373.115l1.647,9.333,64.231,18.116,1.1-35.684-29.1-5.49Z" transform="translate(-82.592 -214.388)"/>
          <path id="Path_1259" data-name="Path 1259" class="cls-4" d="M306.73,395.39H261.253L261,408.017l63.133,19.214,6.588-2.553q-2.3-2.91-4.551-5.836c-3.085-4.018-6.154-8.059-9.272-12.05l-.445.126Z" transform="translate(-140.773 -230.625)"/>
          <path id="Path_1260" data-name="Path 1260" class="cls-4" d="M285.611,349.21,261.8,359.739l-.242,12.078h43.111Z" transform="translate(-141.026 -209.797)"/>
          <path id="Path_1261" data-name="Path 1261" class="cls-5" d="M367.73,308.629l8.141,14.757,15.525-8.9-8.355-14.641Z" transform="translate(-188.911 -187.53)"/>
          <path id="Path_1262" data-name="Path 1262" class="cls-5" d="M429.26,92.878l32.214,32.571.543-.34L464.8,59.39,441.634,75.321l6.149,1.636Z" transform="translate(-216.662 -79.082)"/>
          <path id="Path_1263" data-name="Path 1263" class="cls-5" d="M388.21,222.421l14.208,25.187,39.406-24.441,1.416-33.449-.873-.878Z" transform="translate(-198.148 -137.466)"/>
          <path id="Path_1264" data-name="Path 1264" class="cls-5" d="M440.443,157.206,408.674,125.08,390.25,140.918,410.623,175.7Z" transform="translate(-199.068 -108.709)"/>
          <path id="Path_1265" data-name="Path 1265" class="cls-5" d="M334.745,243.18l-15.4,4.43,3.689,15.558-3.832.911L315.553,248.7,300,253.177,307.137,296l43.507-24.957Z" transform="translate(-158.363 -161.975)"/>
          <path id="Path_1266" data-name="Path 1266" class="cls-5" d="M396.374,328.288l-8.235,4.941-19.1-33.488-19.077,10.892-1.8-3.217.093-.049L340.1,292.62,314.06,307.558l30.161,37.2-.824.236c2.915,3.733,5.83,7.466,8.784,11.161q2.586,3.212,5.215,6.385l47.212-18.33L408.177,260l-37.27,23.112Z" transform="translate(-164.705 -169.561)"/>
          <path id="Path_1267" data-name="Path 1267" class="cls-5" d="M370.134,158.69,352.38,173.946l17.738,31.446,20.071-12.451Z" transform="translate(-181.988 -123.868)"/>
          <path id="Path_1268" data-name="Path 1268" class="cls-1" d="M49.408,189.135V186.39H1.647L0,189.135H49.408Z" transform="translate(-23.057 -136.361)"/>
          <path id="Path_1269" data-name="Path 1269" class="cls-1" d="M32.08,230.507l21.558,15.6L40.683,269.122l2.394,1.345,12.8-22.744L71.37,258.939l.736.532,1.609-2.223-1.318-.955L35.023,229.25Z" transform="translate(-37.526 -155.692)"/>
          <path id="Path_1270" data-name="Path 1270" class="cls-1" d="M401.546,165.428l-19.352,12.006-39.406,24.441-14.208-25.193L382.737,143.1l.873.878,11.9,12.034,2.805-2.745L386.169,141l2.086-1.29-2.081-3.349-2.3,1.427-.549.34-32.214-32.571,18.523-15.92-6.149-1.647L361.4,87.44,345.314,99.66l-1.433-1.449-2.8,2.745,1.071,1.1-17.567,13.357-24.5,18.665-.73.549L305.9,142.1l2.8,19.977,6.2,10.864L330.82,200.8l-43.529,24.957-1.806,1.032-.39-.483L281.8,229.6l1.3,1.548,19.061,22.607H257.647L256,256.5h48.475l9.717,11.529.445-.126,2.575-.736.823-.236-30.161-37.2,26.044-14.938,8.147,14.757-.093.049,1.8,3.217,19.077-10.892,19.1,33.488,8.235-4.941-25.467-45.154,37.27-23.145,21.635-13.417ZM348.124,108.1l31.769,32.126-29.82,18.5L329.7,123.942Zm-39.214,33.707,17.754-15.256,20.054,34.251-20.076,12.451Zm16.568,85.778-8.141-14.762,15.311-8.784L341,218.685Z" transform="translate(-138.518 -91.733)"/>
          <path id="Path_1271" data-name="Path 1271" class="cls-1" d="M194.867,81.49l5.814,25.215c-3.634.95-21.1,3.6-34.707,5.594-1.647-8.152-4.869-27.762-6.736-39.345C158.376,67.612,157.8,64,157.8,64l-4.392.62,1.351,8.163L161.346,113c-5.665.823-10.1,1.455-11.616,1.647C147.3,100.31,144.608,84.3,144.608,84.3l-4.392.62,7.955,48.442L136,135.581l.549,4.392,17.112-2.652s-.049-.242-.121-.642h.027c-.209-.895-1.521-8.515-3.08-17.677l51.286-7.559L205,125.431l1.164,5.034,2.745.549.642-.917h.285l-1.619-7.686L199.3,80.063Z" transform="translate(-84.396 -81.161)"/>
          <path id="Path_1272" data-name="Path 1272" class="cls-5" d="M159.7,267.39l-18.792,2.871-2.179,16.782-3.909-.511,2.037-15.651-16.684,2.547L107,306.917l8.784,9.882,39.527-10.431Z" transform="translate(-71.316 -172.894)"/>
          <path id="Path_1273" data-name="Path 1273" class="cls-4" d="M251.317,185.307,230,215.682,295.878,203.6l-8.235-16.469-35.4-2.723-.285-.022Z" transform="translate(-126.792 -135.459)"/>
          <path id="Path_1274" data-name="Path 1274" class="cls-5" d="M221.918,266.684,220.6,279.31h36.463l-2.207-15.92Z" transform="translate(-122.552 -171.09)"/>
          <path id="Path_1275" data-name="Path 1275" class="cls-5" d="M216,321.957,238.508,328l19.214-10.431L255.9,304.39H217.834Z" transform="translate(-120.477 -189.582)"/>
          <path id="Path_1276" data-name="Path 1276" class="cls-1" d="M334.838,261.928l-3.689-15.553-1.411-5.945a9.476,9.476,0,0,1-3.618,1.828l1.235,5.2,3.651,15.371Z" transform="translate(-170.144 -160.735)"/>
          <path id="Path_1277" data-name="Path 1277" class="cls-1" d="M161.6,285.185l2.2-16.782.67-5.133a9.431,9.431,0,0,1-4.03.434l-.692,5.32-2.037,15.651Z" transform="translate(-94.188 -171.036)"/>
        </g>
        <path id="Path_1278" data-name="Path 1278" class="cls-6" d="M170,254.81V97.89L256.739,120.4V276.857Z" transform="translate(-88.751 -44.15)"/>
        <circle id="Ellipse_7" data-name="Ellipse 7" class="cls-7" cx="14.822" cy="14.822" r="14.822" transform="translate(109.845 90.296)"/>
        <path id="Path_1279" data-name="Path 1279" class="cls-8" d="M222.736,0A33.186,33.186,0,0,0,189.55,33.186c0,26.51,33.186,72.432,33.186,72.432s33.191-44.253,33.191-72.432A33.19,33.19,0,0,0,222.741,0Zm0,58.593a25.407,25.407,0,1,1,25.407-25.407,25.407,25.407,0,0,1-25.407,25.407Z" transform="translate(-97.568)"/>
        <path id="Path_1280" data-name="Path 1280" class="cls-9" d="M250.126,0H250V7.79a.549.549,0,0,1,.126,0,25.407,25.407,0,0,1,.033,50.814H250v46.663a.549.549,0,0,0,.126.357s33.191-44.253,33.191-72.432A33.191,33.191,0,0,0,250.126,0Z" transform="translate(-124.833)"/>
      </g>
    </g>
  </g>
</svg>
