<svg xmlns="http://www.w3.org/2000/svg" viewBox="0 0 334.988 250">
  <defs>
    <style>
      .cls-1 {
        fill: #ffc987;
      }

      .cls-1, .cls-12, .cls-16, .cls-19, .cls-2, .cls-20, .cls-22, .cls-23, .cls-26, .cls-27, .cls-28, .cls-3, .cls-4, .cls-5, .cls-6, .cls-7, .cls-8 {
        fill-rule: evenodd;
      }

      .cls-2 {
        fill: #fcbc6d;
      }

      .cls-17, .cls-3 {
        fill: #a8a8a8;
      }

      .cls-18, .cls-4 {
        fill: #999;
      }

      .cls-5 {
        fill: #e66f57;
      }

      .cls-6 {
        fill: #db5940;
      }

      .cls-11, .cls-7 {
        fill: #915327;
      }

      .cls-8 {
        fill: #7a441d;
      }

      .cls-12, .cls-9 {
        fill: #e0e0e0;
      }

      .cls-10, .cls-16 {
        fill: #c9c9c9;
      }

      .cls-13 {
        fill: #bfbfbf;
      }

      .cls-14 {
        fill: #b0b0b0;
      }

      .cls-15 {
        fill: #a3a3a3;
      }

      .cls-19 {
        fill: #7a7a7a;
      }

      .cls-20 {
        fill: #696969;
      }

      .cls-21, .cls-22 {
        fill: #eda54e;
      }

      .cls-23, .cls-24 {
        fill: #1c1c1c;
      }

      .cls-25, .cls-26 {
        fill: #3f5359;
      }

      .cls-27 {
        fill: #fff;
      }

      .cls-28 {
        fill: #a15d2d;
      }
    </style>
  </defs>
  <g id="Group_608" data-name="Group 608" transform="translate(0 0.553)">
    <g id="House_1_" transform="translate(42.523 22.876)">
      <g id="Group_600" data-name="Group 600" transform="translate(20.327 64.271)">
        <path id="Path_754" data-name="Path 754" class="cls-1" d="M195.744,152.045V238.28a3.255,3.255,0,0,1-3.246,3.246H71.746A3.255,3.255,0,0,1,68.5,238.28V152.045c0-.974,7.033-9.2,14.5-17.528,7.466-8.44,15.364-17.1,17.2-19.151l15.905-17.853c18.935-21.315,12.768-21.315,31.811,0l15.905,17.853C167.828,119.909,195.744,149.123,195.744,152.045Z" transform="translate(-57.232 -80.416)"/>
        <path id="Path_755" data-name="Path 755" class="cls-2" d="M190.922,152.038v67.625H127.3V81.6c3.138.216,6.384,5.518,15.689,15.905l15.905,17.853C163.006,119.9,190.922,149.117,190.922,152.038Z" transform="translate(-52.41 -80.41)"/>
        <path id="Path_756" data-name="Path 756" class="cls-3" d="M195.744,209.2v18.61a3.255,3.255,0,0,1-3.246,3.246H71.746A3.255,3.255,0,0,1,68.5,227.81V209.2Z" transform="translate(-57.232 -69.946)"/>
        <path id="Path_757" data-name="Path 757" class="cls-4" d="M190.922,209.2v18.61a3.255,3.255,0,0,1-3.246,3.246H127.3V209.2Z" transform="translate(-52.41 -69.946)"/>
        <path id="Path_758" data-name="Path 758" class="cls-1" d="M188.372,153.1H295.166a2.18,2.18,0,0,1,2.272,2.056v70.763a2.176,2.176,0,0,1-2.272,2.056H188.372a2.18,2.18,0,0,1-2.272-2.056V155.156A2.18,2.18,0,0,1,188.372,153.1Z" transform="translate(-47.589 -74.547)"/>
        <path id="Path_759" data-name="Path 759" class="cls-2" d="M237.5,153.1h53.343a2.18,2.18,0,0,1,2.272,2.056v70.763a2.176,2.176,0,0,1-2.272,2.056H237.5V153.1Z" transform="translate(-43.374 -74.547)"/>
        <path id="Path_760" data-name="Path 760" class="cls-3" d="M297.438,202.2V222a2.176,2.176,0,0,1-2.272,2.056H188.372A2.18,2.18,0,0,1,186.1,222V202.2Z" transform="translate(-47.589 -70.52)"/>
        <path id="Path_761" data-name="Path 761" class="cls-4" d="M291.723,202.2V222a2.176,2.176,0,0,1-2.272,2.056H255.8V202.2Z" transform="translate(-41.873 -70.52)"/>
        <path id="Path_762" data-name="Path 762" class="cls-5" d="M188.224,149.152,160.2,116.8H292.1l19.368,39.277H188.224Z" transform="translate(-49.712 -77.523)"/>
        <path id="Path_763" data-name="Path 763" class="cls-6" d="M216.6,116.8h70.871l19.368,39.277H239.214Z" transform="translate(-45.087 -77.523)"/>
        <path id="Path_764" data-name="Path 764" class="cls-7" d="M197.248,166.2h86.777a1.94,1.94,0,0,1,1.948,1.948v56.805a1.94,1.94,0,0,1-1.948,1.948H197.248a1.94,1.94,0,0,1-1.948-1.948V168.148A1.94,1.94,0,0,1,197.248,166.2Z" transform="translate(-46.834 -73.472)"/>
        <path id="Path_765" data-name="Path 765" class="cls-8" d="M237.5,166.2h43.064a1.94,1.94,0,0,1,1.948,1.948v56.805a1.94,1.94,0,0,1-1.948,1.948H237.5V166.2Z" transform="translate(-43.374 -73.472)"/>
        <rect id="Rectangle_63" data-name="Rectangle 63" class="cls-9" width="51.503" height="32.568" transform="translate(24.252 86.344)"/>
        <rect id="Rectangle_64" data-name="Rectangle 64" class="cls-10" width="25.752" height="32.568" transform="translate(50.004 86.344)"/>
        <rect id="Rectangle_65" data-name="Rectangle 65" class="cls-11" width="29.106" height="38.952" transform="translate(95.772 100.41)"/>
        <path id="Path_766" data-name="Path 766" class="cls-12" d="M146.4,174.415a14.715,14.715,0,1,1,29.43,0H146.4Z" transform="translate(-50.844 -74.005)"/>
        <rect id="Rectangle_66" data-name="Rectangle 66" class="cls-13" width="30.08" height="7.249" transform="translate(95.231 139.254)"/>
        <rect id="Rectangle_67" data-name="Rectangle 67" class="cls-14" width="40.251" height="7.249" transform="translate(90.254 146.611)"/>
        <rect id="Rectangle_68" data-name="Rectangle 68" class="cls-15" width="49.015" height="7.249" transform="translate(85.818 153.861)"/>
        <path id="Path_767" data-name="Path 767" class="cls-12" d="M102.7,140.166a27.266,27.266,0,0,1,54.533,0H102.7Z" transform="translate(-54.428 -77.843)"/>
        <path id="Path_768" data-name="Path 768" class="cls-16" d="M127.9,112.8a27.291,27.291,0,0,1,27.266,27.266H127.9V112.8Z" transform="translate(-52.361 -77.851)"/>
        <rect id="Rectangle_69" data-name="Rectangle 69" class="cls-17" width="21.748" height="7.466" transform="translate(32.691 6.492)"/>
        <rect id="Rectangle_70" data-name="Rectangle 70" class="cls-18" width="10.82" height="7.466" transform="translate(43.512 6.492)"/>
        <path id="Path_769" data-name="Path 769" class="cls-19" d="M91,93.4h15.581v11.686L91,122.506Z" transform="translate(-55.387 -79.442)"/>
        <path id="Path_770" data-name="Path 770" class="cls-20" d="M98.3,93.4h7.682v11.686L98.3,113.742Z" transform="translate(-54.788 -79.442)"/>
        <rect id="Rectangle_71" data-name="Rectangle 71" class="cls-21" width="111.338" height="4.436" transform="translate(138.511 78.553)"/>
        <path id="Path_771" data-name="Path 771" class="cls-22" d="M195.744,152.045v6.925L132.122,88.856,68.5,157.238v-5.194c0-.974,7.033-9.2,14.5-17.528,7.466-8.44,15.364-17.1,17.2-19.151l15.905-17.853c18.935-21.315,12.768-21.315,31.811,0l15.905,17.853C167.828,119.909,195.744,149.123,195.744,152.045Z" transform="translate(-57.232 -80.416)"/>
        <path id="Path_772" data-name="Path 772" class="cls-23" d="M188.446,152.1H295.24a3.286,3.286,0,0,1,2.272.866,2.947,2.947,0,0,1,.974,2.272V226a3.606,3.606,0,0,1-.974,2.272,3.492,3.492,0,0,1-2.272.866H188.446a3.286,3.286,0,0,1-2.272-.866A2.947,2.947,0,0,1,185.2,226V155.238a3.606,3.606,0,0,1,.974-2.272,3.88,3.88,0,0,1,2.272-.866Zm106.794,2.164H188.446a1.229,1.229,0,0,0-.866.325.982.982,0,0,0-.325.757v70.763a.982.982,0,0,0,.325.757,1.229,1.229,0,0,0,.866.325H295.24a1.229,1.229,0,0,0,.866-.325.982.982,0,0,0,.325-.757V155.238a.982.982,0,0,0-.325-.757A2.038,2.038,0,0,0,295.24,154.264Z" transform="translate(-47.662 -74.629)"/>
        <path id="Path_773" data-name="Path 773" class="cls-23" d="M160.282,117.964a1.082,1.082,0,0,1,0-2.164h131.9a1.04,1.04,0,0,1,.974.649l19.368,39.169a1.183,1.183,0,0,1-.433,1.407.65.65,0,0,1-.433.108H265.128a1.082,1.082,0,0,1,0-2.164h44.795l-18.286-37.113H160.282Z" transform="translate(-49.794 -77.605)"/>
        <path id="Path_774" data-name="Path 774" class="cls-23" d="M158.721,116.427a1,1,0,0,1,1.515-1.3l39.06,43.6a1,1,0,1,1-1.515,1.3Z" transform="translate(-49.856 -77.692)"/>
        <path id="Path_775" data-name="Path 775" class="cls-23" d="M197.33,165.2h86.777a3.021,3.021,0,0,1,2.164.866h0a3.021,3.021,0,0,1,.866,2.164v56.805a3.021,3.021,0,0,1-.866,2.164h0a3.021,3.021,0,0,1-2.164.866H197.33a2.958,2.958,0,0,1-3.03-3.03V168.23a3.021,3.021,0,0,1,.866-2.164h0a3.558,3.558,0,0,1,2.164-.866Zm86.777,2.164H197.33a.771.771,0,0,0-.649.325h0a.935.935,0,0,0-.325.649v56.805a.771.771,0,0,0,.325.649.935.935,0,0,0,.649.325h86.777a.771.771,0,0,0,.649-.325h0a.935.935,0,0,0,.325-.649V168.23a.771.771,0,0,0-.325-.649A.915.915,0,0,0,284.106,167.364Z" transform="translate(-46.916 -73.554)"/>
        <rect id="Rectangle_72" data-name="Rectangle 72" class="cls-24" width="127.244" height="2.056" transform="translate(11.268 138.28)"/>
        <path id="Path_776" data-name="Path 776" class="cls-23" d="M74.582,219.864a1.082,1.082,0,1,1,0-2.164H93.733a1.082,1.082,0,1,1,0,2.164Z" transform="translate(-56.822 -69.249)"/>
        <path id="Path_777" data-name="Path 777" class="cls-23" d="M82.4,218.882a1.082,1.082,0,0,1,2.164,0v6.167a1.082,1.082,0,0,1-2.164,0Z" transform="translate(-56.092 -69.241)"/>
        <path id="Path_778" data-name="Path 778" class="cls-23" d="M101.082,219.864a1.082,1.082,0,0,1,0-2.164h19.151a1.082,1.082,0,0,1,0,2.164Z" transform="translate(-54.649 -69.249)"/>
        <path id="Path_779" data-name="Path 779" class="cls-23" d="M110.964,219.349a1.082,1.082,0,0,1-2.164,0v-6.167a1.082,1.082,0,0,1,2.164,0Z" transform="translate(-53.927 -69.708)"/>
        <path id="Path_780" data-name="Path 780" class="cls-23" d="M139.8,217.8a1.082,1.082,0,1,1,0,2.164H127.682a1.082,1.082,0,1,1,0-2.164Z" transform="translate(-52.468 -69.241)"/>
        <path id="Path_781" data-name="Path 781" class="cls-23" d="M122.3,223.882a1.082,1.082,0,0,1,2.164,0v6.167a1.082,1.082,0,1,1-2.164,0Z" transform="translate(-52.82 -68.831)"/>
        <path id="Path_782" data-name="Path 782" class="cls-23" d="M80.582,159.4h51.5a1.084,1.084,0,0,1,1.082,1.082V193.05a1.084,1.084,0,0,1-1.082,1.082h-51.5A1.084,1.084,0,0,1,79.5,193.05V160.482a1.084,1.084,0,0,1,1.082-1.082Zm50.53,2.056H81.664v30.512h49.448Z" transform="translate(-56.33 -74.03)"/>
        <path id="Path_783" data-name="Path 783" class="cls-23" d="M180.146,122.132a1,1,0,0,1,1.3-1.515l6.384,5.735a1.023,1.023,0,0,1,.108,1.407.982.982,0,0,1-.757.325h-9.2A1.084,1.084,0,0,1,176.9,127a1.022,1.022,0,0,1,1.082-1.082h6.492Z" transform="translate(-48.343 -77.229)"/>
        <path id="Path_784" data-name="Path 784" class="cls-23" d="M198.546,132.032a1,1,0,0,1,1.3-1.515l6.384,5.735a1.023,1.023,0,0,1,.108,1.407.982.982,0,0,1-.757.325h-9.2a1.082,1.082,0,1,1,0-2.164h6.492Z" transform="translate(-46.834 -76.417)"/>
        <path id="Path_785" data-name="Path 785" class="cls-23" d="M204.146,122.132a1,1,0,1,1,1.3-1.515l6.384,5.735a1.023,1.023,0,0,1,.108,1.407.982.982,0,0,1-.757.325h-9.2A1.084,1.084,0,0,1,200.9,127a1.022,1.022,0,0,1,1.082-1.082h6.492Z" transform="translate(-46.375 -77.229)"/>
        <path id="Path_786" data-name="Path 786" class="cls-23" d="M222.546,132.032a1,1,0,0,1,1.3-1.515l6.384,5.735a1.023,1.023,0,0,1,.108,1.407.982.982,0,0,1-.757.325h-9.2a1.082,1.082,0,1,1,0-2.164h6.492Z" transform="translate(-44.866 -76.417)"/>
        <path id="Path_787" data-name="Path 787" class="cls-23" d="M226.846,122.132a1,1,0,1,1,1.3-1.515l6.384,5.735a1.023,1.023,0,0,1,.108,1.407.982.982,0,0,1-.757.325h-9.2A1.084,1.084,0,0,1,223.6,127a1.022,1.022,0,0,1,1.082-1.082h6.492Z" transform="translate(-44.513 -77.229)"/>
        <path id="Path_788" data-name="Path 788" class="cls-23" d="M245.246,132.032a1,1,0,1,1,1.3-1.515l6.384,5.735a1.023,1.023,0,0,1,.108,1.407.982.982,0,0,1-.757.325h-9.2a1.082,1.082,0,1,1,0-2.164h6.492Z" transform="translate(-43.005 -76.417)"/>
        <path id="Path_789" data-name="Path 789" class="cls-23" d="M250.846,122.132a1,1,0,1,1,1.3-1.515l6.384,5.735a1.023,1.023,0,0,1,.108,1.407.982.982,0,0,1-.757.325h-9.2A1.084,1.084,0,0,1,247.6,127a1.022,1.022,0,0,1,1.082-1.082h6.492Z" transform="translate(-42.545 -77.229)"/>
        <path id="Path_790" data-name="Path 790" class="cls-23" d="M269.246,132.032a1,1,0,1,1,1.3-1.515l6.384,5.735a1.023,1.023,0,0,1,.108,1.407.982.982,0,0,1-.757.325h-9.2a1.082,1.082,0,1,1,0-2.164h6.492Z" transform="translate(-41.037 -76.417)"/>
        <path id="Path_791" data-name="Path 791" class="cls-23" d="M274.846,122.132a1,1,0,1,1,1.3-1.515l6.384,5.735a1.023,1.023,0,0,1,.108,1.407.982.982,0,0,1-.757.325h-9.2A1.084,1.084,0,0,1,271.6,127a1.022,1.022,0,0,1,1.082-1.082h6.492Z" transform="translate(-40.577 -77.229)"/>
        <path id="Path_792" data-name="Path 792" class="cls-23" d="M297.792,225.388a1.021,1.021,0,1,1-1.731,1.082l-4.653-8.007a.975.975,0,0,1-.108-.541h0V164.471a1.136,1.136,0,0,1,.541-.974l10.82-6.167v-8.548a1.084,1.084,0,0,1,1.082-1.082h6.276a1.082,1.082,0,0,1,0,2.164h-5.194v8.115h0a1.1,1.1,0,0,1-.541.866l-10.82,6.276v52.585Z" transform="translate(-38.962 -74.989)"/>
        <path id="Path_794" data-name="Path 794" class="cls-23" d="M174.706,174.356h-27.05v36.788h27.05V174.356ZM146.682,172.3h29.106a1.084,1.084,0,0,1,1.082,1.082v38.952a1.084,1.084,0,0,1-1.082,1.082H146.682a1.084,1.084,0,0,1-1.082-1.082V173.382A1.084,1.084,0,0,1,146.682,172.3Z" transform="translate(-50.91 -72.972)"/>
        <path id="Path_795" data-name="Path 795" class="cls-23" d="M145.5,174.5a15.435,15.435,0,0,1,4.653-11.145A15.881,15.881,0,0,1,161.3,158.7a15.435,15.435,0,0,1,11.145,4.653,15.881,15.881,0,0,1,4.653,11.145v1.082H145.608V174.5Zm6.059-9.738a14.06,14.06,0,0,0-4,8.656h27.266a13.741,13.741,0,0,0-13.633-12.659A13.675,13.675,0,0,0,151.559,164.759Z" transform="translate(-50.918 -74.087)"/>
        <path id="Path_796" data-name="Path 796" class="cls-23" d="M159.887,159.782a1.082,1.082,0,1,1,2.164,0V174.5a1.084,1.084,0,0,1-1.082,1.082.982.982,0,0,1-.757-.325l-10.387-10.387a1.071,1.071,0,0,1,1.515-1.515L160,172.009V159.782Z" transform="translate(-50.59 -74.087)"/>
        <path id="Path_797" data-name="Path 797" class="cls-23" d="M160.839,174.827a1.071,1.071,0,0,1-1.515-1.515l10.387-10.387a1.071,1.071,0,1,1,1.515,1.515Z" transform="translate(-49.811 -73.768)"/>
        <path id="Path_798" data-name="Path 798" class="cls-23" d="M166.592,204.631h-12.01a1.084,1.084,0,0,1-1.082-1.082v-6.167a1.084,1.084,0,0,1,1.082-1.082h12.01a1.084,1.084,0,0,1,1.082,1.082v6.167a1.261,1.261,0,0,1-1.082,1.082Zm-11.036-2.056h9.954v-4.112h-9.954Z" transform="translate(-50.262 -71.004)"/>
        <path id="Path_799" data-name="Path 799" class="cls-23" d="M150.125,195.039a1.071,1.071,0,0,1,1.515-1.515l3.354,3.354a1.071,1.071,0,1,1-1.515,1.515Z" transform="translate(-50.565 -71.258)"/>
        <path id="Path_800" data-name="Path 800" class="cls-23" d="M168.879,193.625a1.071,1.071,0,0,1,1.515,1.515l-3.354,3.354a1.071,1.071,0,0,1-1.515-1.515Z" transform="translate(-49.302 -71.25)"/>
        <path id="Path_801" data-name="Path 801" class="cls-23" d="M151.639,207.194a1.071,1.071,0,1,1-1.515-1.515l3.354-3.354a1.071,1.071,0,1,1,1.515,1.515Z" transform="translate(-50.565 -70.537)"/>
        <path id="Path_802" data-name="Path 802" class="cls-23" d="M170.394,205.679a1.071,1.071,0,0,1-1.515,1.515l-3.354-3.354a1.071,1.071,0,0,1,1.515-1.515Z" transform="translate(-49.302 -70.537)"/>
        <path id="Path_803" data-name="Path 803" class="cls-23" d="M146.182,208.3h30.08a1.084,1.084,0,0,1,1.082,1.082v7.249a1.084,1.084,0,0,1-1.082,1.082h-30.08a1.084,1.084,0,0,1-1.082-1.082v-7.249a1.159,1.159,0,0,1,1.082-1.082Zm29.106,2.056H147.264v5.194h28.024Z" transform="translate(-50.951 -70.02)"/>
        <path id="Path_804" data-name="Path 804" class="cls-23" d="M141.582,215h40.251a1.084,1.084,0,0,1,1.082,1.082v7.249a1.084,1.084,0,0,1-1.082,1.082H141.582a1.084,1.084,0,0,1-1.082-1.082v-7.249A1.022,1.022,0,0,1,141.582,215Zm39.169,2.056H142.664v5.194h38.087Z" transform="translate(-51.328 -69.471)"/>
        <path id="Path_805" data-name="Path 805" class="cls-23" d="M137.482,221.7H186.5a1.084,1.084,0,0,1,1.082,1.082v7.249a1.084,1.084,0,0,1-1.082,1.082H137.482a1.084,1.084,0,0,1-1.082-1.082v-7.249a1.164,1.164,0,0,1,1.082-1.082Zm47.933,2.056H138.456v5.194h46.959v-5.194Z" transform="translate(-51.664 -68.921)"/>
        <path id="Path_806" data-name="Path 806" class="cls-23" d="M95.8,223.882a1.082,1.082,0,0,1,2.164,0v6.167a1.082,1.082,0,1,1-2.164,0Z" transform="translate(-54.993 -68.831)"/>
        <path id="Path_807" data-name="Path 807" class="cls-23" d="M101.7,140.248a27.945,27.945,0,0,1,8.331-20.017,28.392,28.392,0,0,1,20.017-8.331,27.945,27.945,0,0,1,20.017,8.331,28.392,28.392,0,0,1,8.331,20.017v1.082H101.7v-1.082Zm9.846-18.61a26.448,26.448,0,0,0-7.682,17.528h52.477a25.948,25.948,0,0,0-7.682-17.528,26.252,26.252,0,0,0-37.113,0Z" transform="translate(-54.51 -77.925)"/>
        <path id="Path_808" data-name="Path 808" class="cls-23" d="M128.46,112.882a1.082,1.082,0,1,1,2.164,0v27.266a1.084,1.084,0,0,1-1.082,1.082.982.982,0,0,1-.757-.325l-19.26-19.26a1.071,1.071,0,1,1,1.515-1.515l17.528,17.528V112.882Z" transform="translate(-53.895 -77.933)"/>
        <path id="Path_809" data-name="Path 809" class="cls-23" d="M128.739,140.3a1.071,1.071,0,0,1-1.515-1.515l19.26-19.26A1.071,1.071,0,0,1,148,121.039Z" transform="translate(-52.443 -77.326)"/>
        <path id="Path_810" data-name="Path 810" class="cls-23" d="M287.228,178a3.021,3.021,0,0,1-.866,2.164h0a3.112,3.112,0,0,1-2.164.974H197.53a2.958,2.958,0,0,1-3.03-3.03h2.056a1.109,1.109,0,0,0,1.082,1.082h86.668a.982.982,0,0,0,.757-.325h0a.982.982,0,0,0,.325-.757h1.839Z" transform="translate(-46.9 -72.505)"/>
        <path id="Path_811" data-name="Path 811" class="cls-23" d="M287.228,171.1a3.021,3.021,0,0,1-.866,2.164h0a3.112,3.112,0,0,1-2.164.974H197.53a2.958,2.958,0,0,1-3.03-3.03h2.056a1.109,1.109,0,0,0,1.082,1.082h86.668a.982.982,0,0,0,.757-.325h0a.982.982,0,0,0,.325-.757h1.839Z" transform="translate(-46.9 -73.071)"/>
        <path id="Path_812" data-name="Path 812" class="cls-23" d="M287.228,184.9a3.021,3.021,0,0,1-.866,2.164h0a3.112,3.112,0,0,1-2.164.974H197.53a2.958,2.958,0,0,1-3.03-3.03h2.056a1.109,1.109,0,0,0,1.082,1.082h86.668a.982.982,0,0,0,.757-.325h0a.982.982,0,0,0,.325-.757h1.839Z" transform="translate(-46.9 -71.939)"/>
        <path id="Path_813" data-name="Path 813" class="cls-23" d="M287.236,198.6a3.021,3.021,0,0,1-.866,2.164h0a3.021,3.021,0,0,1-2.164.866H197.538a3.021,3.021,0,0,1-2.164-.866h0a3.112,3.112,0,0,1-.974-2.164h2.056a.982.982,0,0,0,.325.757h0a.982.982,0,0,0,.757.325h86.668a.982.982,0,0,0,.757-.325h0a.982.982,0,0,0,.325-.757Z" transform="translate(-46.908 -70.815)"/>
        <path id="Path_814" data-name="Path 814" class="cls-23" d="M287.236,191.7a3.021,3.021,0,0,1-.866,2.164h0a3.021,3.021,0,0,1-2.164.866H197.538a3.021,3.021,0,0,1-2.164-.866h0a3.112,3.112,0,0,1-.974-2.164h2.056a.982.982,0,0,0,.325.757h0a.982.982,0,0,0,.757.325h86.668a.982.982,0,0,0,.757-.325h0a.982.982,0,0,0,.325-.757Z" transform="translate(-46.908 -71.381)"/>
        <path id="Path_815" data-name="Path 815" class="cls-23" d="M287.228,205.5a3.021,3.021,0,0,1-.866,2.164h0a3.112,3.112,0,0,1-2.164.974H197.53a2.958,2.958,0,0,1-3.03-3.03h2.056a1.109,1.109,0,0,0,1.082,1.082h86.668a.982.982,0,0,0,.757-.325h0a.982.982,0,0,0,.325-.757h1.839Z" transform="translate(-46.9 -70.25)"/>
        <path id="Path_816" data-name="Path 816" class="cls-23" d="M287.228,219.2a3.021,3.021,0,0,1-.866,2.164h0a3.112,3.112,0,0,1-2.164.974H197.53a2.958,2.958,0,0,1-3.03-3.03h2.056a1.109,1.109,0,0,0,1.082,1.082h86.668a.982.982,0,0,0,.757-.325h0a.982.982,0,0,0,.325-.757h1.839Z" transform="translate(-46.9 -69.126)"/>
        <path id="Path_817" data-name="Path 817" class="cls-23" d="M287.228,212.3a3.021,3.021,0,0,1-.866,2.164h0a3.112,3.112,0,0,1-2.164.974H197.53a2.958,2.958,0,0,1-3.03-3.03h2.056a1.109,1.109,0,0,0,1.082,1.082h86.668a.982.982,0,0,0,.757-.325h0a.982.982,0,0,0,.325-.757h1.839Z" transform="translate(-46.9 -69.692)"/>
        <rect id="Rectangle_73" data-name="Rectangle 73" class="cls-24" width="9.954" height="2.056" transform="translate(138.511 130.706)"/>
        <path id="Path_818" data-name="Path 818" class="cls-23" d="M190.8,216.782a1.082,1.082,0,0,1,2.164,0v6.167a1.082,1.082,0,1,1-2.164,0Z" transform="translate(-47.203 -69.413)"/>
        <rect id="Rectangle_74" data-name="Rectangle 74" class="cls-24" width="9.954" height="2.056" transform="translate(239.354 130.49)"/>
        <path id="Path_819" data-name="Path 819" class="cls-23" d="M283.9,216.682a1.082,1.082,0,1,1,2.164,0v6.167a1.082,1.082,0,1,1-2.164,0Z" transform="translate(-39.569 -69.421)"/>
        <path id="Path_820" data-name="Path 820" class="cls-23" d="M191.159,208.3a1.082,1.082,0,1,1,0,2.164h-4.977a1.082,1.082,0,1,1,0-2.164Z" transform="translate(-47.671 -70.02)"/>
        <path id="Path_821" data-name="Path 821" class="cls-23" d="M289.459,207.1a1.082,1.082,0,0,1,0,2.164h-4.977a1.082,1.082,0,0,1,0-2.164Z" transform="translate(-39.61 -70.118)"/>
        <path id="Path_822" data-name="Path 822" class="cls-23" d="M166.592,188.631h-12.01a1.084,1.084,0,0,1-1.082-1.082v-6.167a1.084,1.084,0,0,1,1.082-1.082h12.01a1.084,1.084,0,0,1,1.082,1.082v6.167a1.159,1.159,0,0,1-1.082,1.082Zm-11.036-2.056h9.954v-4.112h-9.954Z" transform="translate(-50.262 -72.316)"/>
        <path id="Path_823" data-name="Path 823" class="cls-23" d="M150.125,179.139a1.071,1.071,0,1,1,1.515-1.515l3.354,3.354a1.071,1.071,0,1,1-1.515,1.515Z" transform="translate(-50.565 -72.562)"/>
        <path id="Path_824" data-name="Path 824" class="cls-23" d="M168.879,177.625a1.071,1.071,0,0,1,1.515,1.515l-3.354,3.354a1.071,1.071,0,0,1-1.515-1.515Z" transform="translate(-49.302 -72.562)"/>
        <path id="Path_825" data-name="Path 825" class="cls-23" d="M151.639,191.194a1.071,1.071,0,1,1-1.515-1.515l3.354-3.354a1.071,1.071,0,1,1,1.515,1.515Z" transform="translate(-50.565 -71.849)"/>
        <path id="Path_826" data-name="Path 826" class="cls-23" d="M170.394,189.779a1.071,1.071,0,0,1-1.515,1.515l-3.354-3.354a1.071,1.071,0,0,1,1.515-1.515Z" transform="translate(-49.302 -71.84)"/>
        <rect id="Rectangle_75" data-name="Rectangle 75" class="cls-24" width="51.503" height="2.056" transform="translate(24.252 94.026)"/>
        <rect id="Rectangle_76" data-name="Rectangle 76" class="cls-24" width="2.056" height="23.804" transform="translate(49.03 95.108)"/>
        <path id="Path_827" data-name="Path 827" class="cls-23" d="M88.738,174.025a1.071,1.071,0,0,1,1.515,1.515l-2.813,2.813a1.071,1.071,0,0,1-1.515-1.515Z" transform="translate(-55.83 -72.857)"/>
        <path id="Path_828" data-name="Path 828" class="cls-23" d="M86.739,187.264a1.071,1.071,0,1,1-1.515-1.515L98.75,172.225a1.071,1.071,0,0,1,1.515,1.515Z" transform="translate(-55.887 -73.005)"/>
        <path id="Path_829" data-name="Path 829" class="cls-23" d="M97.13,179.925a1.071,1.071,0,1,1,1.515,1.515l-2.705,2.705a1.071,1.071,0,0,1-1.515-1.515Z" transform="translate(-55.133 -72.373)"/>
        <path id="Path_830" data-name="Path 830" class="cls-23" d="M113.038,174.925a1.071,1.071,0,1,1,1.515,1.515l-2.813,2.813a1.071,1.071,0,0,1-1.515-1.515Z" transform="translate(-53.837 -72.783)"/>
        <path id="Path_831" data-name="Path 831" class="cls-23" d="M110.939,188.064a1.071,1.071,0,1,1-1.515-1.515l13.525-13.525a1.071,1.071,0,0,1,1.515,1.515Z" transform="translate(-53.903 -72.939)"/>
        <path id="Path_832" data-name="Path 832" class="cls-23" d="M121.33,180.825a1.071,1.071,0,1,1,1.515,1.515l-2.705,2.705a1.071,1.071,0,1,1-1.515-1.515Z" transform="translate(-53.148 -72.3)"/>
        <path id="Path_833" data-name="Path 833" class="cls-23" d="M88.382,85.5H110.13a1.084,1.084,0,0,1,1.082,1.082v7.466a1.084,1.084,0,0,1-1.082,1.082H88.382A1.084,1.084,0,0,1,87.3,94.048V86.582A1.084,1.084,0,0,1,88.382,85.5Zm20.666,2.164H89.356v5.3H108.94v-5.3Z" transform="translate(-55.691 -80.09)"/>
        <path id="Path_834" data-name="Path 834" class="cls-23" d="M91.074,92.4h16.663v13.092L90.1,125.185V92.4Zm14.607,2.056H92.156v25.427l13.525-15.148Z" transform="translate(-55.461 -79.524)"/>
        <path id="Path_835" data-name="Path 835" class="cls-23" d="M93.982,101.564a1.082,1.082,0,0,1,0-2.164H103.5a1.082,1.082,0,0,1,0,2.164Z" transform="translate(-55.231 -78.95)"/>
        <path id="Path_836" data-name="Path 836" class="cls-23" d="M99.464,100.812a1.082,1.082,0,0,1-2.164,0v-3.03a1.082,1.082,0,0,1,2.164,0Z" transform="translate(-54.87 -79.172)"/>
        <path id="Path_837" data-name="Path 837" class="cls-23" d="M93.982,109.864a1.082,1.082,0,1,1,0-2.164h4.761a1.082,1.082,0,1,1,0,2.164Z" transform="translate(-55.231 -78.27)"/>
        <path id="Path_838" data-name="Path 838" class="cls-23" d="M95.064,109.012a1.082,1.082,0,0,1-2.164,0v-3.03a1.082,1.082,0,1,1,2.164,0Z" transform="translate(-55.231 -78.499)"/>
        <path id="Path_839" data-name="Path 839" class="cls-23" d="M216.946,141.932a1,1,0,0,1,1.3-1.515l6.384,5.735a1.023,1.023,0,0,1,.108,1.407.982.982,0,0,1-.757.325h-9.2a1.082,1.082,0,0,1,0-2.164h6.492Z" transform="translate(-45.325 -75.606)"/>
        <path id="Path_840" data-name="Path 840" class="cls-23" d="M240.946,141.932a1,1,0,1,1,1.3-1.515l6.384,5.735a1.023,1.023,0,0,1,.108,1.407.982.982,0,0,1-.757.325h-9.2a1.082,1.082,0,0,1,0-2.164h6.492Z" transform="translate(-43.357 -75.606)"/>
        <path id="Path_841" data-name="Path 841" class="cls-23" d="M263.646,141.932a1,1,0,0,1,1.3-1.515l6.384,5.735a1.023,1.023,0,0,1,.108,1.407.982.982,0,0,1-.757.325h-9.2a1.082,1.082,0,0,1,0-2.164h6.492Z" transform="translate(-41.496 -75.606)"/>
        <path id="Path_842" data-name="Path 842" class="cls-23" d="M287.646,141.932a1,1,0,0,1,1.3-1.515l6.384,5.735a1.023,1.023,0,0,1,.108,1.407.982.982,0,0,1-.757.325h-9.2a1.082,1.082,0,0,1,0-2.164h6.492Z" transform="translate(-39.528 -75.606)"/>
        <path id="Path_843" data-name="Path 843" class="cls-23" d="M192.946,141.932a1,1,0,1,1,1.3-1.515l6.384,5.735a1.023,1.023,0,0,1,.108,1.407.982.982,0,0,1-.757.325h-9.2a1.082,1.082,0,1,1,0-2.164h6.492Z" transform="translate(-47.293 -75.606)"/>
        <path id="Path_844" data-name="Path 844" class="cls-23" d="M196.8,152.129v86.236a3.929,3.929,0,0,1-1.3,3.03,4.339,4.339,0,0,1-3.03,1.3H71.828a3.929,3.929,0,0,1-3.03-1.3,4.339,4.339,0,0,1-1.3-3.03V152.129c0-.757,1.839-3.246,4.653-6.708,2.705-3.138,6.276-7.358,10.063-11.577,4.977-5.626,9.954-11.145,13.309-14.823,1.948-2.164,3.354-3.787,3.9-4.328l15.905-17.853c2.705-3.03,4.869-5.626,6.708-7.79,4.761-5.626,7.141-8.548,9.954-8.548h0c2.813,0,5.194,2.813,9.954,8.548,1.839,2.164,4.112,4.869,6.708,7.79l15.905,17.853c.757.866,2.6,2.813,4.977,5.41,9.413,10.063,27.266,29.322,27.266,32.027Zm-2.056,86.236V152.129c0-1.948-17.528-20.774-26.725-30.621-2.38-2.489-4.112-4.436-4.977-5.41L147.135,98.353c-2.813-3.138-4.977-5.735-6.817-7.79-4.328-5.194-6.6-7.79-8.331-7.79h0c-1.839,0-4,2.6-8.331,7.79-1.839,2.164-4,4.761-6.817,7.79l-15.905,17.853c-.757.866-2.056,2.38-3.9,4.328-3.462,3.9-8.656,9.522-13.309,14.823-3.679,4.22-7.249,8.331-9.954,11.577a64.94,64.94,0,0,0-4.22,5.3v86.236a1.816,1.816,0,0,0,.649,1.515,2.136,2.136,0,0,0,1.515.649H192.471a1.816,1.816,0,0,0,1.515-.649A1.947,1.947,0,0,0,194.744,238.364Z" transform="translate(-57.314 -80.5)"/>
        <path id="Path_845" data-name="Path 845" class="cls-23" d="M97.378,115.126a1,1,0,0,1,1.515,1.3l-39.06,43.6a1,1,0,1,1-1.515-1.3Z" transform="translate(-58.086 -77.688)"/>
        <path id="Path_846" data-name="Path 846" class="cls-23" d="M198.264,228.884a1.082,1.082,0,1,1-2.164,0v-5.3a1.082,1.082,0,1,1,2.164,0Z" transform="translate(-46.769 -68.856)"/>
      </g>
      <g id="Group_601" data-name="Group 601">
        <path id="Path_847" data-name="Path 847" class="cls-23" d="M79.659,138.458,54.123,112.923H39.3V111.3H54.773l26.076,25.968Z" transform="translate(-39.3 -13.703)"/>
        <rect id="Rectangle_77" data-name="Rectangle 77" class="cls-24" width="2.056" height="27.916" transform="translate(195.734 75.632)"/>
        <path id="Path_848" data-name="Path 848" class="cls-23" d="M307.469,118.256l-16.663,16.771Z" transform="translate(-18.791 -13.301)"/>
        <path id="Path_849" data-name="Path 849" class="cls-23" d="M108.982,23.264a1.082,1.082,0,1,1,0-2.164h19.8a1.084,1.084,0,0,1,1.082,1.082V86.561a1.082,1.082,0,0,1-2.164,0v-63.3Z" transform="translate(-33.675 -21.1)"/>
        <path id="Path_850" data-name="Path 850" class="cls-23" d="M148.5,109.468,204.764,53.2V36h2.056V54.069l-56.805,56.913Z" transform="translate(-30.345 -19.878)"/>
        <path id="Path_851" data-name="Path 851" class="cls-23" d="M127.182,50.364a1.082,1.082,0,0,1,0-2.164h12.227a1.082,1.082,0,1,1,0,2.164Z" transform="translate(-32.182 -18.878)"/>
      </g>
    </g>
    <g id="Icons_1_" transform="translate(0 -0.553)">
      <g id="Group_603" data-name="Group 603" transform="translate(70.316)">
        <circle id="Ellipse_3" data-name="Ellipse 3" class="cls-25" cx="22.938" cy="22.938" r="22.938" transform="translate(0 45.758) rotate(-85.873)"/>
        <path id="Path_858" data-name="Path 858" class="cls-23" d="M89.512,0A23.828,23.828,0,1,1,72.525,7.033,24.052,24.052,0,0,1,89.512,0Zm15.473,8.44A21.658,21.658,0,0,0,89.512,2.056,22.113,22.113,0,0,0,74.04,8.44a21.658,21.658,0,0,0-6.384,15.473A22.113,22.113,0,0,0,74.04,39.385a21.658,21.658,0,0,0,15.473,6.384,22.113,22.113,0,0,0,15.473-6.384,21.658,21.658,0,0,0,6.384-15.473A22.113,22.113,0,0,0,104.985,8.44Z" transform="translate(-64.937 0.598)"/>
        <path id="Path_859" data-name="Path 859" class="cls-1" d="M88.212,6.1A10.667,10.667,0,0,1,98.924,16.812a10.775,10.775,0,0,1-5.3,9.305v4.761a4.11,4.11,0,0,1-4.112,4.112h-2.6A4.11,4.11,0,0,1,82.8,30.878V26.117a10.551,10.551,0,0,1-5.3-9.305A10.736,10.736,0,0,1,88.212,6.1Z" transform="translate(-63.961 1.098)"/>
        <path id="Path_860" data-name="Path 860" class="cls-2" d="M87.4,6.1A10.667,10.667,0,0,1,98.112,16.812a10.775,10.775,0,0,1-5.3,9.305v4.761A4.11,4.11,0,0,1,88.7,34.989H87.4Z" transform="translate(-63.149 1.098)"/>
        <path id="Path_861" data-name="Path 861" class="cls-3" d="M93.22,28.9v4.761a4.11,4.11,0,0,1-4.112,4.112h-2.6A4.11,4.11,0,0,1,82.4,33.661V28.9Z" transform="translate(-63.559 2.968)"/>
        <path id="Path_862" data-name="Path 862" class="cls-4" d="M92.81,28.9v4.761A4.11,4.11,0,0,1,88.7,37.772H87.4V29.008h5.41Z" transform="translate(-63.149 2.968)"/>
        <path id="Path_863" data-name="Path 863" class="cls-23" d="M88.286,5.2a11.822,11.822,0,0,1,11.794,11.794,11.744,11.744,0,0,1-1.515,5.843,12.218,12.218,0,0,1-3.787,4v5.085H81.9V26.84a12.218,12.218,0,0,1-3.787-4A11.859,11.859,0,0,1,80.062,8.662,11.259,11.259,0,0,1,88.286,5.2ZM95.1,10.069a9.75,9.75,0,0,0-6.817-2.813,9.558,9.558,0,0,0-6.817,2.813,9.75,9.75,0,0,0-2.813,6.817,9.723,9.723,0,0,0,4.869,8.44l.541.325v4.22h8.656V25.65l.541-.325a9.43,9.43,0,0,0,3.571-3.571,9.1,9.1,0,0,0,1.3-4.869A11.008,11.008,0,0,0,95.1,10.069Z" transform="translate(-64.035 1.025)"/>
        <path id="Path_864" data-name="Path 864" class="cls-23" d="M94.268,28.974v4.761a4.732,4.732,0,0,1-1.515,3.571,4.906,4.906,0,0,1-3.571,1.515h-2.6a4.732,4.732,0,0,1-3.571-1.515A4.906,4.906,0,0,1,81.5,33.735V28H94.268v.974Zm-2.056,4.653V29.948H83.556v3.679a2.958,2.958,0,0,0,3.03,3.03h2.6a2.958,2.958,0,0,0,3.03-3.03Z" transform="translate(-63.633 2.894)"/>
        <path id="Path_865" data-name="Path 865" class="cls-23" d="M92.588,29.309a.631.631,0,0,1,.649,1.082L83.174,36.233a.631.631,0,0,1-.649-1.082Z" transform="translate(-63.576 2.992)"/>
        <path id="Path_866" data-name="Path 866" class="cls-23" d="M88.825,28.409a.631.631,0,0,1,.649,1.082l-6.6,3.787a.631.631,0,1,1-.649-1.082Z" transform="translate(-63.6 2.919)"/>
        <path id="Path_867" data-name="Path 867" class="cls-23" d="M92.317,32.509a.631.631,0,0,1,.649,1.082l-6.492,3.679a.631.631,0,0,1-.649-1.082Z" transform="translate(-63.305 3.255)"/>
        <path id="Path_868" data-name="Path 868" class="cls-23" d="M83.5,18.033a1.063,1.063,0,1,1,2.056-.541l2.272,8.44,2.38-8.872a1.063,1.063,0,1,1,2.056.541L88.912,30.151a1.069,1.069,0,0,1-.757.757,1.175,1.175,0,0,1-1.3-.757Z" transform="translate(-63.471 1.933)"/>
      </g>
      <g id="Group_604" data-name="Group 604" transform="translate(0 99.061)">
        <path id="Path_869" data-name="Path 869" class="cls-26" d="M21.666,133.449A20.775,20.775,0,1,0,1,112.674,20.78,20.78,0,0,0,21.666,133.449Z" transform="translate(0.082 -90.926)"/>
        <path id="Path_870" data-name="Path 870" class="cls-23" d="M21.748,91a21.748,21.748,0,0,1,0,43.5,21.406,21.406,0,0,1-15.364-6.384,21.681,21.681,0,0,1,0-30.729A21.406,21.406,0,0,1,21.748,91Zm13.958,7.79a19.854,19.854,0,1,0,5.735,13.958A19.27,19.27,0,0,0,35.706,98.79Z" transform="translate(0 -91)"/>
        <path id="Path_871" data-name="Path 871" class="cls-6" d="M19.61,113.718c-6.059-6.817-7.033-11.9-2.921-15.473,4.328-3.571,14.5-1.948,13.525,3.138-.108.866-.866,1.407-1.731,2.056-2.6,1.948-4,3.138-5.085,6.059S22.424,114.8,19.61,113.718Z" transform="translate(1.164 -90.563)"/>
        <path id="Path_872" data-name="Path 872" class="cls-23" d="M18.938,114.45c-6.6-7.358-7.574-12.984-2.813-16.987h0c2.38-1.948,6.276-2.489,9.413-1.948a9.92,9.92,0,0,1,2.705.866A6.69,6.69,0,0,1,30.408,98a4.158,4.158,0,0,1,.974,3.571,2.977,2.977,0,0,1-.866,1.623,4.33,4.33,0,0,1-1.3,1.082h0a18.176,18.176,0,0,0-2.921,2.489,7.447,7.447,0,0,0-1.731,3.03,10.636,10.636,0,0,0-.541,1.731c-.108.541-.325.974-.433,1.407-.649,1.839-1.623,2.705-4.112,1.731l-.216-.108-.325-.108ZM17.424,99.086c-3.571,3.03-2.6,7.682,2.921,13.741a.934.934,0,0,0,1.3-.649,8.219,8.219,0,0,1,.433-1.19,19.169,19.169,0,0,1,.649-1.839,10.039,10.039,0,0,1,2.164-3.679,21.68,21.68,0,0,1,3.246-2.813h0a10.48,10.48,0,0,0,.974-.757.935.935,0,0,0,.325-.649,2.114,2.114,0,0,0-.541-1.839,4.853,4.853,0,0,0-1.407-1.082,12.728,12.728,0,0,0-2.164-.757c-2.813-.433-6.059,0-7.9,1.515Z" transform="translate(1.079 -90.646)"/>
        <path id="Path_873" data-name="Path 873" class="cls-5" d="M23.086,111.54c-2.813,8.656-6.817,12.118-11.9,10.279-5.3-1.948-8.981-11.577-4.112-13.309a3.292,3.292,0,0,1,2.6.433c3.03,1.3,4.761,1.948,7.79,1.407C20.6,109.808,22.653,108.51,23.086,111.54Z" transform="translate(0.393 -89.575)"/>
        <path id="Path_874" data-name="Path 874" class="cls-23" d="M24.145,111.95c-3.03,9.305-7.466,12.984-13.309,10.928h0c-2.921-1.082-5.3-4.112-6.384-7.249a14.907,14.907,0,0,1-.649-2.813,5.672,5.672,0,0,1,.325-2.705,4.132,4.132,0,0,1,2.6-2.6,3.553,3.553,0,0,1,1.839-.108,8.481,8.481,0,0,1,1.515.541,16.835,16.835,0,0,0,3.679,1.3,9.855,9.855,0,0,0,3.571,0,8.105,8.105,0,0,0,1.731-.433c.541-.108.974-.216,1.407-.325,1.948-.325,3.138,0,3.571,2.705v.216l.108.541ZM11.593,120.93c4.436,1.515,7.9-1.623,10.5-9.413-.216-.757-.541-.866-1.19-.757a11.186,11.186,0,0,0-1.3.325c-.541.108-1.19.325-1.948.433a11.607,11.607,0,0,1-4.328,0,20.611,20.611,0,0,1-4.112-1.407,8.219,8.219,0,0,0-1.19-.433.681.681,0,0,0-.649,0,2.27,2.27,0,0,0-1.407,1.407,4.778,4.778,0,0,0-.216,1.839,5.815,5.815,0,0,0,.541,2.272C7.374,117.576,9.321,120.065,11.593,120.93Z" transform="translate(0.309 -89.661)"/>
        <path id="Path_875" data-name="Path 875" class="cls-6" d="M19.579,109.755c8.872-1.839,13.85-.216,14.823,5.194.974,5.626-5.626,13.525-9.522,10.171a3.651,3.651,0,0,1-.866-2.489c-.325-3.246-.757-5.085-2.705-7.466C19.363,112.677,17.2,111.595,19.579,109.755Z" transform="translate(1.52 -89.522)"/>
        <path id="Path_876" data-name="Path 876" class="cls-23" d="M19.446,108.759c9.63-2.056,14.932,0,16.122,6.059h0c.541,3.03-.974,6.708-3.03,9.089a12.155,12.155,0,0,1-2.164,1.948,7.266,7.266,0,0,1-2.489,1.082,4.353,4.353,0,0,1-3.571-.974,3.319,3.319,0,0,1-.974-1.515l-.325-1.623a27.233,27.233,0,0,0-.649-3.787,8.7,8.7,0,0,0-1.731-3.03c-.433-.433-.866-.974-1.19-1.3s-.649-.757-.974-1.082c-1.19-1.515-1.515-2.813.541-4.436l.216-.108.216-.325Zm14.066,6.384c-.866-4.544-5.3-6.059-13.417-4.436a.932.932,0,0,0-.108,1.407,7,7,0,0,0,.866.974,16.643,16.643,0,0,1,1.3,1.407,11.322,11.322,0,0,1,2.164,3.787,21.124,21.124,0,0,1,.757,4.22,3.89,3.89,0,0,0,.216,1.19l.325.649a2.332,2.332,0,0,0,1.839.541,3.679,3.679,0,0,0,1.623-.757,11.581,11.581,0,0,0,1.731-1.515C32.754,120.552,33.945,117.523,33.512,115.142Z" transform="translate(1.437 -89.607)"/>
        <path id="Path_877" data-name="Path 877" class="cls-2" d="M20.363,114.725a3.462,3.462,0,1,0-3.462-3.462A3.418,3.418,0,0,0,20.363,114.725Z" transform="translate(1.385 -89.622)"/>
        <path id="Path_878" data-name="Path 878" class="cls-23" d="M20.444,106.8a4.875,4.875,0,0,1,3.246,1.3,4.4,4.4,0,0,1,1.3,3.246,4.875,4.875,0,0,1-1.3,3.246,4.4,4.4,0,0,1-3.246,1.3,4.875,4.875,0,0,1-3.246-1.3,4.4,4.4,0,0,1-1.3-3.246,4.875,4.875,0,0,1,1.3-3.246,4.4,4.4,0,0,1,3.246-1.3Zm1.731,2.705a2.357,2.357,0,1,0,.757,1.731A3.556,3.556,0,0,0,22.176,109.505Z" transform="translate(1.304 -89.704)"/>
      </g>
      <g id="Group_605" data-name="Group 605" transform="translate(223.002 65.638)">
        <path id="Path_879" data-name="Path 879" class="cls-26" d="M340.981,133.962A15.581,15.581,0,1,0,325.4,118.381,15.655,15.655,0,0,0,340.981,133.962Z" transform="translate(-324.318 -101.61)"/>
        <path id="Path_880" data-name="Path 880" class="cls-23" d="M341.063,101.7a16.693,16.693,0,0,1,11.794,4.869,16.5,16.5,0,0,1,4.869,11.794,16.693,16.693,0,0,1-4.869,11.794,16.5,16.5,0,0,1-11.794,4.869,16.693,16.693,0,0,1-11.794-4.869,16.5,16.5,0,0,1-4.869-11.794,16.693,16.693,0,0,1,4.869-11.794,17.163,17.163,0,0,1,11.794-4.869Zm10.279,6.384a14.629,14.629,0,1,0,4.22,10.279A13.706,13.706,0,0,0,351.342,108.084Z" transform="translate(-324.4 -101.7)"/>
        <path id="Path_881" data-name="Path 881" class="cls-6" d="M341.735,123.637a3.483,3.483,0,0,1,1.623,3.03,3.679,3.679,0,1,1-7.358,0,3.6,3.6,0,0,1,1.623-3.03V107.948a2,2,0,0,1,4,0v15.689Z" transform="translate(-323.449 -101.347)"/>
        <path id="Path_882" data-name="Path 882" class="cls-27" d="M337.6,115.746v-7.9a2,2,0,0,1,4,0v7.9Z" transform="translate(-323.318 -101.356)"/>
        <path id="Path_883" data-name="Path 883" class="cls-23" d="M342.8,123.178a4.085,4.085,0,0,1,1.082,1.3,5.03,5.03,0,0,1,.541,2.272,4.761,4.761,0,0,1-9.522,0,5.815,5.815,0,0,1,.541-2.272,4.329,4.329,0,0,1,1.082-1.3V108.03a3.021,3.021,0,0,1,.866-2.164h0a3.021,3.021,0,0,1,2.164-.866,3.054,3.054,0,0,1,2.164.757,3.288,3.288,0,0,1,.866,2.164v15.256Zm-.649,2.38a2.555,2.555,0,0,0-.866-.974l-.433-.325V108.03a1.333,1.333,0,0,0-.216-.757,1.035,1.035,0,0,0-.757-.216,1.538,1.538,0,0,0-.649.216h0a.8.8,0,0,0-.216.649v16.23l-.433.325a2.554,2.554,0,0,0-.866.974,2.307,2.307,0,0,0-.325,1.3,2.6,2.6,0,1,0,5.194,0A3.879,3.879,0,0,0,342.149,125.558Z" transform="translate(-323.539 -101.429)"/>
        <path id="Path_884" data-name="Path 884" class="cls-23" d="M337.633,115.466a.433.433,0,0,1,0-.866h10.279a.433.433,0,0,1,0,.866Z" transform="translate(-323.35 -100.642)"/>
        <path id="Path_885" data-name="Path 885" class="cls-23" d="M343.533,113.266a.433.433,0,1,1,0-.866h3.354a.433.433,0,0,1,0,.866Z" transform="translate(-322.867 -100.823)"/>
        <path id="Path_886" data-name="Path 886" class="cls-23" d="M343.533,117.666a.433.433,0,0,1,0-.866h3.354a.433.433,0,1,1,0,.866Z" transform="translate(-322.867 -100.462)"/>
      </g>
      <g id="Group_606" data-name="Group 606" transform="translate(200.805 7.558)">
        <circle id="Ellipse_4" data-name="Ellipse 4" class="cls-25" cx="14.932" cy="14.932" r="14.932" transform="matrix(0.16, -0.987, 0.987, 0.16, 0, 29.481)"/>
        <path id="Path_887" data-name="Path 887" class="cls-23" d="M202.614,7.4a16.4,16.4,0,0,1,11.361,4.653,15.938,15.938,0,0,1,4.653,11.361,16.4,16.4,0,0,1-4.653,11.361,15.938,15.938,0,0,1-11.361,4.653,16.4,16.4,0,0,1-11.361-4.653A15.939,15.939,0,0,1,186.6,23.414a16.4,16.4,0,0,1,4.653-11.361A16.81,16.81,0,0,1,202.614,7.4Zm9.846,6.167a13.9,13.9,0,0,0-9.846-4.112,13.462,13.462,0,0,0-9.846,4.112,13.9,13.9,0,0,0-4.112,9.846,13.462,13.462,0,0,0,4.112,9.846,13.9,13.9,0,0,0,9.846,4.112,13.462,13.462,0,0,0,9.846-4.112,13.845,13.845,0,0,0,0-19.692Z" transform="translate(-185.504 -6.353)"/>
        <path id="Path_888" data-name="Path 888" class="cls-28" d="M196.159,21.3h11.794a.931.931,0,0,1,.866.866v8.007a.931.931,0,0,1-.866.866H196.267a.931.931,0,0,1-.866-.866V22.166A.72.72,0,0,1,196.159,21.3Z" transform="translate(-184.783 -5.213)"/>
        <path id="Path_889" data-name="Path 889" class="cls-23" d="M196.231,20.3h11.794a1.792,1.792,0,0,1,1.3.541h0a2,2,0,0,1,.541,1.3v8.007a1.792,1.792,0,0,1-.541,1.3h0a2,2,0,0,1-1.3.541H196.339a1.792,1.792,0,0,1-1.3-.541,2,2,0,0,1-.541-1.3V22.139a1.792,1.792,0,0,1,.541-1.3h0a1.55,1.55,0,0,1,1.19-.541Zm11.577,2.056H196.448v7.682h11.361Z" transform="translate(-184.856 -5.295)"/>
        <path id="Path_890" data-name="Path 890" class="cls-23" d="M198.656,20.882h6.708V18.069a2.969,2.969,0,0,0-2.813-2.813h-1.082a2.969,2.969,0,0,0-2.813,2.813v2.813Zm7.682,2.056H196.6V18.069a5.005,5.005,0,0,1,1.407-3.462,4.813,4.813,0,0,1,3.462-1.407h1.082a5.005,5.005,0,0,1,3.462,1.407,4.813,4.813,0,0,1,1.407,3.462v4.869Z" transform="translate(-184.684 -5.877)"/>
        <path id="Path_891" data-name="Path 891" class="cls-23" d="M200.6,24.982a1.082,1.082,0,1,1,2.164,0v2.056a1.082,1.082,0,1,1-2.164,0Z" transform="translate(-184.356 -5)"/>
        <path id="Path_892" data-name="Path 892" class="cls-23" d="M201.182,25.964a1.082,1.082,0,0,1,0-2.164h1.082a1.082,1.082,0,0,1,0,2.164Z" transform="translate(-184.397 -5.008)"/>
      </g>
      <g id="Group_607" data-name="Group 607" transform="translate(141.967 27.339)">
        <circle id="Ellipse_5" data-name="Ellipse 5" class="cls-25" cx="18.827" cy="18.827" r="18.827" transform="translate(0 26.625) rotate(-45)"/>
        <path id="Path_893" data-name="Path 893" class="cls-23" d="M157.309,31a19.949,19.949,0,1,1-14.066,5.843A19.8,19.8,0,0,1,157.309,31Zm12.551,7.249A17.763,17.763,0,1,0,175.054,50.8,17.665,17.665,0,0,0,169.86,38.249Z" transform="translate(-130.7 -24.199)"/>
        <path id="Path_894" data-name="Path 894" class="cls-12" d="M141.821,48.943a2.921,2.921,0,0,1,0-5.843h18.61a6.656,6.656,0,0,1,6.492,6.492v4.869a2.921,2.921,0,1,1-5.843,0V49.484a1.09,1.09,0,0,0-.108-.325.4.4,0,0,0-.325-.108H141.821Z" transform="translate(-130.577 -23.207)"/>
        <path id="Path_895" data-name="Path 895" class="cls-23" d="M141.9,50.107a4,4,0,0,1,0-8.007h18.61a9.277,9.277,0,0,1,2.921.541,9.879,9.879,0,0,1,2.489,1.623,6.631,6.631,0,0,1,1.623,2.489,8.261,8.261,0,0,1,.541,2.921v4.869a4,4,0,0,1-8.007,0V50.107H141.9ZM140.5,47.4a2.057,2.057,0,0,0,1.407.541h18.61a1.372,1.372,0,0,1,.649.108h0c.216.108.325.216.541.325h0a2.365,2.365,0,0,1,.325.541h0a1.372,1.372,0,0,1,.108.649v4.869a2.279,2.279,0,0,0,.541,1.407,2.057,2.057,0,0,0,1.407.541,2.279,2.279,0,0,0,1.407-.541,2.057,2.057,0,0,0,.541-1.407V49.566a4.391,4.391,0,0,0-.433-2.056,4.944,4.944,0,0,0-1.19-1.731,6.184,6.184,0,0,0-1.731-1.19,6.327,6.327,0,0,0-2.056-.433h-18.61a2.279,2.279,0,0,0-1.407.541,2.057,2.057,0,0,0-.541,1.407A1.392,1.392,0,0,0,140.5,47.4Z" transform="translate(-130.659 -23.289)"/>
        <path id="Path_896" data-name="Path 896" class="cls-12" d="M152.3,45.2h-4v-9.63a1.971,1.971,0,1,1,3.9,0V45.2Z" transform="translate(-129.806 -24.01)"/>
        <path id="Path_897" data-name="Path 897" class="cls-23" d="M152.385,46.258h-4a1.084,1.084,0,0,1-1.082-1.082v-9.63a3.286,3.286,0,0,1,.866-2.272,2.724,2.724,0,0,1,2.164-.974,3.112,3.112,0,0,1,2.164.974,3.286,3.286,0,0,1,.866,2.272v9.63a1,1,0,0,1-.974,1.082ZM149.464,44.2H151.3V35.654a1.745,1.745,0,0,0-.325-.974.812.812,0,0,0-1.3,0,1.323,1.323,0,0,0-.325.974V44.2Z" transform="translate(-129.888 -24.092)"/>
        <path id="Path_898" data-name="Path 898" class="cls-12" d="M145.948,40.4a1.948,1.948,0,0,1,0-3.9h9.522a1.948,1.948,0,1,1,0,3.9Z" transform="translate(-130.159 -23.748)"/>
        <path id="Path_899" data-name="Path 899" class="cls-23" d="M146.03,41.459a3.03,3.03,0,1,1,0-6.059h9.522a3.03,3.03,0,1,1,0,6.059Zm-.757-2.272a.935.935,0,0,0,.649.325h9.522a.771.771,0,0,0,.649-.325.935.935,0,0,0,.325-.649.771.771,0,0,0-.325-.649.935.935,0,0,0-.649-.325h-9.522a.771.771,0,0,0-.649.325.935.935,0,0,0-.325.649Z" transform="translate(-130.241 -23.838)"/>
        <path id="Path_900" data-name="Path 900" class="cls-12" d="M145.948,40.4a1.948,1.948,0,0,1,0-3.9h9.522a1.948,1.948,0,1,1,0,3.9Z" transform="translate(-130.159 -23.748)"/>
        <path id="Path_901" data-name="Path 901" class="cls-23" d="M146.03,41.459a3.03,3.03,0,1,1,0-6.059h9.522a3.03,3.03,0,1,1,0,6.059Zm-.757-2.272a.935.935,0,0,0,.649.325h9.522a.771.771,0,0,0,.649-.325.935.935,0,0,0,.325-.649.771.771,0,0,0-.325-.649.935.935,0,0,0-.649-.325h-9.522a.771.771,0,0,0-.649.325.935.935,0,0,0-.325.649Z" transform="translate(-130.241 -23.838)"/>
        <path id="Path_902" data-name="Path 902" class="cls-12" d="M150.248,36.4a1.948,1.948,0,1,1-1.948,1.948A1.94,1.94,0,0,1,150.248,36.4Z" transform="translate(-129.806 -23.756)"/>
        <path id="Path_903" data-name="Path 903" class="cls-23" d="M150.33,35.5a3.021,3.021,0,0,1,2.164.866h0a3.138,3.138,0,0,1,0,4.328h0a3.061,3.061,0,0,1-4.328-4.328h0a3.436,3.436,0,0,1,2.164-.866Zm.757,2.272a.935.935,0,0,0-.649-.325.771.771,0,0,0-.649.325h0a.935.935,0,0,0-.325.649.771.771,0,0,0,.325.649.935.935,0,0,0,.649.325.771.771,0,0,0,.649-.325h0a.935.935,0,0,0,.325-.649l-.325-.649Z" transform="translate(-129.888 -23.83)"/>
        <rect id="Rectangle_78" data-name="Rectangle 78" class="cls-9" width="5.951" height="3.679" transform="translate(30.288 30.497)"/>
        <path id="Path_904" data-name="Path 904" class="cls-23" d="M159.282,52h5.951a1.084,1.084,0,0,1,1.082,1.082v3.679a1.084,1.084,0,0,1-1.082,1.082h-5.951a1.084,1.084,0,0,1-1.082-1.082V53.082A1.159,1.159,0,0,1,159.282,52Zm4.869,2.056h-3.9v1.623h3.9Z" transform="translate(-128.994 -22.477)"/>
        <path id="Path_905" data-name="Path 905" class="cls-12" d="M161.8,57.4c.757,1.3,2.6,3.679,2.6,5.085a2.6,2.6,0,1,1-5.194,0C159.2,61.079,161.039,58.807,161.8,57.4Z" transform="translate(-128.912 -22.034)"/>
        <path id="Path_906" data-name="Path 906" class="cls-23" d="M162.753,57.015A9.517,9.517,0,0,1,163.4,58.1c.866,1.407,2.056,3.138,2.056,4.544a3.679,3.679,0,0,1-7.358,0c0-1.407,1.082-3.03,2.056-4.436.325-.433.541-.866.757-1.19l.866-1.515.974,1.515Zm.757,5.626c0-.757-.866-2.056-1.623-3.138a8.659,8.659,0,0,0-1.623,3.138,1.653,1.653,0,0,0,.433,1.082,1.389,1.389,0,0,0,1.082.433,1.653,1.653,0,0,0,1.082-.433A1.19,1.19,0,0,0,163.51,62.641Z" transform="translate(-129.002 -22.19)"/>
      </g>
    </g>
  </g>
</svg>
