<svg xmlns="http://www.w3.org/2000/svg" viewBox="0 0 260.738 268.8">
  <defs>
    <style>
      .cls-1 {
        fill: #ecc19c;
      }

      .cls-2 {
        fill: #dfb28b;
      }

      .cls-3 {
        fill: #cf9e76;
      }

      .cls-4 {
        fill: #f0d0b4;
      }

      .cls-5 {
        fill: #f5e0cd;
      }

      .cls-6 {
        fill: #8fb833;
      }

      .cls-7 {
        fill: #a8d06f;
      }

      .cls-8 {
        fill: #96c333;
      }

      .cls-9 {
        fill: #78ab1d;
      }

      .cls-10 {
        fill: #694b30;
      }

      .cls-11 {
        fill: #fff;
      }

      .cls-12 {
        fill: #785a30;
      }

      .cls-13 {
        fill: #5a4130;
      }
    </style>
  </defs>
  <g id="Group_1237" data-name="Group 1237" transform="translate(0)">
    <g id="Group_1233" data-name="Group 1233">
      <g id="Group_1231" data-name="Group 1231">
        <path id="Path_1282" data-name="Path 1282" class="cls-1" d="M0,131.5S-.7,25.9,63.6,11.3C127.9-3.1,125-.6,133.8,2c8.7,2.6,35.8,6.8,42,7.7s14.6,18.8-15.5,21c0,0,61.2,8.2,91.8,40.2,20,21,.2,21.5-8.7,18.9,0,0,27.3,13.6,9.2,25.2-7.7,4.9-23.4-4.8-23.4-4.8s22.6,12.2,2.2,18.4c-4.7,1.4-13.3-1.7-13.3-1.7s-.4,11.1-20,11.2c-13.8,0-44.1-13.7-65.3-11.6s-51,2.4-81.8-4.1C19.2,115.7,8.7,125.1,0,131.5Z"/>
        <path id="Path_1283" data-name="Path 1283" class="cls-2" d="M105.4,104.8c4.2,4.2,5.5,8.4,6.8,13.9-.4-1.6,1.2-3.9,1.8-5.4,4-11.5,3.9-24.8,5.6-36.8,1.5-10.3,4.9-23,13.7-29.7,8.2-6.3,18.8-9.6,29.2-10.1,4.5-.2,9-.5,13.6-.5,2.4,0,4.8.2,7.2.2,1.7,0,3.3.7,4.9.6-3.5-1.6-7.6-2-11.3-2.9-4.5-1.1-9-2.1-13.6-2.8-5.8-.8-11.8,0-17.7.6-6,.6-12.2,1.3-18.1,1.8-4.9.4-9,.6-13.2,3.6-8.5,6-12.3,16.4-17.7,24.7-5,7.6-16.4,17.9-26.2,18.4-5,.2-12.5.6-17.3-.8-2.2-.6-4.9-2.6-6.7-4.1-1.7-1.4-4-5.6-6.7-4.8-8.3,2.5,2.1,14.8,5.5,17.3,5.1,3.9,12.2,4,18.3,4.9,7.8,1.2,15.8,1,23.7,2.2C93.3,96,100.4,99.8,105.4,104.8Z"/>
        <path id="Path_1284" data-name="Path 1284" class="cls-3" d="M71.9,80.8a9.347,9.347,0,0,0,1.3-.4,20.935,20.935,0,0,0,3.4-1.5,44.813,44.813,0,0,0,10.1-8.7,161.529,161.529,0,0,0,11.5-15c2-2.9,4-5.8,6-8.8a105.754,105.754,0,0,1,6.7-9.1,13.374,13.374,0,0,1,5.1-3.9,25.824,25.824,0,0,1,5.8-1.8c3.8-.8,7.6-1.3,11.1-1.7,3.6-.3,7-.6,10.3-.6,3.2,0,6.3-.1,9.1-.1,5.6-.1,10.3-.2,13.6-.4s5.2-.4,5.2-.4l.1.5a30.892,30.892,0,0,1-5,1.9,79.422,79.422,0,0,1-13.7,2.9c-2.9.3-6,.7-9.2.9-3.3.2-6.7.3-10.2.4a97.684,97.684,0,0,0-10.7.7,24.407,24.407,0,0,0-5,1.2,10.184,10.184,0,0,0-3.9,2.7c-2.4,2.6-4.6,5.6-6.8,8.5s-4.4,5.8-6.5,8.6A164.391,164.391,0,0,1,87.7,71.3a42.337,42.337,0,0,1-10.9,8.3A20.083,20.083,0,0,1,73.1,81c-.9.2-1.3.3-1.3.3Z"/>
        <path id="Path_1285" data-name="Path 1285" class="cls-2" d="M164.4,130.4a27.19,27.19,0,0,1-3-.4c-1.7-.5-3.5-1.1-5.2-1.6a78.8,78.8,0,0,0-30.6-1.6c-1.5.2-4.8,0-5.9.6,7.7-3.8,13.9-6.6,18-14.2,3.1-5.7,6.1-11.8,7.6-17.6,2.2-8.4,2.6-18.2,2.9-26.9.1-3.5-2.4-23.8,2-25.2,3.6-1.2,6.1,14.6,6.3,16.7,1,12.2-2.2,28.8-7.6,39.8-2.2,4.6-6.3,9.1-6.3,14.3,0,3.4,2,6.1,4.8,7.9a61.021,61.021,0,0,0,10.9,5.3c2.7,1.1,5.4,2,8.1,3.3A14.16,14.16,0,0,0,164.4,130.4Z"/>
        <path id="Path_1286" data-name="Path 1286" class="cls-3" d="M243.3,89.9s-5.4-3.4-13.8-8a320.7,320.7,0,0,0-31.7-15c-3-1.2-6-2.2-8.9-3.3-3-1-5.9-1.9-8.7-2.8s-5.5-1.8-8.1-2.6c-2.6-.7-5.1-1.5-7.3-2.2-2.3-.5-4.4-1.1-6.3-1.6a45.61,45.61,0,0,0-4.9-1.1c-2.8-.6-4.3-1-4.3-1v-.5s1.6-.2,4.5-.3a29.877,29.877,0,0,1,5.2,0c2,.1,4.3.3,6.7.6,2.4.4,5,.9,7.8,1.4,2.8.6,5.6,1.5,8.5,2.4,2.9,1,5.8,2.2,8.8,3.4,2.9,1.4,5.9,2.6,8.8,4s5.8,2.8,8.6,4.3,5.6,2.9,8.2,4.4c5.3,2.9,10,5.9,14.1,8.5,8.1,5.2,13.2,9.1,13.2,9.1Z"/>
        <path id="Path_1287" data-name="Path 1287" class="cls-3" d="M232.6,112.5s-1.3-.5-3.7-1.4c-2.3-.9-5.7-2-9.6-3.8-2-.8-4.1-1.8-6.4-2.7-2.3-1-4.6-2.1-7-3.2-4.8-2.3-9.9-4.7-15.1-7.1-2.6-1.1-5.2-2.2-7.7-3.3q-3.9-1.65-7.5-3c-2.4-1-4.7-2.1-6.9-3-2.2-.8-4.3-1.7-6.3-2.5a36.157,36.157,0,0,0-5.4-2c-1.6-.5-3-1-4.2-1.4-2.4-.8-3.7-1.4-3.7-1.4l.1-.5s1.4,0,4,.1a42.143,42.143,0,0,1,4.6.3,34.668,34.668,0,0,1,5.9,1q3.15.75,6.9,1.8c2.4.7,4.8,1.8,7.3,2.8,2.5,1.1,5,2.2,7.5,3.6,2.5,1.3,5,2.7,7.5,4,10,5.5,19.8,11.1,27.3,15.1,3.7,2.1,7,3.5,9.2,4.6s3.5,1.7,3.5,1.7Z"/>
        <path id="Path_1288" data-name="Path 1288" class="cls-3" d="M218.1,127.1s-1.2-.2-3.3-.6c-1.1-.2-2.3-.4-3.8-.7a40.132,40.132,0,0,1-4.9-1.3c-3.6-.9-7.7-2.2-12.1-3.7s-9-3.2-13.6-4.8-9.2-3.1-13.5-4.6c-2.1-.8-4.2-1.6-6.1-2.4-1.9-.7-3.7-1.5-5.4-2.2s-3.2-1.4-4.6-1.9-2.6-1-3.6-1.4a31.794,31.794,0,0,1-3.1-1.4l.1-.5s1.2,0,3.4.1a44.631,44.631,0,0,1,9,1.2c1.8.4,3.8.9,5.9,1.4a51.7,51.7,0,0,1,6.3,2.1c2.1.9,4.4,1.7,6.5,2.8,2.2,1,4.4,2,6.7,3,4.5,2,8.9,4,13.1,5.8s8.1,3.5,11.5,4.7c1.7.6,3.2,1.3,4.7,1.7,1.4.4,2.7.8,3.7,1.1,2.1.6,3.2,1,3.2,1Z"/>
      </g>
      <g id="Group_1232" data-name="Group 1232">
        <path id="Path_1289" data-name="Path 1289" class="cls-1" d="M.8,247.5a4.531,4.531,0,0,1,.1-.8c1.9-9.6,23-101.7,125-48.7,0,0,25.4,8,35,7.8,9.5-.2,12.9-19.1,16.9-29.2s12.6-12,14.7-10.4-.5,9.2-.5,9.2,7.9-20.1,20.3-16.6c4.2,1.2,2.1,8.8,2.1,8.8s7.4-17.8,19.3-14.4c5.4,1.5,2.1,13.5,2.1,13.5s6.5-3.3,9.4,1.9c3.6,6.4-16.8,45.9-25.7,59.4-10.8,16.4-42,40.9-66.4,40.8C124.3,268.6,48.1,216.5.8,247.5Z"/>
        <path id="Path_1290" data-name="Path 1290" class="cls-4" d="M162.5,211s-5.6,6.3-2.1,9.8c5.4,5.5,19.7,5.1,19.7,5.1s7.9-7.3,1.5-13.6C178.2,209,162.5,211,162.5,211Z"/>
        <path id="Path_1291" data-name="Path 1291" class="cls-3" d="M97.8,228.9s.7-.2,1.9-.5c1.3-.3,3.1-.7,5.5-1.1a83.952,83.952,0,0,1,8.7-.9,106.231,106.231,0,0,1,11.4-.1,134.4,134.4,0,0,1,13.4,1.3A66.811,66.811,0,0,1,146,229c2.4.5,4.9,1.1,7.5,1.7a53.1,53.1,0,0,0,7.6,1.4,33.92,33.92,0,0,0,7.8-.1c5.1-.6,10.3-2.7,13.6-6.6a13.18,13.18,0,0,0,3.2-6.6,10.9,10.9,0,0,0,.1-1.7,3.083,3.083,0,0,0-.1-1,1.421,1.421,0,0,1-.2-.6,7.455,7.455,0,0,0-2.3-2.4c-4.2-2.6-9.7-3.4-14.7-3.7-1.3-.1-2.5-.1-3.8-.1-1.4,0-2.6,0-3.8-.1a54.2,54.2,0,0,1-7.4-1.3,116.654,116.654,0,0,1-12.9-3.9,181.6,181.6,0,0,1-18.5-7.9c-4.4-2.1-6.9-3.3-6.9-3.3s2.6,1,7.1,2.8,11.4,3.6,18.9,6.6a102.571,102.571,0,0,0,12.8,3.6,55.854,55.854,0,0,0,7,.9c1.2,0,2.6,0,3.7.1h3.9c5.3.3,10.9.9,16.1,4a9.291,9.291,0,0,1,3.3,3.5c.2.4.3.9.5,1.4.1.4.1.7.2,1.1a17.722,17.722,0,0,1-.1,2.4,15.656,15.656,0,0,1-3.8,8.1c-4,4.6-9.9,6.8-15.5,7.4a39.313,39.313,0,0,1-8.4,0,45.986,45.986,0,0,1-7.9-1.6c-2.5-.6-5-1.2-7.4-1.8a60.382,60.382,0,0,0-7.1-1.6,115.154,115.154,0,0,0-13.2-1.8c-4.1-.4-7.9-.4-11.3-.5-3.4.1-6.3.2-8.7.4a44.168,44.168,0,0,0-5.6.7A19.045,19.045,0,0,0,97.8,228.9Z"/>
        <path id="Path_1292" data-name="Path 1292" class="cls-3" d="M192.3,174.4s-2.8,9.1-5.8,18.2c-1.6,4.5-3.1,9-4.6,12.4-.4.8-.7,1.6-1,2.3a16.451,16.451,0,0,1-1,1.9c-.6,1.1-1,1.7-1,1.7l-3.3-3s.3-.4.8-1.1a7.3,7.3,0,0,0,.9-1.3q.45-.9,1.2-2.1c1.7-3,3.8-7.3,5.9-11.6C188.5,183.2,192.3,174.4,192.3,174.4Z"/>
        <path id="Path_1293" data-name="Path 1293" class="cls-3" d="M214.3,167.6a218.48,218.48,0,0,1-11.2,24.7c-1.6,3-3.3,5.9-5,8.7a80.168,80.168,0,0,1-5.1,7.2c-.8,1-1.6,1.9-2.3,2.7s-1.4,1.5-1.9,2c-1.1,1.1-1.8,1.7-1.8,1.7l-2.8-3.5s.6-.5,1.7-1.4a23.78,23.78,0,0,0,1.9-1.7l2.4-2.4a64.15,64.15,0,0,0,5.4-6.5c1.9-2.5,3.8-5.2,5.6-8.1A199.867,199.867,0,0,0,214.3,167.6Z"/>
        <path id="Path_1294" data-name="Path 1294" class="cls-3" d="M235.7,166.7a8.731,8.731,0,0,0-3.2,1.5A28.514,28.514,0,0,0,226,175a83.707,83.707,0,0,0-6.8,11.4c-2.1,4.4-4.3,9.2-6.8,13.8-4.9,9.3-10.8,18.2-17,23.7a25.011,25.011,0,0,1-8.8,5.3,17.268,17.268,0,0,1-3,.6,5,5,0,0,0-1.1.1l.1-4.5h.8a12.217,12.217,0,0,0,2.2-.3,19.718,19.718,0,0,0,7.5-4c5.8-4.6,12.1-13.1,17.3-22,2.7-4.4,5-9.1,7.5-13.4a81.98,81.98,0,0,1,7.6-11.1,28.624,28.624,0,0,1,7-6.5A7.366,7.366,0,0,1,235.7,166.7Z"/>
        <path id="Path_1295" data-name="Path 1295" class="cls-5" d="M162.5,211s5.1,4.6-2.1,9.8C160.4,220.8,156.9,216.6,162.5,211Z"/>
      </g>
    </g>
    <g id="Group_1236" data-name="Group 1236">
      <g id="Group_1234" data-name="Group 1234">
        <path id="Path_1296" data-name="Path 1296" class="cls-6" d="M162.2,158.6a86.439,86.439,0,0,0-1.7-15.4c-.4-2.6-.8-5.1-1.2-7.8l2.9-.4c.3,2.6.7,5.2,1.2,7.7a98.065,98.065,0,0,1,1.7,15.9Z"/>
        <path id="Path_1297" data-name="Path 1297" class="cls-6" d="M222.8,112.1c-17.1,5.3-61.3,4.1-61.5,55h0v37.2h3.9v-37C223.3,165.1,219,115.8,222.8,112.1Z"/>
        <path id="Path_1298" data-name="Path 1298" class="cls-6" d="M117.5,125.6c8.5,1.5,33.3,1.5,39.7,41.7C129.6,169.2,117.5,125.6,117.5,125.6Z"/>
        <path id="Path_1299" data-name="Path 1299" class="cls-6" d="M137.8,81.4s-11.7,42.8,21.6,54.5c.3.1.5.2.8.3v-.1c.5.5.9.2,1.2-.3v.1C178,97.6,147.4,86.5,137.8,81.4Z"/>
        <path id="Path_1300" data-name="Path 1300" class="cls-6" d="M164.1,179.1l-2.9-.1c.1-2.5-1.2-5.1-2.2-6.8a30.245,30.245,0,0,0-2.1-3.3c-.4-.6-.9-1-1.3-1.5s-.9-.9-1.3-1.4l2.3-1.8c.4.4.7.8,1.1,1.2.5.6,1.1,1.2,1.6,1.8a36.112,36.112,0,0,1,2.3,3.6C162.7,172.9,164.2,175.9,164.1,179.1Z"/>
        <path id="Path_1301" data-name="Path 1301" class="cls-7" d="M163.7,160.8v-3a26.8,26.8,0,0,1,.4-3.5,19.652,19.652,0,0,1,1-4.4,39.9,39.9,0,0,1,4.8-10.4,45.952,45.952,0,0,1,3.8-5.2c.7-.8,1.5-1.6,2.2-2.4a13.576,13.576,0,0,1,1.2-1.2l1.2-1.1a35.95,35.95,0,0,1,5.4-4c1-.6,1.9-1.1,2.8-1.6,1-.5,1.9-.9,2.9-1.3a54.333,54.333,0,0,1,5.7-1.9c1.7-.5,3.5-1.1,5.1-1.5,3.2-.8,5.8-1.4,7.7-1.8s2.9-.6,2.9-.6-1,.5-2.8,1.2-4.3,1.8-7.4,2.9c-1.5.6-3.1,1.2-4.8,1.9s-3.7,1.4-5.4,2.2c-.9.5-1.8.9-2.7,1.4s-1.7,1.1-2.6,1.6a55.06,55.06,0,0,0-5,3.8l-1.2,1.1a11.3,11.3,0,0,0-1.1,1.1c-.7.8-1.5,1.5-2.2,2.3a57.12,57.12,0,0,0-3.8,4.8c-1.2,1.6-2.1,3.3-3.1,4.8a38.1,38.1,0,0,0-2.2,4.6,29.79,29.79,0,0,0-1.5,4.1,27.738,27.738,0,0,0-.9,3.3C163.9,159.8,163.7,160.8,163.7,160.8Z"/>
        <path id="Path_1302" data-name="Path 1302" class="cls-7" d="M140.4,84.9a1.2,1.2,0,0,1,.4.4c.3.3.8.5,1.3.9,1.2.7,3,1.6,5,2.9q1.5.9,3.3,2.1c1.1.8,2.3,1.7,3.5,2.7l1.8,1.5a23.2,23.2,0,0,1,1.6,1.8,26.905,26.905,0,0,1,2.9,4.1,45.386,45.386,0,0,1,2.1,4.5c.5,1.5.9,3.1,1.3,4.6.3,1.5.5,3,.7,4.4.1,1.4.1,2.7.2,3.9,0,1.2-.2,2.3-.2,3.3a14.548,14.548,0,0,1-.4,2.5c-.3,1.4-.5,2.2-.5,2.2a19.68,19.68,0,0,1-.1-2.2,23.55,23.55,0,0,0-.1-2.5c-.1-1-.2-2-.3-3.2-.2-1.2-.4-2.4-.7-3.7s-.7-2.7-1-4.1l-1.5-4.2c-.7-1.3-1.2-2.8-2-4.1a21.876,21.876,0,0,0-2.5-3.7c-.5-.6-.9-1.1-1.4-1.7-.6-.5-1.1-1-1.6-1.5-1.1-1-2.1-1.9-3.1-2.9-1.1-.9-2-1.7-3-2.5-1.8-1.6-3.3-2.9-4.4-3.8A11.1,11.1,0,0,1,140.4,84.9Z"/>
        <path id="Path_1303" data-name="Path 1303" class="cls-7" d="M121.1,127.9s.8.1,2.1.4,3.3.7,5.6,1.2c.3.1.6.1.9.2a3,3,0,0,1,1,.4,14.166,14.166,0,0,1,1.8.8c.6.3,1.3.5,1.9.8a19.919,19.919,0,0,1,1.9,1.2,24.758,24.758,0,0,1,3.9,2.7,27.336,27.336,0,0,1,3.5,3.3c1,1.3,2.2,2.4,3.1,3.8a39.839,39.839,0,0,1,2.4,3.8c.7,1.4,1.3,2.7,1.9,3.9a18.16,18.16,0,0,1,1.3,3.7,23.73,23.73,0,0,1,.8,3.1c.1,1,.3,1.8.4,2.5a16.734,16.734,0,0,1,.2,2.1s-.3-.7-.8-2c-.2-.6-.5-1.4-.8-2.3s-.9-1.8-1.3-2.8a20.792,20.792,0,0,0-1.7-3.3c-.7-1.1-1.4-2.3-2.1-3.5-.9-1.2-1.7-2.4-2.6-3.6a43.754,43.754,0,0,0-2.9-3.4,31.067,31.067,0,0,0-3.2-3.1,39.157,39.157,0,0,0-3.3-2.7c-.6-.4-1.1-.8-1.7-1.2-.6-.3-1.2-.7-1.8-1a9.5,9.5,0,0,1-1.7-1,5.736,5.736,0,0,0-.7-.4,6.89,6.89,0,0,1-.8-.3c-2.2-.9-3.9-1.7-5.2-2.3A22.764,22.764,0,0,1,121.1,127.9Z"/>
        <path id="Path_1304" data-name="Path 1304" class="cls-8" d="M139.6,89.2s-7.8,30.3,18.4,42.3C157.2,109.7,139.6,89.2,139.6,89.2Z"/>
        <path id="Path_1305" data-name="Path 1305" class="cls-8" d="M187,145.7a14.76,14.76,0,0,0-4.7-.5c-1.8.2-3.9,1.2-5.6,1.1-1.4,0-1.9-.6-.6-2,5.7-6,14-4.5,21.3-3.8,2.4.2,6,1,5.4,4.2-.3,1.8-2.4,2.6-4,2.9C194.5,148.6,190.8,146.7,187,145.7Z"/>
        <path id="Path_1306" data-name="Path 1306" class="cls-8" d="M207.6,134.5a17.745,17.745,0,0,1-3.2.2,50.32,50.32,0,0,1-5.6-.8,26.588,26.588,0,0,0-6.9-.8c-.6,0-3.5.8-3.1-.6.2-.9,3.1-1.9,3.9-2.3a22.1,22.1,0,0,1,5.1-1.1c2.8-.3,5.6-.3,8.5-.6,1.2-.1,3-.3,4.1.2,1.8.9.9,3.7-.4,4.8A6.432,6.432,0,0,1,207.6,134.5Z"/>
        <path id="Path_1307" data-name="Path 1307" class="cls-8" d="M187.1,154.3c1.5.5,2.5,1.1,1.8,1.7-1,.8-2.3.4-3.5.6a26.954,26.954,0,0,1-2.8.4,32,32,0,0,0-8.1,1.4c-1.3.4-6.7,4.6-7,1.6-.3-2.6,4.8-6.2,6.8-7,2.6-1.1,5.2-.5,7.8.1A32.738,32.738,0,0,1,187.1,154.3Z"/>
        <path id="Path_1308" data-name="Path 1308" class="cls-8" d="M123.8,132.7c4.8,1.3,18.2,2.4,27.3,29.1C136.5,161.9,123.8,132.7,123.8,132.7Z"/>
        <path id="Path_1309" data-name="Path 1309" class="cls-9" d="M164.3,162.9s.3-1.1.9-3,1.4-4.6,2.7-7.8a54.5,54.5,0,0,1,2.3-5.1c1-1.7,1.9-3.6,3.1-5.4a50.192,50.192,0,0,1,4.1-5.3c.8-.8,1.6-1.6,2.4-2.5.9-.9,1.8-1.5,2.6-2.3a44.17,44.17,0,0,1,5.7-3.9,54.846,54.846,0,0,1,6-2.9c3.9-1.7,7.7-2.9,10.9-4.1,1.6-.6,3.1-1.1,4.3-1.5a28.453,28.453,0,0,0,3.3-1.3c1.8-.8,2.9-1.2,2.9-1.2s-.9.6-2.6,1.7c-.8.5-1.9,1.1-3.1,1.8-1.2.6-2.6,1.4-4.2,2.1-3.1,1.5-6.7,3-10.5,4.9-1.9.9-3.7,2-5.6,3a37.041,37.041,0,0,0-5.3,3.8,27.611,27.611,0,0,0-2.5,2.1l-2.3,2.3a45.162,45.162,0,0,0-4,4.9c-1.3,1.6-2.3,3.4-3.3,4.9-.9,1.7-1.9,3.2-2.6,4.7-1.6,3-2.8,5.5-3.7,7.3C164.8,161.9,164.3,162.9,164.3,162.9Z"/>
        <path id="Path_1310" data-name="Path 1310" class="cls-9" d="M168.8,153.3a10.711,10.711,0,0,1,.6-1.2c.1-.4.6-.8,1-1.3a12.55,12.55,0,0,1,1.7-1.3,15.955,15.955,0,0,1,2.3-1,13.1,13.1,0,0,1,2.7-.6,15.063,15.063,0,0,1,3-.1h.8l.8.1,1.4.2a17.363,17.363,0,0,1,2.9.7c1,.3,1.9.6,2.7.8a13.569,13.569,0,0,0,2.5.7c.8.2,1.5.5,2.2.6s1.3.3,1.9.4a8.636,8.636,0,0,0,1.5.1c.9.1,1.4.2,1.4.2a11.11,11.11,0,0,1-1.3.4,15.458,15.458,0,0,1-1.5.4c-.6.1-1.3.1-2.1.2a10.68,10.68,0,0,1-2.5-.1,10.872,10.872,0,0,1-2.6-.4c-.9-.2-1.9-.3-2.7-.5a23.256,23.256,0,0,0-2.8-.5l-1.4-.2-.6-.1-.7-.1a23.482,23.482,0,0,0-2.6-.1,17.722,17.722,0,0,0-2.4.1c-.8.1-1.5.3-2.1.4-.6.3-1.3.4-1.7.6-.4.3-.9.4-1.2.8C169.2,153,168.8,153.3,168.8,153.3Z"/>
        <path id="Path_1311" data-name="Path 1311" class="cls-9" d="M177.6,139.8s.4-.3,1.1-.9a8.467,8.467,0,0,1,1.4-1c.6-.3,1.2-.7,1.9-1.1.7-.3,1.6-.7,2.5-1,1-.3,1.8-.5,3-.8a30.283,30.283,0,0,1,3.1-.2c1.1.1,2.3.1,3.4.3,1,.2,2.1.4,3.1.6l1.5.3.7.2.7.1c1,.1,2,.4,2.8.4a19.271,19.271,0,0,0,2.4.1c.7,0,1.5-.1,2.1-.1a11.547,11.547,0,0,1,1.6-.2c.9-.1,1.5-.2,1.5-.2a7.349,7.349,0,0,1-1.3.7c-.4.2-.9.5-1.5.8-.6.2-1.3.4-2.2.7a10.951,10.951,0,0,1-2.7.4,28.05,28.05,0,0,1-2.9,0h-.7l-.8-.1c-.5-.1-1-.1-1.5-.2-1-.2-2-.3-3.1-.5-1-.2-1.9-.2-2.9-.4h-3c-.9.1-1.8.2-2.6.3-.8.2-1.6.3-2.4.5-.7.2-1.4.4-2,.6-.6.1-1.1.4-1.6.5A4.758,4.758,0,0,0,177.6,139.8Z"/>
        <path id="Path_1312" data-name="Path 1312" class="cls-9" d="M195.1,126.2s1.3-.3,3.1-.6c.5-.1,1-.1,1.5-.2a10.1,10.1,0,0,0,1.7-.3c1.1-.2,2.3-.4,3.5-.5,1.2-.3,2.4-.5,3.5-.7a7.58,7.58,0,0,0,1.6-.3,10.261,10.261,0,0,1,1.4-.4c1.8-.4,3.1-.6,3.1-.6a25.116,25.116,0,0,1-2.7,1.8c-.4.2-.9.5-1.4.8a10.41,10.41,0,0,1-1.6.6c-1.2.4-2.4.7-3.7,1-1.3.1-2.6.2-3.8.3a17.216,17.216,0,0,1-3.3-.2A29.51,29.51,0,0,1,195.1,126.2Z"/>
        <path id="Path_1313" data-name="Path 1313" class="cls-9" d="M143.3,91.5s.5.6,1.4,1.6c.8,1,2.2,2.4,3.5,4.3a65.7,65.7,0,0,1,4.5,6.5c.7,1.2,1.6,2.5,2.3,3.9l2.1,4.2c.5,1.5,1.1,2.9,1.6,4.4a35.964,35.964,0,0,1,1.2,4.4,21.165,21.165,0,0,1,.8,4.1c.1,1.3.3,2.6.3,3.7a17.067,17.067,0,0,1,0,3.2,21.817,21.817,0,0,0-.1,2.4c-.1,1.3-.2,2.1-.2,2.1s-.2-.8-.4-2.1c-.1-.7-.2-1.5-.4-2.4a19.848,19.848,0,0,0-.6-3,35.887,35.887,0,0,1-.8-3.5,33.106,33.106,0,0,0-1.1-3.9c-.5-1.3-.8-2.7-1.4-4.1-.5-1.4-1.1-2.7-1.6-4.1-1.3-2.7-2.5-5.4-3.9-7.9-.7-1.2-1.3-2.5-1.9-3.6s-1.2-2.2-1.8-3.2c-1.1-2-2-3.7-2.6-4.9A14.469,14.469,0,0,0,143.3,91.5Z"/>
        <path id="Path_1314" data-name="Path 1314" class="cls-9" d="M144.4,118.7a2.764,2.764,0,0,0,.6.6,5.721,5.721,0,0,0,1.8,1c.4.2.9.4,1.3.6l1.5.6c1.1.4,2.2.9,3.3,1.4.5.2,1.1.5,1.6.7a8.272,8.272,0,0,1,1.6.9,9.211,9.211,0,0,1,2.6,2.1,7.632,7.632,0,0,1,.8,1.1,3.076,3.076,0,0,1,.4.9,3.234,3.234,0,0,1,.2.9l-.6-.6a5.593,5.593,0,0,0-1.6-1.3,12.6,12.6,0,0,0-2.6-1.3c-1.1-.4-2.2-.9-3.3-1.3a32.388,32.388,0,0,1-3.2-1.7c-.5-.3-1-.6-1.4-.9a12.492,12.492,0,0,1-1.2-.9,7.484,7.484,0,0,1-1.5-1.8C144.4,119,144.5,118.7,144.4,118.7Z"/>
        <path id="Path_1315" data-name="Path 1315" class="cls-9" d="M139.6,93.5a3.125,3.125,0,0,1,.2.7c0,.2.2.4.4.7.1.2.4.5.6.8a9.915,9.915,0,0,0,1.8,1.7,4.44,4.44,0,0,0,1.1.8,5.025,5.025,0,0,0,1.2.8c.8.6,1.6,1,2.4,1.5a11.984,11.984,0,0,1,2.1,1.7,5.541,5.541,0,0,1,1.1,1.5l.3.6-.5-.5a9.767,9.767,0,0,0-1.4-1.1,21.814,21.814,0,0,0-2.2-1.2c-.8-.4-1.8-.9-2.6-1.4a11.592,11.592,0,0,1-3.9-4.1,2.6,2.6,0,0,1-.4-1,1.185,1.185,0,0,1-.1-.8A4.183,4.183,0,0,1,139.6,93.5Z"/>
        <path id="Path_1316" data-name="Path 1316" class="cls-9" d="M140.5,105.5l.7.7a11.409,11.409,0,0,0,1.9,1.5,46.069,46.069,0,0,0,6.6,3.1c2.4,1.1,5,2.5,6.4,4.1a4.184,4.184,0,0,1,.8,1.2,2.6,2.6,0,0,1,.4,1l.3.9s-.2-.3-.5-.8a8.1,8.1,0,0,0-1.6-1.7c-1.5-1.3-3.9-2.3-6.4-3.4-2.4-1.1-5-2.3-6.5-3.8a8.133,8.133,0,0,1-1.6-2C140.7,105.8,140.5,105.5,140.5,105.5Z"/>
        <path id="Path_1317" data-name="Path 1317" class="cls-9" d="M165.6,165.2s.9-.2,2.4-.4c.8-.1,1.7-.2,2.7-.4a27.031,27.031,0,0,0,3.5-.7q1.8-.45,3.9-.9c1.4-.5,2.9-1,4.4-1.6,1.6-.5,3-1.3,4.6-1.9a15.956,15.956,0,0,0,2.3-1l2.3-1.1c1.7-.7,2.9-1.6,4.4-2.3,1.3-1,2.8-1.7,4-2.8a35.061,35.061,0,0,0,3.6-2.9c1.1-.9,2.1-1.9,3.1-2.8s1.7-1.7,2.5-2.5a17,17,0,0,0,1.9-2,21.419,21.419,0,0,1,1.7-1.7s-.4.8-1.2,2.1c-.4.7-.9,1.4-1.5,2.3a23.151,23.151,0,0,1-2.1,2.9,26.7,26.7,0,0,1-2.8,3.2c-.5.6-1.1,1.1-1.6,1.7-.6.5-1.2,1.1-1.8,1.6a43.974,43.974,0,0,1-4.1,3.1,30.988,30.988,0,0,1-4.7,2.6l-2.4,1.1c-.8.3-1.6.6-2.5,1a45.875,45.875,0,0,1-4.8,1.7q-2.4.6-4.5,1.2c-1.7.2-3,.4-4.4.5a22.966,22.966,0,0,1-3.6.2c-1.1,0-2-.1-2.8-.1C166.5,165.2,165.6,165.2,165.6,165.2Z"/>
        <path id="Path_1318" data-name="Path 1318" class="cls-9" d="M132.1,149.9a43.332,43.332,0,0,1,3.4,2.8c1,.9,2.1,2,3.3,3.1.6.6,1.2,1.1,1.8,1.7s1.3,1,1.9,1.6l1,.8.2.2h0l.1.1.6.3c.7.4,1.5.9,2.2,1.3,1.4.6,2.7,1.3,3.9,1.7,1.2.5,2.2.9,2.9,1.2s1.1.5,1.1.5-1.8-.1-4.4-.5a25.4,25.4,0,0,1-4.5-1.2,24.029,24.029,0,0,1-2.3-1.1l-.6-.3-.1-.1c-.2-.1-.1-.1-.2-.1l-.3-.2-1.1-.8a17.116,17.116,0,0,1-2-1.8c-.6-.6-1.2-1.3-1.7-1.9-1.1-1.2-2-2.5-2.8-3.5C133.1,151.4,132.1,149.9,132.1,149.9Z"/>
      </g>
      <g id="Group_1235" data-name="Group 1235">
        <path id="Path_1319" data-name="Path 1319" class="cls-10" d="M126.2,196.7a7.551,7.551,0,0,1,1.1-1.4,4.371,4.371,0,0,1,.7-.8l.6-.6a37.028,37.028,0,0,1,2.9-2.4,24.8,24.8,0,0,1,3.2-1.7,13.5,13.5,0,0,1,3.2-1.1,7.972,7.972,0,0,1,1.5-.3c.5,0,1-.1,1.5-.1a10.045,10.045,0,0,1,2.5.1,4.781,4.781,0,0,1,1.9.5,11.547,11.547,0,0,1,1.5.7s-.6,0-1.6-.1a5.736,5.736,0,0,0-1.8.1c-.7.1-1.4.2-2.3.4a16.145,16.145,0,0,0-2.6.9,16.637,16.637,0,0,0-2.7,1.3c-.9.4-1.8,1.2-2.7,1.7-.8.7-1.6,1.2-2.5,2.1l-.6.6c-.1,0-.3.4-.5.6-.2.3-.5.6-.7.9.4.1.8.3,1.2.4l3.6,1.2a15.514,15.514,0,0,1,5.3-4.1c4.8-2.1,11.5-3.2,13.2,3.2a7.748,7.748,0,0,1,0,4,11.569,11.569,0,0,1,8.7-1,10.64,10.64,0,0,1,2.5.9c-9.2-22.2-29.6-22.1-39.9-6.5.9.4,1.8.7,2.7,1A2.036,2.036,0,0,1,126.2,196.7Z"/>
        <path id="Path_1320" data-name="Path 1320" class="cls-10" d="M188.7,217.5a14.432,14.432,0,0,1-1.5,6.5,17.1,17.1,0,0,1-1.3,2.3,29.768,29.768,0,0,1-3.5,3.6,7.587,7.587,0,0,0,3-.1c1-.2,2-.5,3-.8a16.587,16.587,0,0,0,3.1-1.2,25.811,25.811,0,0,0,4.5-3.5,9.136,9.136,0,0,0,2.8-4.1c.6-1.7-.1-3.9-.9-5.4a5.025,5.025,0,0,0-.8-1.2c-1.2-1.2-3.1-1.1-3.9-2.7-.8-1.4-.8-3.1-1.5-4.6a14.291,14.291,0,0,0-2.3-3.7,22.174,22.174,0,0,0-7.3-6c-7-3.3-13.3,1.3-17.6,6.8a11.346,11.346,0,0,1,3.6,4c.6,0,1.2.1,1.8.1-.6-.9-.7-2.2,0-4,2.5-5.6,15-4.9,13.1,1.1a9.746,9.746,0,0,1-.5,1.1,6.991,6.991,0,0,1-3.9,2.9,19.571,19.571,0,0,1,3.4,1.2,8.745,8.745,0,0,0,1-.8c.4-.5,1-.8,1.3-1.3a11.318,11.318,0,0,0,1-1.3,3.79,3.79,0,0,0,.6-1.3,2.607,2.607,0,0,0,.3-1.1c.1-.7.2-1.1.2-1.1a3.905,3.905,0,0,1,.4,1,2.549,2.549,0,0,1,.2,1.3,3.454,3.454,0,0,1-.2,1.7c-.1.3-.2.6-.3,1a9.251,9.251,0,0,1-.5,1c-.3.6-1.4,1.3-1.4,1.9-.1.7,1.4,1.6,1.9,2.1A5.957,5.957,0,0,1,188.7,217.5Z"/>
        <path id="Path_1321" data-name="Path 1321" class="cls-11" d="M130,196.5l.6-.6a23.214,23.214,0,0,1,2.5-2.1c.9-.5,1.8-1.3,2.7-1.7a16.637,16.637,0,0,1,2.7-1.3,13.382,13.382,0,0,1,2.6-.9,6.562,6.562,0,0,1,2.3-.4,5.736,5.736,0,0,1,1.8-.1c1,.1,1.6.1,1.6.1a11.547,11.547,0,0,0-1.5-.7,4.781,4.781,0,0,0-1.9-.5,10.268,10.268,0,0,0-2.5-.1c-.5,0-1,.1-1.5.1l-1.5.3a13.5,13.5,0,0,0-3.2,1.1,24.8,24.8,0,0,0-3.2,1.7,17.635,17.635,0,0,0-2.9,2.4l-.6.6c-.4.4-.4.5-.7.8-.4.5-.8,1-1.1,1.4-.1.1-.1.2-.2.3.9.3,1.9.7,2.8,1,.2-.3.5-.6.7-.9C129.7,196.9,130,196.6,130,196.5Z"/>
        <path id="Path_1322" data-name="Path 1322" class="cls-12" d="M152,202.6a7.748,7.748,0,0,0,0-4c-1.7-6.3-8.4-5.3-13.2-3.2a16.517,16.517,0,0,0-5.3,4.1c3.6,1.2,7.1,2.6,10.7,3.8a44.44,44.44,0,0,0,5.2,1.5A11.22,11.22,0,0,1,152,202.6Z"/>
        <path id="Path_1323" data-name="Path 1323" class="cls-12" d="M182.7,205.7a5.36,5.36,0,0,0,.5-1.1c1.9-6-10.6-6.8-13.1-1.1-.8,1.7-.7,3,0,4a43.359,43.359,0,0,1,8.8,1.2A7.769,7.769,0,0,0,182.7,205.7Z"/>
        <path id="Path_1324" data-name="Path 1324" class="cls-13" d="M152,202.6a9.564,9.564,0,0,0-2.6,2.3,84.827,84.827,0,0,0,15,2.2c1.2.1,2.5.1,3.7.2a11.346,11.346,0,0,0-3.6-4,6.375,6.375,0,0,0-1.4-.8,10.64,10.64,0,0,0-2.5-.9A11.375,11.375,0,0,0,152,202.6Z"/>
        <path id="Path_1325" data-name="Path 1325" class="cls-13" d="M185.2,211.4c.1-.1.9-1.9,1.2-2.5a9.293,9.293,0,0,0,.5-1c.1-.3.2-.7.3-1a5.245,5.245,0,0,0,.2-1.7,5.067,5.067,0,0,0-.2-1.3,3.905,3.905,0,0,0-.4-1s-.1.4-.2,1.1a2.607,2.607,0,0,1-.3,1.1,7.54,7.54,0,0,1-.6,1.3,5.669,5.669,0,0,1-1,1.3,7.993,7.993,0,0,1-1.3,1.3,7.006,7.006,0,0,1-1,.8c.2.1.5.2.7.3A23.916,23.916,0,0,1,185.2,211.4Z"/>
      </g>
    </g>
  </g>
</svg>
