<svg xmlns="http://www.w3.org/2000/svg" viewBox="0 0 367 257.562">
  <defs>
    <style>
      .cls-1, .cls-31 {
        fill: #231f20;
      }

      .cls-1 {
        opacity: 0.17;
      }

      .cls-2 {
        fill: #ffc974;
      }

      .cls-3 {
        fill: #de5e82;
      }

      .cls-4 {
        fill: #5a4a42;
      }

      .cls-5 {
        fill: #64594d;
      }

      .cls-6 {
        fill: #716558;
      }

      .cls-7 {
        fill: #bc4f70;
      }

      .cls-8 {
        fill: #f8a36a;
      }

      .cls-9 {
        fill: #404041;
      }

      .cls-10 {
        fill: #f8a98d;
      }

      .cls-11 {
        fill: #fff;
      }

      .cls-12 {
        fill: #603813;
      }

      .cls-13 {
        fill: #f3847f;
      }

      .cls-14 {
        fill: #d3736f;
      }

      .cls-15 {
        fill: none;
        stroke: #716558;
        stroke-linecap: round;
        stroke-miterlimit: 10;
        stroke-width: 0.59px;
      }

      .cls-16 {
        fill: #f0668c;
      }

      .cls-17 {
        fill: gold;
      }

      .cls-18 {
        fill: #bbbdbf;
      }

      .cls-19 {
        fill: #473a33;
      }

      .cls-20 {
        fill: #d15f22;
      }

      .cls-21 {
        fill: #75b997;
      }

      .cls-22 {
        fill: #f37728;
      }

      .cls-23 {
        fill: #00b4bc;
      }

      .cls-24 {
        fill: #5f554a;
      }

      .cls-25 {
        fill: #75b896;
      }

      .cls-26 {
        fill: #9a7d47;
      }

      .cls-27 {
        fill: #6db3a9;
      }

      .cls-28 {
        fill: #80c9a4;
      }

      .cls-29 {
        fill: #d0d2d3;
      }

      .cls-30 {
        fill: #f37920;
      }

      .cls-31 {
        opacity: 0.2;
      }

      .cls-32 {
        fill: #58595b;
      }

      .cls-33 {
        fill: #f05a28;
      }

      .cls-34 {
        fill: #f6921e;
      }

      .cls-35 {
        fill: #f26e28;
      }
    </style>
  </defs>
  <g id="Group_1259" data-name="Group 1259" transform="translate(0 0.003)">
    <path id="Path_1329" data-name="Path 1329" class="cls-1" d="M96.354,258.607c0,3.393-21.617,6.107-48.177,6.107C21.52,264.714,0,262,0,258.607S21.617,252.5,48.177,252.5C74.835,252.6,96.354,255.311,96.354,258.607Z" transform="translate(0 -7.736)"/>
    <ellipse id="Ellipse_8" data-name="Ellipse 8" class="cls-1" cx="48.177" cy="6.107" rx="48.177" ry="6.107" transform="translate(270.646 245.345)"/>
    <path id="Path_1330" data-name="Path 1330" class="cls-1" d="M128.942,259.78c0,2.036-6.107,3.78-13.571,3.78s-13.571-1.648-13.571-3.78c0-2.036,6.107-3.78,13.571-3.78S128.942,257.745,128.942,259.78Z" transform="translate(-3.119 -7.844)"/>
    <path id="Path_1331" data-name="Path 1331" class="cls-1" d="M173.842,259.78c0,2.036-6.107,3.78-13.571,3.78s-13.571-1.648-13.571-3.78c0-2.036,6.107-3.78,13.571-3.78C167.832,256.1,173.842,257.745,173.842,259.78Z" transform="translate(-4.495 -7.844)"/>
    <g id="Group_1258" data-name="Group 1258" transform="translate(8.724 -0.003)">
      <path id="Path_1332" data-name="Path 1332" class="cls-2" d="M117.4,51.2a37.119,37.119,0,0,0,1.454,4.168c.485.775-1.745,1.357-1.745,1.357L114.3,54.593Z" transform="translate(-12.226 -1.566)"/>
      <path id="Path_1333" data-name="Path 1333" class="cls-2" d="M112.786,48.2a5.77,5.77,0,0,0-.194,3.974c.582,1.745,3.684,3.781,3.684,3.781l1.066-2.133Z" transform="translate(-12.166 -1.474)"/>
      <g id="Group_1244" data-name="Group 1244" transform="translate(138.243 48.484)">
        <path id="Path_1334" data-name="Path 1334" class="cls-2" d="M205.9,65.218s1.648-.194,2.423-.291c.775,0,1.551-5.041,2.423-5.428s1.066,4.168,1.066,4.556c0,.194,1.26,0,3.005-.194,2.423-.194,5.622-.388,5.719-.194.194.388-.679,1.066-.679,1.066a.875.875,0,0,1-.679,1.066s0,1.163-.776,1.163c0,0-.388.969-1.163,1.066,0,0,.291.582-.969.969a13.015,13.015,0,0,1-4.653.194,7.761,7.761,0,0,0-5.331-.1Z" transform="translate(-153.276 -50.303)"/>
        <path id="Path_1335" data-name="Path 1335" class="cls-3" d="M158.289,50.291c-3.974-1.745-8.24,5.138-6.107,8.821,2.133,3.781,21.714,13.571,23.265,13.862s30.147-2.811,30.147-2.811l-.969-6.4s-26.851.194-27.724.194S161.682,51.842,158.289,50.291Z" transform="translate(-151.613 -50.013)"/>
      </g>
      <g id="Group_1249" data-name="Group 1249" transform="translate(102.655)">
        <path id="Path_1336" data-name="Path 1336" class="cls-4" d="M150.057,174l-1.357,8.433,3.1.388.388-1.066s5.041,1.745,13.086,1.066A19.824,19.824,0,0,0,155,174.679Z" transform="translate(-115.936 -5.328)"/>
        <path id="Path_1337" data-name="Path 1337" class="cls-4" d="M129.657,173.7l-1.357,8.433,3.1.388.388-1.066s5.041,1.745,13.086,1.066a19.824,19.824,0,0,0-10.275-8.143Z" transform="translate(-115.311 -5.319)"/>
        <path id="Path_1338" data-name="Path 1338" class="cls-5" d="M157.7,90.377s1.551,32.474,1.551,35.285-2.811,44.591-3.005,46.723h-7.755s1.551-38.387.775-43.912c-.872-5.525-.969-32.183-.969-32.183l2.908-9.791Z" transform="translate(-115.923 -2.647)"/>
        <path id="Path_1339" data-name="Path 1339" class="cls-6" d="M153.816,88.919l-6.979,43.718-8.821,40.422L129,170.83s8.337-36.739,8.53-41.683c0,0-5.041-26.56-.776-45.948Z" transform="translate(-115.332 -2.546)"/>
        <path id="Path_1340" data-name="Path 1340" class="cls-7" d="M148.1,43.7l10.178,3.1L154.4,51.067Z" transform="translate(-115.917 -1.336)"/>
        <g id="Group_1248" data-name="Group 1248" transform="translate(23.666)">
          <g id="Group_1245" data-name="Group 1245" transform="translate(8.517 35.191)">
            <path id="Path_1341" data-name="Path 1341" class="cls-2" d="M152.559,36.3,148.1,48.611s3.78,6.882,7.076,3.781l5.428-13.28Z" transform="translate(-148.1 -36.3)"/>
            <path id="Path_1342" data-name="Path 1342" class="cls-1" d="M151.6,39.305c1.163,1.26,4.75,4.75,6.979,5.235l2.23-5.331L152.666,36.3Z" transform="translate(-148.207 -36.3)"/>
          </g>
          <g id="Group_1247" data-name="Group 1247">
            <path id="Path_1343" data-name="Path 1343" class="cls-2" d="M173.278,14.289s3.1,25.494-12.7,26.076c-15.7.582-16.479-18.418-16.479-22.489S149.335,7.6,158.834,7.6,173.278,12.156,173.278,14.289Z" transform="translate(-139.46 -0.23)"/>
            <path id="Path_1344" data-name="Path 1344" class="cls-8" d="M168.863,28.6s2.617,5.138,1.357,5.719a3.2,3.2,0,0,1-2.52,0Z" transform="translate(-140.183 -0.873)"/>
            <ellipse id="Ellipse_9" data-name="Ellipse 9" class="cls-9" cx="1.648" cy="2.423" rx="1.648" ry="2.423" transform="translate(20.925 21.911)"/>
            <path id="Path_1345" data-name="Path 1345" class="cls-9" d="M173.433,25.436c0,1.163-.485,2.036-1.066,2.036S171.3,26.5,171.3,25.436c0-1.163.485-2.036,1.066-2.036S173.433,24.272,173.433,25.436Z" transform="translate(-140.294 -0.714)"/>
            <path id="Path_1346" data-name="Path 1346" class="cls-10" d="M163.641,29.563c0,.679-1.163,1.163-2.52,1.163s-2.52-.485-2.52-1.163,1.163-1.163,2.52-1.163S163.641,28.885,163.641,29.563Z" transform="translate(-139.904 -0.867)"/>
            <path id="Path_1347" data-name="Path 1347" class="cls-10" d="M171.2,29.563c0,.485.775.969,1.842,1.066.194-.775.388-1.551.582-2.23C172.266,28.4,171.2,28.885,171.2,29.563Z" transform="translate(-140.291 -0.867)"/>
            <path id="Path_1348" data-name="Path 1348" class="cls-11" d="M163.782,24.379c0,.388-.194.679-.291.679-.194,0-.291-.291-.291-.679s.194-.679.291-.679S163.782,23.991,163.782,24.379Z" transform="translate(-140.045 -0.723)"/>
            <ellipse id="Ellipse_10" data-name="Ellipse 10" class="cls-11" cx="0.291" cy="0.679" rx="0.291" ry="0.679" transform="translate(32.073 23.655)"/>
            <path id="Path_1349" data-name="Path 1349" class="cls-12" d="M150.06,38.1s2.52-8.143,2.52-12.311c0,0-3.587.291-3.684-3.877s4.168-1.26,4.168-1.26.969-.969,1.357-4.362c0,0,16.091,6.2,22.1,0s-.1-12.892-6.979-10.76A13.039,13.039,0,0,0,157.331.1c-8.724.969-8.53,6.2-8.53,6.2s-8.337-.291-9.4,9.4C138.525,25.4,144.632,35.382,150.06,38.1Z" transform="translate(-139.314 0.003)"/>
            <g id="Group_1246" data-name="Group 1246" transform="translate(19.471 31.491)">
              <path id="Path_1350" data-name="Path 1350" class="cls-13" d="M160.175,36.183s-1.745-3.3,0-3.684c1.745-.291,1.454,3.3,1.454,3.3Z" transform="translate(-159.4 -32.483)"/>
              <path id="Path_1351" data-name="Path 1351" class="cls-14" d="M160.7,36.042l-.1-1.842.582,1.745Z" transform="translate(-159.437 -32.535)"/>
            </g>
            <path id="Path_1352" data-name="Path 1352" class="cls-15" d="M166.473,38.716s-3.587-4.362-7.173-1.939" transform="translate(-139.926 -1.101)"/>
          </g>
        </g>
        <path id="Path_1353" data-name="Path 1353" class="cls-7" d="M146.674,46.9s-12.8,8.821-13.474,45.366c0,0,6.592,6.882,19.193,8.821l.872-5.041.872,5.041s2.908-2.036,5.138-3.587L158.5,51.068l-4.556.194Z" transform="translate(-115.461 -1.434)"/>
        <path id="Path_1354" data-name="Path 1354" class="cls-16" d="M148.9,44.766l5.428,6.3-3.974,3.587-4.75-7.949,2.423-3.005Z" transform="translate(-115.841 -1.336)"/>
        <path id="Path_1355" data-name="Path 1355" class="cls-16" d="M154.6,51.165l3.877-4.265,1.454,4.168-3.005,4.168Z" transform="translate(-116.116 -1.434)"/>
        <path id="Path_1356" data-name="Path 1356" class="cls-17" d="M154.557,51.3s-4.459,25.979,2.714,39.162l3.587.872,1.26-3.781C162.021,87.554,154.557,75.146,154.557,51.3Z" transform="translate(-116.073 -1.569)"/>
        <path id="Path_1357" data-name="Path 1357" class="cls-3" d="M144.95,47.7c-3.2-1.745-12.5,15.122-13.377,15.8-.775.679-11.632-9.887-11.632-9.887L114.9,57.2S125.466,73,130.216,73.384c1.066.1,2.423.775,3.877-.194,4.653-3.1,10.954-14.056,12.311-16.091C148.052,54.288,149.7,50.216,144.95,47.7Z" transform="translate(-114.9 -1.454)"/>
      </g>
      <g id="Group_1251" data-name="Group 1251" transform="translate(102.069 34.609)">
        <g id="Group_1250" data-name="Group 1250" transform="translate(0.005)">
          <rect id="Rectangle_151" data-name="Rectangle 151" class="cls-18" width="3.005" height="219.463"/>
          <rect id="Rectangle_152" data-name="Rectangle 152" class="cls-18" width="3.005" height="219.463" transform="translate(43.524)"/>
        </g>
        <rect id="Rectangle_153" data-name="Rectangle 153" class="cls-18" width="3.005" height="46.529" transform="translate(46.622 19.511) rotate(90)"/>
        <rect id="Rectangle_154" data-name="Rectangle 154" class="cls-18" width="3.005" height="46.529" transform="translate(46.55 44.158) rotate(90)"/>
        <rect id="Rectangle_155" data-name="Rectangle 155" class="cls-18" width="3.005" height="46.529" transform="translate(46.576 68.805) rotate(90)"/>
        <rect id="Rectangle_156" data-name="Rectangle 156" class="cls-18" width="3.005" height="46.529" transform="translate(46.601 93.452) rotate(90)"/>
        <rect id="Rectangle_157" data-name="Rectangle 157" class="cls-18" width="3.005" height="46.529" transform="translate(46.529 118.099) rotate(90)"/>
        <rect id="Rectangle_158" data-name="Rectangle 158" class="cls-18" width="3.005" height="46.529" transform="translate(46.555 142.747) rotate(90)"/>
        <rect id="Rectangle_159" data-name="Rectangle 159" class="cls-18" width="3.005" height="46.529" transform="translate(46.58 167.394) rotate(90)"/>
        <rect id="Rectangle_160" data-name="Rectangle 160" class="cls-18" width="3.005" height="46.529" transform="translate(46.605 192.041) rotate(90)"/>
      </g>
      <g id="Group_1257" data-name="Group 1257" transform="translate(0 34.415)">
        <path id="Path_1358" data-name="Path 1358" class="cls-19" d="M349.345,251.2l.679,9.5-3.393.1-.291-1.26s-5.719,1.454-14.54-.1a21.855,21.855,0,0,1,12.117-7.949Z" transform="translate(-18.89 -42.109)"/>
        <path id="Path_1359" data-name="Path 1359" class="cls-4" d="M340.148,251.9l.872,9.4-3.393.194-.388-1.26s-5.622,1.551-14.54.1a22.192,22.192,0,0,1,12.02-8.143Z" transform="translate(-18.612 -42.13)"/>
        <path id="Path_1360" data-name="Path 1360" class="cls-2" d="M279.731,194.14h-2.423c-.775.1-2.133-4.847-3.1-5.041-.969-.291-.582,4.265-.582,4.653,0,.194-1.26.1-3.005.194a34.127,34.127,0,0,0-5.719.485c-.1.485.775.969.775.969s-.1.969.775.969c0,0,.194,1.163.969,1.066,0,0,.485.872,1.26.872,0,0-.194.582,1.066.872a11.255,11.255,0,0,0,4.653-.388,8,8,0,0,1,5.331-.775Z" transform="translate(-16.84 -40.206)"/>
        <path id="Path_1361" data-name="Path 1361" class="cls-20" d="M324.091,173.485c3.684-2.23,8.724,4.071,7.076,8.046S311.2,197.719,309.744,198.2s-30.244.969-30.244.969l.194-6.495s26.657-3.1,27.53-3.2S320.795,175.521,324.091,173.485Z" transform="translate(-17.288 -39.714)"/>
        <g id="Group_1252" data-name="Group 1252" transform="translate(59.159 73.861)">
          <path id="Path_1362" data-name="Path 1362" class="cls-2" d="M122.7,119.939s1.357-.969,1.939-1.357c.679-.388-1.066-5.138-.388-5.913.582-.775,3.005,3.2,3.2,3.49a14.885,14.885,0,0,0,2.52-1.551,31.225,31.225,0,0,1,4.944-2.908c.388.291-.1,1.26-.1,1.26a.8.8,0,0,1-.1,1.26s.485,1.066-.1,1.454a1.453,1.453,0,0,1-.582,1.454s.582.388-.291,1.357a12.128,12.128,0,0,1-3.974,2.423,7.988,7.988,0,0,0-4.75,2.423Z" transform="translate(-71.643 -111.696)"/>
          <path id="Path_1363" data-name="Path 1363" class="cls-21" d="M73.588,129.081c-4.265.291-4.75,8.433-1.163,10.663,3.587,2.326,25.591,1.648,27.045,1.163s25.2-16.77,25.2-16.77L120.7,119S97.24,131.892,96.368,132.28C95.786,132.765,77.368,128.791,73.588,129.081Z" transform="translate(-70.029 -111.92)"/>
        </g>
        <path id="Path_1364" data-name="Path 1364" class="cls-22" d="M196.377,123.287a36.386,36.386,0,0,0-5.428-13.086l5.913-6.979-4.847-4.847-4.847-4.847-6.979,5.913A36.386,36.386,0,0,0,167.1,94.012l-.776-9.112H152.562l-.775,9.112A36.386,36.386,0,0,0,138.7,99.44l-6.979-5.913-4.847,4.847-4.847,4.847,5.913,6.979a36.386,36.386,0,0,0-5.428,13.086l-9.112.775v13.765l9.112.775a36.386,36.386,0,0,0,5.428,13.086l-5.913,6.979,4.847,4.847,4.847,4.847,6.979-5.913a36.386,36.386,0,0,0,13.086,5.428l.775,9.112h13.765l.776-9.112a36.386,36.386,0,0,0,13.086-5.428l6.979,5.913,4.847-4.847,4.847-4.847-5.913-6.979a36.386,36.386,0,0,0,5.428-13.086l9.112-.775V124.062ZM159.445,153.24a22.392,22.392,0,1,1,22.392-22.392A22.4,22.4,0,0,1,159.445,153.24Z" transform="translate(-12.199 -37.014)"/>
        <path id="Path_1365" data-name="Path 1365" class="cls-17" d="M272.577,73.887A36.385,36.385,0,0,0,267.149,60.8l5.913-6.979-4.847-4.847-4.847-4.847-6.979,5.913A36.385,36.385,0,0,0,243.3,44.612l-.775-9.112H228.762l-.776,9.112A36.386,36.386,0,0,0,214.9,50.04l-6.979-5.913-4.847,4.847-4.847,4.847L204.14,60.8a36.386,36.386,0,0,0-5.428,13.086l-9.112.775V88.427l9.112.775a36.385,36.385,0,0,0,5.428,13.086l-5.913,6.979,4.847,4.847,4.847,4.847,6.979-5.913a36.386,36.386,0,0,0,13.086,5.428l.776,9.112h13.765l.775-9.112a36.386,36.386,0,0,0,13.086-5.428l6.979,5.913,4.847-4.847,4.847-4.847-5.913-6.979A36.385,36.385,0,0,0,272.577,89.2l9.112-.775V74.662ZM235.645,103.84a22.392,22.392,0,1,1,22.392-22.392A22.4,22.4,0,0,1,235.645,103.84Z" transform="translate(-14.533 -35.5)"/>
        <path id="Path_1366" data-name="Path 1366" class="cls-23" d="M269.441,180.737a39.035,39.035,0,0,0-3.974-13.668l6.689-6.3-4.265-5.331-4.265-5.331-7.658,5.138a38.854,38.854,0,0,0-12.408-6.882l.194-9.209-6.786-.775-6.786-.775-1.745,9.015a39.034,39.034,0,0,0-13.668,3.974l-6.3-6.689-5.331,4.265-5.331,4.265,5.138,7.658A38.854,38.854,0,0,0,196.06,172.5l-9.209-.194-.775,6.786-.775,6.786,9.015,1.745a39.034,39.034,0,0,0,3.974,13.668l-6.689,6.3,4.265,5.331,4.265,5.331,7.658-5.138A38.854,38.854,0,0,0,220.2,220L220,229.2l6.786.775,6.785.775,1.745-9.015a39.034,39.034,0,0,0,13.668-3.974l6.3,6.689,5.331-4.265,5.331-4.265-5.138-7.658a38.854,38.854,0,0,0,6.882-12.408l9.209.194.775-6.786.775-6.786Zm-40.035,25.688a22.33,22.33,0,1,1,24.622-19.775A22.318,22.318,0,0,1,229.406,206.425Z" transform="translate(-14.402 -38.628)"/>
        <path id="Path_1367" data-name="Path 1367" class="cls-19" d="M311.8,179.1s12.6,13.571,4.847,31.213L318.2,214l4.168-3.2C322.463,210.8,328.473,189.472,311.8,179.1Z" transform="translate(-18.278 -39.9)"/>
        <g id="Group_1254" data-name="Group 1254" transform="translate(0 48.035)">
          <path id="Path_1368" data-name="Path 1368" class="cls-2" d="M123.3,144.618a20.309,20.309,0,0,1,2.423-.291c.775,0,1.454-5.041,2.326-5.428s1.26,4.168,1.26,4.556c0,.194,1.26-.1,3.005-.194,2.423-.291,5.622-.582,5.719-.291.194.388-.679,1.066-.679,1.066a.8.8,0,0,1-.679,1.066s0,1.163-.775,1.26a1.541,1.541,0,0,1-1.163,1.066s.291.582-.872,1.066a11.68,11.68,0,0,1-4.653.388,8.067,8.067,0,0,0-5.331,0Z" transform="translate(-12.502 -86.702)"/>
          <path id="Path_1369" data-name="Path 1369" class="cls-4" d="M68.733,248.2,66.6,257.409l3.393.679.485-1.163s5.428,2.326,14.347,2.036a21.383,21.383,0,0,0-10.76-9.6Z" transform="translate(-10.765 -90.052)"/>
          <path id="Path_1370" data-name="Path 1370" class="cls-4" d="M16.076,232,9,238.3l2.423,2.423,1.066-.679s3.1,5.041,10.566,9.984a21.969,21.969,0,0,0-3.3-14.056Z" transform="translate(-9 -89.556)"/>
          <path id="Path_1371" data-name="Path 1371" class="cls-24" d="M49.415,165.546s-10.76,37.03-11.342,39.744S15.1,230.2,15.1,230.2l6.107,6.107S43.7,217.7,46.313,213.142c2.617-4.459,18.127-34.218,19.193-39.453C66.476,168.357,56.007,160.312,49.415,165.546Z" transform="translate(-9.187 -87.468)"/>
          <path id="Path_1372" data-name="Path 1372" class="cls-6" d="M52.495,162.7s-5.428,12.893-2.423,21.811S68.3,211.653,69.652,212.428s-2.133,33.734-2.133,33.734L75.953,248s6.01-32.377,5.331-38.193c-.582-5.816-9.4-25.3-10.178-28.4-.775-3.2-1.454-8.433-1.454-8.433Z" transform="translate(-10.231 -87.432)"/>
          <path id="Path_1373" data-name="Path 1373" class="cls-25" d="M74.9,123.3h3.974l-2.714,2.617Z" transform="translate(-11.019 -86.225)"/>
          <path id="Path_1374" data-name="Path 1374" class="cls-25" d="M83.748,130.5l.388,3.587-2.036-.969Z" transform="translate(-11.24 -86.446)"/>
          <path id="Path_1375" data-name="Path 1375" class="cls-2" d="M78.259,118.2,73.8,130.511s3.781,6.882,7.076,3.781l5.428-13.28Z" transform="translate(-10.985 -86.069)"/>
          <path id="Path_1376" data-name="Path 1376" class="cls-1" d="M77.3,121.205c1.163,1.26,4.75,4.75,6.979,5.235l2.23-5.331L78.366,118.2Z" transform="translate(-11.093 -86.069)"/>
          <g id="Group_1253" data-name="Group 1253" transform="translate(56.003)">
            <path id="Path_1377" data-name="Path 1377" class="cls-2" d="M99.278,95.889s3.1,25.494-12.7,26.076c-15.7.582-16.479-18.418-16.479-22.489,0-4.168,5.235-10.275,14.734-10.275C94.237,89.1,99.278,93.659,99.278,95.889Z" transform="translate(-66.875 -85.18)"/>
            <path id="Path_1378" data-name="Path 1378" class="cls-12" d="M82.309,95.858s9.6,5.138,19.29,3.781c0,0-.1-10.76-9.6-13.571-11.535-3.393-15.7,2.811-15.7,2.811a10.2,10.2,0,0,0-8.724,7.076c-2.52,6.882,1.066,18.709,8.433,24.04a25.269,25.269,0,0,0,2.326-10.566s-5.331-1.551-4.556-6.689C74.36,98.767,79.11,101,79.11,104,79.11,104,82.018,101.675,82.309,95.858Z" transform="translate(-66.773 -85.053)"/>
            <path id="Path_1379" data-name="Path 1379" class="cls-8" d="M94.763,110.1s2.617,5.138,1.357,5.719a3.2,3.2,0,0,1-2.52,0Z" transform="translate(-67.595 -85.821)"/>
            <ellipse id="Ellipse_11" data-name="Ellipse 11" class="cls-9" cx="1.648" cy="2.423" rx="1.648" ry="2.423" transform="translate(19.414 18.56)"/>
            <path id="Path_1380" data-name="Path 1380" class="cls-9" d="M99.333,107.035c0,1.163-.485,2.036-1.066,2.036S97.2,108.1,97.2,107.035c0-1.163.485-2.036,1.066-2.036C98.848,104.9,99.333,105.872,99.333,107.035Z" transform="translate(-67.705 -85.664)"/>
            <path id="Path_1381" data-name="Path 1381" class="cls-26" d="M85.2,115.5s4.847,2.326,9.5,1.842c0,0-2.133,4.168-6.01,3.2C85.006,119.571,85.2,115.5,85.2,115.5Z" transform="translate(-67.337 -85.986)"/>
            <path id="Path_1382" data-name="Path 1382" class="cls-10" d="M89.541,111.063c0,.679-1.163,1.163-2.52,1.163s-2.52-.485-2.52-1.163,1.163-1.163,2.52-1.163S89.541,110.385,89.541,111.063Z" transform="translate(-67.316 -85.815)"/>
            <path id="Path_1383" data-name="Path 1383" class="cls-10" d="M97.2,111.063c0,.485.775.969,1.842,1.066.194-.775.388-1.551.582-2.23C98.169,109.9,97.2,110.385,97.2,111.063Z" transform="translate(-67.705 -85.815)"/>
            <path id="Path_1384" data-name="Path 1384" class="cls-11" d="M89.682,105.979c0,.388-.194.679-.291.679-.194,0-.291-.291-.291-.679s.194-.679.291-.679S89.682,105.591,89.682,105.979Z" transform="translate(-67.457 -85.674)"/>
            <ellipse id="Ellipse_12" data-name="Ellipse 12" class="cls-11" cx="0.291" cy="0.679" rx="0.291" ry="0.679" transform="translate(30.561 20.305)"/>
            <path id="Path_1385" data-name="Path 1385" class="cls-11" d="M94.049,117.451A19.384,19.384,0,0,1,86.1,115.9a1.562,1.562,0,0,0,.679,1.551,21.769,21.769,0,0,0,5.816,1.066A1.456,1.456,0,0,0,94.049,117.451Z" transform="translate(-67.365 -85.998)"/>
          </g>
          <path id="Path_1386" data-name="Path 1386" class="cls-27" d="M74.554,124.5S54.2,134.581,47.8,163.468c0,0,11.245,14.153,25.4,15.51a191.289,191.289,0,0,1,9.6-48.565Z" transform="translate(-10.189 -86.262)"/>
          <path id="Path_1387" data-name="Path 1387" class="cls-28" d="M74.811,123.3l8.627,6.979-2.326,3.587L72,125.626Z" transform="translate(-10.93 -86.225)"/>
          <path id="Path_1388" data-name="Path 1388" class="cls-29" d="M83.35,130.9s-11.342,34.9-6.882,44.009l2.52,3.49,1.842-5.719C80.732,172.679,78.212,156.2,83.35,130.9Z" transform="translate(-11.035 -86.458)"/>
          <path id="Path_1389" data-name="Path 1389" class="cls-28" d="M75.2,130.892c-3.974-1.648-8.046,5.331-5.816,9.015s22.1,13.086,23.652,13.28c1.551.291,30.05-3.587,30.05-3.587l-1.163-6.4s-26.851.872-27.724.872C93.323,144.172,78.686,132.346,75.2,130.892Z" transform="translate(-10.831 -86.45)"/>
        </g>
        <g id="Group_1256" data-name="Group 1256" transform="translate(242.506 102.514)">
          <path id="Path_1390" data-name="Path 1390" class="cls-24" d="M337.094,223.1c-.194,2.908,13.28,28.693,13.28,28.693h-7.561s-15.607-22-15.413-25.4S337.094,223.1,337.094,223.1Z" transform="translate(-261.261 -143.762)"/>
          <path id="Path_1391" data-name="Path 1391" class="cls-6" d="M332.6,203.773s-15.219,15.9-15.8,19.678,15.994,27.53,15.994,27.53h7.561s-9.5-21.423-9.5-24.331,30.826-14.056,21.908-30.05Z" transform="translate(-260.936 -142.95)"/>
          <path id="Path_1392" data-name="Path 1392" class="cls-30" d="M312.92,170.3l-2.52,9.112L314.18,183v-4.75Z" transform="translate(-260.741 -142.144)"/>
          <path id="Path_1393" data-name="Path 1393" class="cls-2" d="M305.126,168.6l12.6,3.3s3.587,7.076-.872,7.949L302.8,176.84Z" transform="translate(-260.508 -142.092)"/>
          <path id="Path_1394" data-name="Path 1394" class="cls-31" d="M303,176.937l6.3,1.357a28.175,28.175,0,0,0,3.684-7.658L305.23,168.6Z" transform="translate(-260.514 -142.092)"/>
          <path id="Path_1395" data-name="Path 1395" class="cls-2" d="M279.9,155.944s4.071,25.3,19.387,21.52,10.76-22.3,9.6-26.173c-1.163-3.974-7.949-8.433-16.964-5.816C282.806,148.093,279.219,153.909,279.9,155.944Z" transform="translate(-259.804 -141.359)"/>
          <path id="Path_1396" data-name="Path 1396" class="cls-8" d="M288.887,168.3s-1.066,5.719.291,5.913a3.208,3.208,0,0,0,2.423-.679Z" transform="translate(-260.069 -142.083)"/>
          <path id="Path_1397" data-name="Path 1397" class="cls-9" d="M292.3,163.61c.388,1.26,1.357,2.133,2.326,1.939.872-.291,1.26-1.551.872-2.811s-1.357-2.133-2.326-1.939A2.293,2.293,0,0,0,292.3,163.61Z" transform="translate(-260.182 -141.852)"/>
          <path id="Path_1398" data-name="Path 1398" class="cls-9" d="M283.6,166.626c.291,1.066,1.066,1.842,1.648,1.648s.775-1.163.485-2.326c-.291-1.066-1.066-1.842-1.648-1.648S283.3,165.559,283.6,166.626Z" transform="translate(-259.915 -141.959)"/>
          <path id="Path_1399" data-name="Path 1399" class="cls-10" d="M294.1,167.735c.194.582,1.357.775,2.714.388s2.23-1.163,2.036-1.842c-.194-.582-1.357-.775-2.714-.388C294.875,166.378,293.905,167.154,294.1,167.735Z" transform="translate(-260.24 -142.003)"/>
          <path id="Path_1400" data-name="Path 1400" class="cls-10" d="M286.817,169.88c.194.485-.485,1.163-1.454,1.551L284.2,169.4C285.557,169.1,286.623,169.3,286.817,169.88Z" transform="translate(-259.938 -142.112)"/>
          <path id="Path_1401" data-name="Path 1401" class="cls-11" d="M292.7,162.875c.1.388.291.582.485.582.194-.1.194-.388.1-.776s-.291-.582-.485-.582C292.6,162.2,292.6,162.488,292.7,162.875Z" transform="translate(-260.196 -141.893)"/>
          <path id="Path_1402" data-name="Path 1402" class="cls-11" d="M283.9,166.175c.1.388.291.582.485.582.194-.1.194-.388.1-.776s-.291-.582-.485-.582S283.8,165.788,283.9,166.175Z" transform="translate(-259.927 -141.994)"/>
          <g id="Group_1255" data-name="Group 1255" transform="translate(32.211 29.804)">
            <path id="Path_1403" data-name="Path 1403" class="cls-32" d="M293.563,176.265h-.969a.194.194,0,1,1,0-.388s3.974.388,5.913-1.357a2.874,2.874,0,0,0,.969-2.326.208.208,0,0,1,.194-.194h0a.208.208,0,0,1,.194.194,3.319,3.319,0,0,1-1.163,2.617C297.344,176.071,294.92,176.265,293.563,176.265Z" transform="translate(-292.4 -172)"/>
          </g>
          <path id="Path_1404" data-name="Path 1404" class="cls-12" d="M281.382,162.625s-5.622-3.3-6.882-8.046l1.26.679-1.26-2.714a3.542,3.542,0,0,0,4.847-1.939c1.648-3.49,5.138-7.076,11.438-8.821s11.632,1.26,12.214,2.714a8.114,8.114,0,0,1,7.173,6.495c1.551,6.3,1.842,16.188-2.908,21.035a66.732,66.732,0,0,0-3.1-10.566,5.611,5.611,0,0,0-.194-5.719c-1.842-3.2-3.78,1.357-3.78,1.357l-2.617-6.592s-6.689,9.112-16.77,8.821Z" transform="translate(-259.641 -141.254)"/>
          <path id="Path_1405" data-name="Path 1405" class="cls-33" d="M312.945,170.3s35.576-2.714,41.295,26.367c0,0-3.78,5.138-23.555,7.949,0,0,5.235-16.091-19.484-25.2Z" transform="translate(-260.765 -142.142)"/>
          <path id="Path_1406" data-name="Path 1406" class="cls-34" d="M312.945,170.282,311.2,179.3l5.913,2.326V169.7Z" transform="translate(-260.765 -142.125)"/>
          <path id="Path_1407" data-name="Path 1407" class="cls-2" d="M273.933,185.718a20.308,20.308,0,0,0-2.423-.291c-.776,0-1.454-5.041-2.326-5.428s-1.26,4.168-1.26,4.556c0,.194-1.26-.1-3.005-.194-2.423-.291-5.622-.582-5.719-.291-.194.388.679,1.066.679,1.066a.8.8,0,0,0,.679,1.066s0,1.163.775,1.26a1.541,1.541,0,0,0,1.163,1.066s-.291.582.872,1.066a11.68,11.68,0,0,0,4.653.388,8.067,8.067,0,0,1,5.332,0Z" transform="translate(-259.171 -142.44)"/>
          <path id="Path_1408" data-name="Path 1408" class="cls-35" d="M320.686,171.992c3.974-1.648,8.046,5.331,5.816,9.015s-22.1,13.086-23.652,13.28c-1.551.291-30.05-3.587-30.05-3.587l1.163-6.4s26.851.872,27.724.872C302.559,185.272,317.2,173.446,320.686,171.992Z" transform="translate(-259.589 -142.188)"/>
        </g>
      </g>
      <path id="Path_1409" data-name="Path 1409" class="cls-2" d="M113.278,51.787c-.485-1.066-.969-2.714-.485-3.684a17.36,17.36,0,0,1,1.939-2.714c.582-.872,1.066.1.582.775a1.267,1.267,0,0,1-.194,1.26.841.841,0,0,1-.1.969.849.849,0,0,1-.1,1.163,3.776,3.776,0,0,0-.969,2.23C113.957,52.368,113.278,51.787,113.278,51.787Z" transform="translate(-12.174 -1.377)"/>
      <path id="Path_1410" data-name="Path 1410" class="cls-2" d="M117.451,49.384s-1.454-.872-1.551-.291.872,2.036,1.551,2.036S117.935,49.578,117.451,49.384Z" transform="translate(-12.275 -1.495)"/>
    </g>
    <circle id="Ellipse_13" data-name="Ellipse 13" class="cls-23" cx="15.704" cy="15.704" r="15.704" transform="translate(210.448 164.5)"/>
    <circle id="Ellipse_14" data-name="Ellipse 14" class="cls-17" cx="15.704" cy="15.704" r="15.704" transform="translate(209.332 72.085) rotate(-22.266)"/>
    <circle id="Ellipse_15" data-name="Ellipse 15" class="cls-22" cx="15.704" cy="15.704" r="15.704" transform="translate(139.976 112.64)"/>
  </g>
</svg>
