<svg id="Group_1224" data-name="Group 1224" xmlns="http://www.w3.org/2000/svg" viewBox="0 0 358.305 300">
  <defs>
    <style>
      .cls-1 {
        fill: #e5e9ff;
      }

      .cls-14, .cls-2 {
        fill: #fff;
      }

      .cls-3 {
        fill: #2143af;
      }

      .cls-4 {
        fill: #121f55;
      }

      .cls-5 {
        fill: #566cd3;
      }

      .cls-13, .cls-6 {
        fill: #b9b8f1;
      }

      .cls-7 {
        fill: #f7b75d;
      }

      .cls-8 {
        fill: #8edef2;
      }

      .cls-9 {
        fill: #2747b3;
      }

      .cls-10 {
        fill: #f99ab6;
      }

      .cls-11 {
        fill: #fffeff;
      }

      .cls-12 {
        fill: #61c8e0;
      }

      .cls-13, .cls-14 {
        fill-rule: evenodd;
      }
    </style>
  </defs>
  <g id="Group_814" data-name="Group 814" transform="translate(0)">
    <g id="Group_800" data-name="Group 800" transform="translate(260.861 171.083)">
      <path id="Path_1012" data-name="Path 1012" class="cls-1" d="M129.3,84.8h70.007a18.582,18.582,0,0,0-13.315,5.447,17.2,17.2,0,0,0-5.447,12.71c0,10.491,8.473,18.157,18.763,18.157H129.5c5.245,0,9.886-1.412,13.315-4.842a17.993,17.993,0,0,0,5.447-12.912A18.728,18.728,0,0,0,129.3,84.8Z" transform="translate(-129.3 -84.8)"/>
    </g>
    <g id="Group_801" data-name="Group 801" transform="translate(42.367 17.35)">
      <path id="Path_1013" data-name="Path 1013" class="cls-1" d="M292.957,144.578A135.978,135.978,0,1,1,156.978,8.6,136.04,136.04,0,0,1,292.957,144.578Z" transform="translate(-21 -8.6)"/>
    </g>
    <g id="Group_802" data-name="Group 802" transform="translate(45.999 232.011)">
      <path id="Path_1014" data-name="Path 1014" class="cls-1" d="M33.291,115H103.9a10.419,10.419,0,0,1,10.491,10.491h0A10.419,10.419,0,0,1,103.9,135.982H33.291A10.419,10.419,0,0,1,22.8,125.491h0A10.681,10.681,0,0,1,33.291,115Z" transform="translate(-22.8 -115)"/>
    </g>
    <g id="Group_803" data-name="Group 803" transform="translate(64.348 273.167)">
      <path id="Path_1015" data-name="Path 1015" class="cls-1" d="M38.563,135.4h82.717a6.717,6.717,0,0,1,6.658,6.658h0a6.717,6.717,0,0,1-6.658,6.658H38.563a6.717,6.717,0,0,1-6.658-6.658h0A6.466,6.466,0,0,1,38.563,135.4Z" transform="translate(-31.895 -135.4)"/>
    </g>
    <g id="Group_804" data-name="Group 804" transform="translate(231.809 286.685)">
      <path id="Path_1016" data-name="Path 1016" class="cls-1" d="M121.154,142.1h13.517a6.286,6.286,0,0,1,6.254,6.254v.807a6.286,6.286,0,0,1-6.254,6.254H121.154a6.286,6.286,0,0,1-6.254-6.254v-.807A6.286,6.286,0,0,1,121.154,142.1Z" transform="translate(-114.9 -142.1)"/>
    </g>
    <g id="Group_805" data-name="Group 805" transform="translate(221.116 246.537)">
      <path id="Path_1017" data-name="Path 1017" class="cls-1" d="M120.7,122.2h61.533a11.2,11.2,0,0,1,11.1,11.1h0a11.2,11.2,0,0,1-11.1,11.1H120.7a11.2,11.2,0,0,1-11.1-11.1h0A11.2,11.2,0,0,1,120.7,122.2Z" transform="translate(-109.6 -122.2)"/>
    </g>
    <g id="Group_806" data-name="Group 806" transform="translate(80.901 252.589)">
      <path id="Path_1018" data-name="Path 1018" class="cls-1" d="M40.1,125.2H79.037a10.557,10.557,0,0,0-7.465,3.228,9.9,9.9,0,0,0-3.026,7.061c0,5.851,4.64,10.087,10.491,10.087H40.1a10.9,10.9,0,0,0,7.465-2.623A10.414,10.414,0,0,0,40.1,125.2Z" transform="translate(-40.1 -125.2)"/>
    </g>
    <g id="Group_807" data-name="Group 807" transform="translate(214.66 133.759)">
      <path id="Path_1019" data-name="Path 1019" class="cls-1" d="M125.163,66.3H225.432a18.857,18.857,0,0,1,18.763,18.763h0a18.857,18.857,0,0,1-18.763,18.763H125.163A18.857,18.857,0,0,1,106.4,85.063h0A18.727,18.727,0,0,1,125.163,66.3Z" transform="translate(-106.4 -66.3)"/>
    </g>
    <g id="Group_808" data-name="Group 808" transform="translate(185.609 207.397)">
      <path id="Path_1020" data-name="Path 1020" class="cls-1" d="M104.1,102.8H252.592a12.14,12.14,0,0,1,12.1,12.1h0a12.14,12.14,0,0,1-12.1,12.1H104.1A12.14,12.14,0,0,1,92,114.9h0A12.14,12.14,0,0,1,104.1,102.8Z" transform="translate(-92 -102.8)"/>
    </g>
    <g id="Group_809" data-name="Group 809" transform="translate(12.307 77.875)">
      <path id="Path_1021" data-name="Path 1021" class="cls-1" d="M143.289,78.143H25.871A19.8,19.8,0,0,1,6.1,58.371h0A19.8,19.8,0,0,1,25.871,38.6H143.289a19.977,19.977,0,0,1,19.973,19.771h0A19.847,19.847,0,0,1,143.289,78.143Z" transform="translate(-6.1 -38.6)"/>
    </g>
    <g id="Group_810" data-name="Group 810" transform="translate(0 175.118)">
      <path id="Path_1022" data-name="Path 1022" class="cls-1" d="M198.521,144.1H28.648A28.629,28.629,0,0,1,0,115.448H0A28.629,28.629,0,0,1,28.648,86.8H198.52a28.629,28.629,0,0,1,28.648,28.648h0A28.5,28.5,0,0,1,198.521,144.1Z" transform="translate(0 -86.8)"/>
    </g>
    <g id="Group_811" data-name="Group 811" transform="translate(185.003 39.946)">
      <path id="Path_1023" data-name="Path 1023" class="cls-1" d="M201.249,51.676H107.638A15.972,15.972,0,0,1,91.7,35.738h0A15.972,15.972,0,0,1,107.638,19.8h93.611a15.972,15.972,0,0,1,15.938,15.938h0A15.844,15.844,0,0,1,201.249,51.676Z" transform="translate(-91.7 -19.8)"/>
    </g>
    <g id="Group_812" data-name="Group 812" transform="translate(77.471 18.157)">
      <path id="Path_1024" data-name="Path 1024" class="cls-1" d="M122.933,35.631H51.715A13.434,13.434,0,0,1,38.4,22.315h0A13.434,13.434,0,0,1,51.715,9h71.217a13.434,13.434,0,0,1,13.315,13.315h0A13.434,13.434,0,0,1,122.933,35.631Z" transform="translate(-38.4 -9)"/>
    </g>
    <g id="Group_813" data-name="Group 813" transform="translate(234.835)">
      <path id="Path_1025" data-name="Path 1025" class="cls-1" d="M147.268,17.35H125.075A8.611,8.611,0,0,1,116.4,8.675h0A8.611,8.611,0,0,1,125.075,0h22.192a8.611,8.611,0,0,1,8.675,8.675h0A8.74,8.74,0,0,1,147.268,17.35Z" transform="translate(-116.4)"/>
    </g>
  </g>
  <g id="Group_825" data-name="Group 825" transform="translate(215.064 108.541)">
    <g id="Group_816" data-name="Group 816">
      <g id="Group_815" data-name="Group 815">
        <rect id="Rectangle_142" data-name="Rectangle 142" class="cls-2" width="70.612" height="57.297"/>
      </g>
    </g>
    <g id="Group_818" data-name="Group 818" transform="translate(6.254 6.658)">
      <g id="Group_817" data-name="Group 817">
        <rect id="Rectangle_143" data-name="Rectangle 143" class="cls-3" width="58.305" height="43.578"/>
      </g>
    </g>
    <g id="Group_820" data-name="Group 820" transform="translate(6.254 21.638)">
      <g id="Group_819" data-name="Group 819">
        <path id="Path_1026" data-name="Path 1026" class="cls-4" d="M157.514,78.6,155.9,81.421,132.7,68.106l-23,11.9V76.378l22.394-11.7a2.21,2.21,0,0,1,1.614,0Z" transform="translate(-109.7 -64.525)"/>
      </g>
    </g>
    <g id="Group_822" data-name="Group 822" transform="translate(43.981 21.569)">
      <g id="Group_821" data-name="Group 821">
        <path id="Path_1027" data-name="Path 1027" class="cls-4" d="M148.978,71.369V75.2l-10.693-7.061-6.658,5.851-1.211,1.21L128.4,72.781l.605-.4,8.272-7.465c.605-.4,1.412-.605,1.816-.2Z" transform="translate(-128.4 -64.491)"/>
      </g>
    </g>
    <g id="Group_824" data-name="Group 824" transform="translate(35.911 10.087)">
      <g id="Group_823" data-name="Group 823">
        <path id="Path_1028" data-name="Path 1028" class="cls-5" d="M135.294,64.247a5.447,5.447,0,1,1-5.447-5.447A5.425,5.425,0,0,1,135.294,64.247Z" transform="translate(-124.4 -58.8)"/>
      </g>
    </g>
  </g>
  <g id="Group_836" data-name="Group 836" transform="translate(236.247 144.25)">
    <g id="Group_827" data-name="Group 827">
      <g id="Group_826" data-name="Group 826">
        <rect id="Rectangle_144" data-name="Rectangle 144" class="cls-2" width="70.612" height="57.297"/>
      </g>
    </g>
    <g id="Group_829" data-name="Group 829" transform="translate(6.456 6.658)">
      <g id="Group_828" data-name="Group 828">
        <rect id="Rectangle_145" data-name="Rectangle 145" class="cls-6" width="58.305" height="43.779"/>
      </g>
    </g>
    <g id="Group_831" data-name="Group 831" transform="translate(6.456 21.638)">
      <g id="Group_830" data-name="Group 830">
        <path id="Path_1029" data-name="Path 1029" class="cls-4" d="M168.114,96.3,166.5,99.121,143.3,85.806l-23,11.9V94.078l22.394-11.7a2.21,2.21,0,0,1,1.614,0Z" transform="translate(-120.3 -82.225)"/>
      </g>
    </g>
    <g id="Group_833" data-name="Group 833" transform="translate(43.981 21.569)">
      <g id="Group_832" data-name="Group 832">
        <path id="Path_1030" data-name="Path 1030" class="cls-4" d="M159.478,89.069V92.9l-10.693-7.061-6.658,5.851L140.917,92.9,138.9,90.481l.605-.4,8.272-7.465c.605-.4,1.412-.605,1.816-.2Z" transform="translate(-138.9 -82.191)"/>
      </g>
    </g>
    <g id="Group_835" data-name="Group 835" transform="translate(35.911 10.087)">
      <g id="Group_834" data-name="Group 834">
        <path id="Path_1031" data-name="Path 1031" class="cls-5" d="M145.794,81.947a5.447,5.447,0,1,1-5.447-5.447A5.425,5.425,0,0,1,145.794,81.947Z" transform="translate(-134.9 -76.5)"/>
      </g>
    </g>
  </g>
  <g id="Group_847" data-name="Group 847" transform="translate(215.064 166.039)">
    <g id="Group_838" data-name="Group 838">
      <g id="Group_837" data-name="Group 837">
        <rect id="Rectangle_146" data-name="Rectangle 146" class="cls-2" width="70.612" height="57.297"/>
      </g>
    </g>
    <g id="Group_840" data-name="Group 840" transform="translate(6.254 6.658)">
      <g id="Group_839" data-name="Group 839">
        <rect id="Rectangle_147" data-name="Rectangle 147" class="cls-7" width="58.305" height="43.779"/>
      </g>
    </g>
    <g id="Group_842" data-name="Group 842" transform="translate(6.254 21.839)">
      <g id="Group_841" data-name="Group 841">
        <path id="Path_1032" data-name="Path 1032" class="cls-4" d="M157.514,107,155.9,109.82,132.7,96.5l-23,11.9v-3.43l22.394-11.7a2.21,2.21,0,0,1,1.614,0Z" transform="translate(-109.7 -93.125)"/>
      </g>
    </g>
    <g id="Group_844" data-name="Group 844" transform="translate(43.981 21.771)">
      <g id="Group_843" data-name="Group 843">
        <path id="Path_1033" data-name="Path 1033" class="cls-4" d="M148.978,99.969V103.8l-10.693-7.061-6.658,5.851-1.211,1.21-2.017-2.421.605-.4,8.272-7.465c.605-.4,1.412-.605,1.816-.2Z" transform="translate(-128.4 -93.091)"/>
      </g>
    </g>
    <g id="Group_846" data-name="Group 846" transform="translate(35.911 10.278)">
      <g id="Group_845" data-name="Group 845">
        <path id="Path_1034" data-name="Path 1034" class="cls-5" d="M135.294,92.853a5.447,5.447,0,1,1-5.447-5.447A5.3,5.3,0,0,1,135.294,92.853Z" transform="translate(-124.4 -87.395)"/>
      </g>
    </g>
  </g>
  <g id="Group_860" data-name="Group 860" transform="translate(51.648 153.732)">
    <g id="XMLID_28_">
      <g id="Group_848" data-name="Group 848" transform="translate(0 16.543)">
        <path id="Path_1035" data-name="Path 1035" class="cls-5" d="M48.4,114.461H27.617a32.455,32.455,0,0,1-2.017-11.7A35.446,35.446,0,0,1,30.845,84.4Z" transform="translate(-25.6 -84.4)"/>
      </g>
      <g id="Group_849" data-name="Group 849" transform="translate(8.272)">
        <path id="Path_1036" data-name="Path 1036" class="cls-5" d="M40.393,106.866,29.7,88.507A34.394,34.394,0,0,1,56.129,76.2h1.412Z" transform="translate(-29.7 -76.2)"/>
      </g>
      <g id="Group_850" data-name="Group 850" transform="translate(4.237 51.244)">
        <path id="Path_1037" data-name="Path 1037" class="cls-5" d="M62.4,101.6,52.313,119.354A34.706,34.706,0,0,1,27.7,101.6Z" transform="translate(-27.7 -101.6)"/>
      </g>
      <g id="Group_851" data-name="Group 851" transform="translate(33.894 39.946)">
        <path id="Path_1038" data-name="Path 1038" class="cls-5" d="M59.145,96l10.289,17.552a34.934,34.934,0,0,1-26.227,11.9H42.4L52.891,107.1h.2v-.2Z" transform="translate(-42.4 -96)"/>
      </g>
      <g id="Group_852" data-name="Group 852" transform="translate(30.666 1.009)">
        <path id="Path_1039" data-name="Path 1039" class="cls-5" d="M40.8,95.059,51.291,76.7A34.7,34.7,0,0,1,75.7,95.059Z" transform="translate(-40.8 -76.7)"/>
      </g>
      <g id="Group_853" data-name="Group 853" transform="translate(46.604 23.806)">
        <path id="Path_1040" data-name="Path 1040" class="cls-5" d="M71.3,99.1a33.987,33.987,0,0,1-5.447,18.561L48.7,88H69.48A33.681,33.681,0,0,1,71.3,99.1Z" transform="translate(-48.7 -88)"/>
      </g>
    </g>
    <g id="XMLID_27_">
      <g id="Group_854" data-name="Group 854" transform="translate(0 16.543)">
        <path id="Path_1041" data-name="Path 1041" class="cls-5" d="M48.4,114.461H27.617a32.455,32.455,0,0,1-2.017-11.7A35.446,35.446,0,0,1,30.845,84.4Z" transform="translate(-25.6 -84.4)"/>
      </g>
      <g id="Group_855" data-name="Group 855" transform="translate(8.272)">
        <path id="Path_1042" data-name="Path 1042" class="cls-5" d="M40.393,106.866,29.7,88.507A34.394,34.394,0,0,1,56.129,76.2h1.412Z" transform="translate(-29.7 -76.2)"/>
      </g>
      <g id="Group_856" data-name="Group 856" transform="translate(4.237 51.244)">
        <path id="Path_1043" data-name="Path 1043" class="cls-5" d="M62.4,101.6,52.313,119.354A34.706,34.706,0,0,1,27.7,101.6Z" transform="translate(-27.7 -101.6)"/>
      </g>
      <g id="Group_857" data-name="Group 857" transform="translate(33.894 39.946)">
        <path id="Path_1044" data-name="Path 1044" class="cls-5" d="M59.145,96l10.289,17.552a34.934,34.934,0,0,1-26.227,11.9H42.4L52.891,107.1h.2v-.2Z" transform="translate(-42.4 -96)"/>
      </g>
      <g id="Group_858" data-name="Group 858" transform="translate(30.666 1.009)">
        <path id="Path_1045" data-name="Path 1045" class="cls-5" d="M40.8,95.059,51.291,76.7A34.7,34.7,0,0,1,75.7,95.059Z" transform="translate(-40.8 -76.7)"/>
      </g>
      <g id="Group_859" data-name="Group 859" transform="translate(46.604 23.806)">
        <path id="Path_1046" data-name="Path 1046" class="cls-5" d="M71.3,99.1a33.987,33.987,0,0,1-5.447,18.561L48.7,88H69.48A33.681,33.681,0,0,1,71.3,99.1Z" transform="translate(-48.7 -88)"/>
      </g>
    </g>
  </g>
  <g id="XMLID_15_" transform="translate(98.453 123.874)">
    <g id="XMLID_26_" transform="translate(0.202 14.324)">
      <path id="Path_1047" data-name="Path 1047" class="cls-2" d="M193.554,152.024a1.736,1.736,0,0,1-1.614,1.614H50.514a1.736,1.736,0,0,1-1.614-1.614V70.114A1.736,1.736,0,0,1,50.514,68.5H191.94a1.736,1.736,0,0,1,1.614,1.614Z" transform="translate(-48.9 -68.5)"/>
    </g>
    <g id="XMLID_25_" transform="translate(0 35.508)">
      <rect id="Rectangle_148" data-name="Rectangle 148" class="cls-8" width="145.057" height="56.893"/>
    </g>
    <g id="Group_861" data-name="Group 861" transform="translate(104.102 10.894)">
      <path id="Path_1048" data-name="Path 1048" class="cls-1" d="M100.4,70.431V84.554a3.616,3.616,0,0,0,3.631,3.631h22.192a3.616,3.616,0,0,0,3.632-3.631V70.431a3.616,3.616,0,0,0-3.632-3.631H104.031A3.9,3.9,0,0,0,100.4,70.431Z" transform="translate(-100.4 -66.8)"/>
    </g>
    <g id="Group_862" data-name="Group 862" transform="translate(110.155 16.745)">
      <rect id="Rectangle_149" data-name="Rectangle 149" class="cls-5" width="17.754" height="9.079"/>
    </g>
    <g id="XMLID_22_" transform="translate(140.619 21.587)">
      <path id="Path_1049" data-name="Path 1049" class="cls-5" d="M125.158,72.1a6.658,6.658,0,1,0,6.658,6.658A6.588,6.588,0,0,0,125.158,72.1Zm0,9.079a2.623,2.623,0,1,1,2.623-2.623A2.671,2.671,0,0,1,125.158,81.179Z" transform="translate(-118.5 -72.1)"/>
    </g>
    <g id="Group_863" data-name="Group 863" transform="translate(103.573 45.52)">
      <path id="Path_1050" data-name="Path 1050" class="cls-3" d="M106.921,87.871a4.628,4.628,0,0,0-2.825-.2l-1.412-3.026a1.219,1.219,0,0,0-2.219,1.009l1.412,3.228a4.612,4.612,0,0,0-1.412,2.017,5.042,5.042,0,0,0,9.482,3.43A4.856,4.856,0,0,0,106.921,87.871Z" transform="translate(-100.138 -83.962)"/>
    </g>
    <g id="XMLID_17_" transform="translate(22.394 27.841)">
      <g id="XMLID_21_">
        <path id="Path_1051" data-name="Path 1051" class="cls-3" d="M128.494,109.5A34.3,34.3,0,1,1,94.2,75.2,34.268,34.268,0,0,1,128.494,109.5Z" transform="translate(-59.9 -75.2)"/>
      </g>
      <g id="XMLID_20_" transform="translate(6.254 6.456)">
        <path id="Path_1052" data-name="Path 1052" class="cls-2" d="M118.683,106.241A27.841,27.841,0,1,1,90.841,78.4,27.9,27.9,0,0,1,118.683,106.241Z" transform="translate(-63 -78.4)"/>
      </g>
      <g id="XMLID_18_" transform="translate(19.771 19.771)">
        <g id="XMLID_19_">
          <path id="Path_1053" data-name="Path 1053" class="cls-5" d="M98.752,99.526A14.526,14.526,0,1,1,84.226,85,14.728,14.728,0,0,1,98.752,99.526Z" transform="translate(-69.7 -85)"/>
        </g>
      </g>
    </g>
    <g id="XMLID_16_" transform="translate(11.096)">
      <g id="Group_864" data-name="Group 864">
        <path id="Path_1054" data-name="Path 1054" class="cls-5" d="M70.238,69.47H68.422V64.426A2.971,2.971,0,0,0,65.4,61.4h0a2.971,2.971,0,0,0-3.026,3.026V69.47H60.554A6.286,6.286,0,0,0,54.3,75.724H76.492A6.286,6.286,0,0,0,70.238,69.47Z" transform="translate(-54.3 -61.4)"/>
      </g>
    </g>
  </g>
  <g id="XMLID_10_" transform="translate(90.938 89.973)">
    <g id="XMLID_12_">
      <g id="XMLID_13_">
        <path id="Path_1055" data-name="Path 1055" class="cls-2" d="M45.529,51.261a1.348,1.348,0,0,0,0,2.017c2.219,2.219,7.465,6.658,14.122,6.658s11.9-4.438,14.122-6.658a1.348,1.348,0,0,0,0-2.017C71.554,49.042,66.309,44.6,59.651,44.6,52.994,44.4,47.95,48.84,45.529,51.261Z" transform="translate(-45.075 -44.597)"/>
      </g>
    </g>
    <g id="XMLID_11_" transform="translate(8.12 1.217)">
      <path id="Path_1056" data-name="Path 1056" class="cls-5" d="M62.012,51.656A6.456,6.456,0,1,1,55.556,45.2,6.373,6.373,0,0,1,62.012,51.656Z" transform="translate(-49.1 -45.2)"/>
    </g>
  </g>
  <g id="XMLID_7_" transform="translate(185.81 84.331)">
    <g id="Group_865" data-name="Group 865" transform="translate(0 11.903)">
      <path id="Path_1057" data-name="Path 1057" class="cls-3" d="M101.582,53.349V47.7H99.968v5.649c-.807-2.219-5.044-3.43-7.868-3.833,0,5.649,6.254,6.658,7.666,6.658h2.219c1.412,0,7.868-1.211,7.868-6.658C106.828,50.121,102.389,50.928,101.582,53.349Z" transform="translate(-92.1 -47.7)"/>
    </g>
    <g id="XMLID_8_" transform="translate(2.018)">
      <g id="XMLID_9_">
        <path id="Path_1058" data-name="Path 1058" class="cls-5" d="M103.389,41.8l-1.21,1.21L101.17,41.8H98.749L97.74,43.01,96.53,41.8H94.512A61.785,61.785,0,0,0,93.1,49.265c0,3.43,4.438,5.245,7.465,5.245,3.228,0,6.658-2.219,6.658-5.245A37.808,37.808,0,0,0,105.81,41.8Z" transform="translate(-93.1 -41.8)"/>
      </g>
    </g>
  </g>
  <g id="Group_925" data-name="Group 925" transform="translate(146.752 106.9)">
    <g id="Group_867" data-name="Group 867" transform="translate(6.928 13.491)">
      <g id="Group_866" data-name="Group 866">
        <path id="Path_1059" data-name="Path 1059" class="cls-8" d="M78.849,60.533l2.018,8.07,6.859,2.824-1.009,2.421-7.465-3.026a1.575,1.575,0,0,1-.807-.807L76.226,61.34a1.372,1.372,0,0,1,.807-1.614h0C78.042,59.525,78.647,59.928,78.849,60.533Z" transform="translate(-76.174 -59.674)"/>
      </g>
    </g>
    <g id="Group_869" data-name="Group 869" transform="translate(3.954 23.35)">
      <g id="Group_868" data-name="Group 868">
        <path id="Path_1060" data-name="Path 1060" class="cls-4" d="M86.6,78.157a10.483,10.483,0,0,1,.605-1.009c.4-.605,1.009-1.412,1.816-2.623a28.315,28.315,0,0,0,2.421-3.631,12.246,12.246,0,0,1,1.412-2.017l.2-.2v-.2l.2-.4a4.442,4.442,0,0,0,.2-1.614,2.335,2.335,0,0,0-1.009-1.412,1.569,1.569,0,0,0-1.614-.4h-.4l-.605.2c-1.614.4-3.228.605-4.842,1.009a10.41,10.41,0,0,1-2.219.4c-.807.2-1.412.2-2.017.4a14.771,14.771,0,0,1-3.228.807,5.645,5.645,0,0,1-1.21.2A2.187,2.187,0,0,0,74.7,69.885,2.093,2.093,0,0,0,77.121,71.5a5.646,5.646,0,0,0,1.21-.2q1.21-.3,3.026-.605c.605-.2,1.21-.2,2.018-.4a8.58,8.58,0,0,1,2.219-.4l2.421-.605c-.605,1.21-1.21,2.421-1.816,3.43a26.405,26.405,0,0,1-1.412,2.623,10.482,10.482,0,0,0-.605,1.009,1.314,1.314,0,0,0,.4,1.816C85.393,78.964,86.2,78.762,86.6,78.157Z" transform="translate(-74.7 -64.561)"/>
      </g>
    </g>
    <g id="_x38_._Right_shoe_4_" transform="translate(12.479 33.77)">
      <g id="Group_871" data-name="Group 871">
        <g id="Group_870" data-name="Group 870">
          <path id="Path_1061" data-name="Path 1061" class="cls-7" d="M82.1,73.305a2.017,2.017,0,1,1,.4-2.824A1.81,1.81,0,0,1,82.1,73.305Z" transform="translate(-78.926 -69.726)"/>
        </g>
      </g>
      <g id="Group_873" data-name="Group 873" transform="translate(0.087 0.777)">
        <g id="Group_872" data-name="Group 872">
          <path id="Path_1062" data-name="Path 1062" class="cls-7" d="M83.672,78.764,79.234,72.51a1.38,1.38,0,0,1,.4-2.017h0c.605-.4,2.623-.605,3.228,0l2.421,7.263a1.027,1.027,0,0,1-1.412,1.21Z" transform="translate(-78.969 -70.111)"/>
        </g>
      </g>
      <g id="Group_875" data-name="Group 875" transform="translate(4.387 3.698)">
        <g id="Group_874" data-name="Group 874">
          <path id="Path_1063" data-name="Path 1063" class="cls-2" d="M81.1,71.844h0c0-.2.2-.4.4-.2l.807.2c.2,0,.2.2.2.4h0c0,.2-.2.4-.4.2l-.807-.2C81.3,72.046,81.1,72.046,81.1,71.844Z" transform="translate(-81.1 -71.559)"/>
        </g>
      </g>
      <g id="Group_877" data-name="Group 877" transform="translate(4.303 4.707)">
        <g id="Group_876" data-name="Group 876">
          <path id="Path_1064" data-name="Path 1064" class="cls-2" d="M81.142,72.344h0c0-.2.2-.4.4-.2l.807.2c.2,0,.2.2.2.4h0c0,.2-.2.4-.4.2l-.807-.2C81.142,72.747,80.94,72.546,81.142,72.344Z" transform="translate(-81.059 -72.059)"/>
        </g>
      </g>
      <g id="Group_879" data-name="Group 879" transform="translate(0.939 0.939)">
        <g id="Group_878" data-name="Group 878">
          <path id="Path_1065" data-name="Path 1065" class="cls-9" d="M81.225,72.227a1.15,1.15,0,1,1,.2-1.614A1.067,1.067,0,0,1,81.225,72.227Z" transform="translate(-79.391 -70.191)"/>
        </g>
      </g>
    </g>
    <g id="Group_881" data-name="Group 881" transform="translate(2.863)">
      <g id="Group_880" data-name="Group 880">
        <path id="Path_1066" data-name="Path 1066" class="cls-9" d="M77.268,62.092l-.2,1.614-.4-.2c-.2,0-.4-.4-.4-.605h0a.741.741,0,0,0-.2-.605l-1.009-1.009a5.057,5.057,0,0,1-.807-1.412,2.559,2.559,0,0,1,.2-1.21c.4-.4-.807-1.816,0-2.824.4-.4,1.009-.807,1.21-1.412.807-1.816,2.219-1.614,3.026-1.009s1.21-.605,2.824-.4c1.21.2,1.816,1.009,1.614,1.816a2.242,2.242,0,0,1,2.219,2.421c0,2.421-2.623,2.623-2.623,2.623Z" transform="translate(-74.159 -52.987)"/>
      </g>
    </g>
    <g id="Group_883" data-name="Group 883" transform="translate(4.761 5.473)">
      <g id="Group_882" data-name="Group 882">
        <path id="Path_1067" data-name="Path 1067" class="cls-10" d="M78.731,57.516l-.2,4.035-.2,2.623-3.228-.2.807-6.456.2-1.816Z" transform="translate(-75.1 -55.7)"/>
      </g>
    </g>
    <g id="Group_886" data-name="Group 886" transform="translate(5.971 9.307)">
      <g id="Group_885" data-name="Group 885">
        <g id="Group_884" data-name="Group 884">
          <path id="Path_1068" data-name="Path 1068" class="cls-10" d="M75.7,57.6v.807a3.7,3.7,0,0,0,2.017,1.412l.2-2.017H75.7Z" transform="translate(-75.7 -57.6)"/>
        </g>
      </g>
    </g>
    <g id="Group_888" data-name="Group 888" transform="translate(5.957 3.052)">
      <g id="Group_887" data-name="Group 887">
        <path id="Path_1069" data-name="Path 1069" class="cls-10" d="M79.137,62.772h.4c1.009,0,2.421-2.219,2.421-3.228a13.068,13.068,0,0,1,0-2.824A2.117,2.117,0,0,0,79.742,54.5H77.321a1.591,1.591,0,0,0-1.614,1.614v4.035C75.505,61.561,77.523,62.772,79.137,62.772Z" transform="translate(-75.693 -54.5)"/>
      </g>
    </g>
    <g id="Group_890" data-name="Group 890" transform="translate(4.834 2.456)">
      <g id="Group_889" data-name="Group 889">
        <path id="Path_1070" data-name="Path 1070" class="cls-9" d="M79.905,54.8s.2,1.816-2.824,1.614c0,0,0,3.631-1.614,3.833l-.2-1.21S74.66,55,76.072,54.4,79.905,54.8,79.905,54.8Z" transform="translate(-75.136 -54.204)"/>
      </g>
    </g>
    <g id="Group_892" data-name="Group 892" transform="translate(4.156 11.846)">
      <g id="Group_891" data-name="Group 891">
        <path id="Path_1071" data-name="Path 1071" class="cls-10" d="M74.8,59.144a1.334,1.334,0,0,1,1.21-.2l1.412.2a7.166,7.166,0,0,1,1.816.807A6.564,6.564,0,0,1,74.8,59.144Z" transform="translate(-74.8 -58.859)"/>
      </g>
    </g>
    <g id="Group_894" data-name="Group 894" transform="translate(1.4 12.131)">
      <g id="Group_893" data-name="Group 893">
        <path id="Path_1072" data-name="Path 1072" class="cls-8" d="M74.172,61.421A3.768,3.768,0,0,1,76.392,59a6.22,6.22,0,0,0,4.237.807,3.87,3.87,0,0,1,1.614,3.833L80.83,71.71,73.567,70.7C73.164,70.5,73.769,63.842,74.172,61.421Z" transform="translate(-73.434 -59)"/>
      </g>
    </g>
    <g id="Group_896" data-name="Group 896" transform="translate(0 23.026)">
      <g id="Group_895" data-name="Group 895">
        <path id="Path_1073" data-name="Path 1073" class="cls-4" d="M102.114,79.329a2.416,2.416,0,0,0-.807-.807c-.605-.605-1.21-1.412-2.018-2.219-.807-1.009-5.649-5.851-5.649-5.851h-.2l-.2-.2c-.2-.2-.4-.2-.4-.4a3.409,3.409,0,0,0-1.009-.4h-.2s-8.272-.807-9.079-1.009c-1.614-.605-1.211-2.825-1.211-2.825L73.87,64.4c0,1.009-.807,2.017-1.009,2.824a4.553,4.553,0,0,0,.4,3.228,4.711,4.711,0,0,0,2.421,2.017,4.442,4.442,0,0,0,1.614.2h.807c.807,0,1.816.2,3.026.2a6.863,6.863,0,0,1,2.017.2,8.276,8.276,0,0,1,2.219.2,9.822,9.822,0,0,1,2.421.2h2.219c.4.2.605.605,1.009.807.605.605,1.21,1.009,1.816,1.614,1.21,1.009,2.219,2.017,3.228,2.824s1.816,1.614,2.421,2.017a2.416,2.416,0,0,1,.807.807,1.506,1.506,0,0,0,1.816,0C102.518,80.742,102.518,79.935,102.114,79.329Z" transform="translate(-72.74 -64.4)"/>
      </g>
    </g>
    <g id="_x38_._Right_shoe_3_" transform="translate(26.423 36.744)">
      <g id="Group_898" data-name="Group 898" transform="translate(0 0.681)">
        <g id="Group_897" data-name="Group 897">
          <path id="Path_1074" data-name="Path 1074" class="cls-7" d="M89.8,72.874a2.043,2.043,0,1,1-2.623-1.21A1.943,1.943,0,0,1,89.8,72.874Z" transform="translate(-85.837 -71.537)"/>
        </g>
      </g>
      <g id="Group_900" data-name="Group 900" transform="translate(0.882 0.403)">
        <g id="Group_899" data-name="Group 899">
          <path id="Path_1075" data-name="Path 1075" class="cls-7" d="M95.4,73.216l-7.263,2.421a1.443,1.443,0,0,1-1.816-1.009h0c-.2-.807.2-2.824,1.009-3.026L95,71.4c.807,0,1.412,1.009.807,1.614C95.606,73.014,95.606,73.216,95.4,73.216Z" transform="translate(-86.275 -71.4)"/>
        </g>
      </g>
      <g id="Group_902" data-name="Group 902" transform="translate(3.96)">
        <g id="Group_901" data-name="Group 901">
          <path id="Path_1076" data-name="Path 1076" class="cls-2" d="M88.2,72.612h0a.434.434,0,0,1-.4-.4L88,71.4c0-.2.2-.2.4-.2h0a.434.434,0,0,1,.4.4l-.2.807C88.607,72.612,88.405,72.612,88.2,72.612Z" transform="translate(-87.8 -71.2)"/>
        </g>
      </g>
      <g id="Group_904" data-name="Group 904" transform="translate(5.17)">
        <g id="Group_903" data-name="Group 903">
          <path id="Path_1077" data-name="Path 1077" class="cls-2" d="M88.8,72.612h0a.434.434,0,0,1-.4-.4l.2-.807c0-.2.2-.2.4-.2h0a.434.434,0,0,1,.4.4l-.2.807C89.005,72.612,89.005,72.612,88.8,72.612Z" transform="translate(-88.4 -71.2)"/>
        </g>
      </g>
      <g id="Group_906" data-name="Group 906" transform="translate(0.881 1.36)">
        <g id="Group_905" data-name="Group 905">
          <path id="Path_1078" data-name="Path 1078" class="cls-9" d="M88.747,72.733a1.276,1.276,0,1,1-1.614-.807A1.372,1.372,0,0,1,88.747,72.733Z" transform="translate(-86.274 -71.874)"/>
        </g>
      </g>
    </g>
    <g id="Group_908" data-name="Group 908" transform="translate(8.594 9.307)">
      <g id="Group_907" data-name="Group 907">
        <path id="Path_1079" data-name="Path 1079" class="cls-11" d="M77,57.6a1.13,1.13,0,0,0,1.21,1.009,1.279,1.279,0,0,0,1.21-1.009Z" transform="translate(-77 -57.6)"/>
      </g>
    </g>
    <g id="Group_910" data-name="Group 910" transform="translate(21.708 19.714)">
      <g id="Group_909" data-name="Group 909">
        <path id="Path_1080" data-name="Path 1080" class="cls-10" d="M84.71,67.079a1.362,1.362,0,0,1-1.21-.807l.605-3.228a1.772,1.772,0,0,1,1.412-.2,2.085,2.085,0,0,1,1.816,2.421A2.526,2.526,0,0,1,84.71,67.079Z" transform="translate(-83.5 -62.759)"/>
      </g>
    </g>
    <g id="Group_912" data-name="Group 912" transform="translate(1.583 13.342)">
      <g id="Group_911" data-name="Group 911">
        <path id="Path_1081" data-name="Path 1081" class="cls-8" d="M74.282,70.494a1.219,1.219,0,0,1-.605-1.614L76.5,59.6l2.421.807L76.5,68.275l6.052,1.614-1.009,2.623-7.263-2.017Z" transform="translate(-73.525 -59.6)"/>
      </g>
    </g>
    <g id="Group_914" data-name="Group 914" transform="translate(1.533 14.552)">
      <g id="Group_913" data-name="Group 913">
        <path id="Path_1082" data-name="Path 1082" class="cls-12" d="M73.5,67.665,75.517,60.2l.4.2L73.9,67.866Z" transform="translate(-73.5 -60.2)"/>
      </g>
    </g>
    <g id="Group_916" data-name="Group 916" transform="translate(4.761 15.561)">
      <g id="Group_915" data-name="Group 915">
        <path id="Path_1083" data-name="Path 1083" class="cls-12" d="M75.1,64.937,76.512,60.7h.4l-1.21,4.438Z" transform="translate(-75.1 -60.7)"/>
      </g>
    </g>
    <g id="Group_918" data-name="Group 918" transform="translate(8.967 22.622)">
      <g id="Group_917" data-name="Group 917">
        <path id="Path_1084" data-name="Path 1084" class="cls-10" d="M81.452,66.217a1.7,1.7,0,0,1-.4,1.412l-3.228.4a1.832,1.832,0,0,1-.605-1.412A2.085,2.085,0,0,1,79.031,64.2,2.4,2.4,0,0,1,81.452,66.217Z" transform="translate(-77.185 -64.2)"/>
      </g>
    </g>
    <g id="Group_924" data-name="Group 924" transform="translate(6.577 14.956)">
      <g id="Group_919" data-name="Group 919" transform="translate(0.807 10.693)">
        <path id="Path_1085" data-name="Path 1085" class="cls-4" d="M76.4,66.305a.644.644,0,0,1,.605-.605h19.57c.4,0,.807.2.807.605a.9.9,0,0,1-.807.605H77.005a.535.535,0,0,1-.605-.605Z" transform="translate(-76.4 -65.7)"/>
      </g>
      <g id="Group_920" data-name="Group 920" transform="translate(0 10.693)">
        <path id="Path_1086" data-name="Path 1086" class="cls-2" d="M76,66.305a.644.644,0,0,0,.605.605H84.07a.535.535,0,0,0,.605-.605.644.644,0,0,0-.605-.605H76.605C76.4,65.9,76,66.1,76,66.305Z" transform="translate(-76 -65.7)"/>
      </g>
      <g id="Group_921" data-name="Group 921" transform="translate(7.061)">
        <path id="Path_1087" data-name="Path 1087" class="cls-2" d="M94.026,61.207v9.886a.868.868,0,0,1-.807.807H80.307a.868.868,0,0,1-.807-.807V61.207a.868.868,0,0,1,.807-.807H93.219A.739.739,0,0,1,94.026,61.207Z" transform="translate(-79.5 -60.4)"/>
      </g>
      <g id="Group_922" data-name="Group 922" transform="translate(7.666)">
        <path id="Path_1088" data-name="Path 1088" class="cls-3" d="M94.326,61.207v9.886a.868.868,0,0,1-.807.807H80.607a.868.868,0,0,1-.807-.807V61.207a.868.868,0,0,1,.807-.807H93.519A.739.739,0,0,1,94.326,61.207Z" transform="translate(-79.8 -60.4)"/>
      </g>
      <g id="Group_923" data-name="Group 923" transform="translate(12.71 4.842)">
        <path id="Path_1089" data-name="Path 1089" class="cls-2" d="M82.3,63.607h0a.868.868,0,0,1,.807-.807H85.73a.868.868,0,0,1,.807.807h0a.868.868,0,0,1-.807.807H83.107A.868.868,0,0,1,82.3,63.607Z" transform="translate(-82.3 -62.8)"/>
      </g>
    </g>
  </g>
  <g id="XMLID_1_" transform="translate(188.837 117.619)">
    <g id="XMLID_6_">
      <g id="Group_928" data-name="Group 928">
        <g id="Group_927" data-name="Group 927">
          <g id="Group_926" data-name="Group 926">
            <path id="Path_1090" data-name="Path 1090" class="cls-13" d="M100.459,58.3c3.833,0,6.859,2.623,6.859,5.851a5.67,5.67,0,0,1-2.824,4.842l1.009,2.421L103.082,69.6a10.222,10.222,0,0,1-2.623.4c-3.833,0-6.859-2.623-6.859-5.851S96.626,58.3,100.459,58.3Z" transform="translate(-93.6 -58.3)"/>
          </g>
        </g>
      </g>
    </g>
    <g id="XMLID_2_" transform="translate(2.824 4.842)">
      <g id="XMLID_5_" transform="translate(6.052)">
        <g id="Group_931" data-name="Group 931">
          <g id="Group_930" data-name="Group 930">
            <g id="Group_929" data-name="Group 929">
              <path id="Path_1091" data-name="Path 1091" class="cls-14" d="M99.009,62.717a1.009,1.009,0,1,1,1.009-1.009C99.816,62.314,99.412,62.717,99.009,62.717Z" transform="translate(-98 -60.7)"/>
            </g>
          </g>
        </g>
      </g>
      <g id="XMLID_4_" transform="translate(3.026)">
        <g id="Group_934" data-name="Group 934">
          <g id="Group_933" data-name="Group 933">
            <g id="Group_932" data-name="Group 932">
              <path id="Path_1092" data-name="Path 1092" class="cls-14" d="M97.509,62.717a1.009,1.009,0,1,1,1.009-1.009A.953.953,0,0,1,97.509,62.717Z" transform="translate(-96.5 -60.7)"/>
            </g>
          </g>
        </g>
      </g>
      <g id="XMLID_3_">
        <g id="Group_937" data-name="Group 937">
          <g id="Group_936" data-name="Group 936">
            <g id="Group_935" data-name="Group 935">
              <path id="Path_1093" data-name="Path 1093" class="cls-14" d="M96.009,62.717a1.009,1.009,0,1,1,1.009-1.009A.953.953,0,0,1,96.009,62.717Z" transform="translate(-95 -60.7)"/>
            </g>
          </g>
        </g>
      </g>
    </g>
  </g>
  <g id="Group_939" data-name="Group 939" transform="translate(131.994 98.302)">
    <g id="Group_938" data-name="Group 938">
      <path id="Path_1094" data-name="Path 1094" class="cls-2" d="M75.462,52.306a5.179,5.179,0,0,1-3.631-1.412,4.029,4.029,0,0,0-5.447,0,.571.571,0,0,1-.807-.807,5.256,5.256,0,0,1,7.061,0,4.029,4.029,0,0,0,5.447,0,5.256,5.256,0,0,1,7.061,0,4.029,4.029,0,0,0,5.447,0,5.256,5.256,0,0,1,7.061,0,.571.571,0,1,1-.807.807,4.029,4.029,0,0,0-5.447,0,5.256,5.256,0,0,1-7.061,0,4.029,4.029,0,0,0-5.447,0A4.425,4.425,0,0,1,75.462,52.306Z" transform="translate(-65.425 -48.725)"/>
    </g>
  </g>
  <g id="Group_941" data-name="Group 941" transform="translate(249.008 83.776)">
    <g id="Group_940" data-name="Group 940">
      <path id="Path_1095" data-name="Path 1095" class="cls-2" d="M133.462,45.106a5.179,5.179,0,0,1-3.631-1.412,4.029,4.029,0,0,0-5.447,0,.571.571,0,1,1-.807-.807,5.256,5.256,0,0,1,7.061,0,4.029,4.029,0,0,0,5.447,0,5.256,5.256,0,0,1,7.061,0,4.029,4.029,0,0,0,5.447,0,5.256,5.256,0,0,1,7.061,0,.571.571,0,1,1-.807.807,4.029,4.029,0,0,0-5.447,0,5.256,5.256,0,0,1-7.061,0,4.029,4.029,0,0,0-5.447,0A5.723,5.723,0,0,1,133.462,45.106Z" transform="translate(-123.425 -41.525)"/>
    </g>
  </g>
  <g id="Group_943" data-name="Group 943" transform="translate(44.637 98.705)">
    <g id="Group_942" data-name="Group 942">
      <path id="Path_1096" data-name="Path 1096" class="cls-2" d="M32.162,52.506a5.179,5.179,0,0,1-3.631-1.412,4.029,4.029,0,0,0-5.447,0,.571.571,0,1,1-.807-.807,5.256,5.256,0,0,1,7.061,0,4.029,4.029,0,0,0,5.447,0,5.256,5.256,0,0,1,7.061,0,4.029,4.029,0,0,0,5.447,0,5.256,5.256,0,0,1,7.061,0,.571.571,0,1,1-.807.807,4.029,4.029,0,0,0-5.447,0,5.256,5.256,0,0,1-7.061,0,4.029,4.029,0,0,0-5.447,0A4.725,4.725,0,0,1,32.162,52.506Z" transform="translate(-22.125 -48.925)"/>
    </g>
  </g>
  <g id="Group_952" data-name="Group 952" transform="translate(145.53 64.023)">
    <g id="Group_945" data-name="Group 945" transform="translate(0.222 19.973)">
      <g id="Group_944" data-name="Group 944">
        <path id="Path_1097" data-name="Path 1097" class="cls-6" d="M72.357,42.776l4.438,6.254c0,.2.2.4.4.605a.7.7,0,0,1,.4.2c.2,0,.4,0,.4-.2.2-.2.2-.4.4-.605l4.438-6.254c.2-.4.2-.807-.2-1.009s-.807-.2-1.009.2L77.8,47.618,73.97,41.969c-.2-.4-.605-.4-1.009-.2C72.155,41.969,72.155,42.574,72.357,42.776Z" transform="translate(-72.244 -41.634)"/>
      </g>
    </g>
    <g id="Group_947" data-name="Group 947" transform="translate(0.222 13.315)">
      <g id="Group_946" data-name="Group 946">
        <path id="Path_1098" data-name="Path 1098" class="cls-6" d="M72.357,39.476l4.438,6.254c0,.2.2.4.4.605a.7.7,0,0,1,.4.2c.2,0,.4,0,.4-.2.2-.2.2-.4.4-.605l4.438-6.254c.2-.4.2-.807-.2-1.009s-.807-.2-1.009.2L77.8,44.318,73.97,38.669c-.2-.4-.605-.4-1.009-.2C72.155,38.669,72.155,39.072,72.357,39.476Z" transform="translate(-72.244 -38.334)"/>
      </g>
    </g>
    <g id="Group_949" data-name="Group 949" transform="translate(0 6.658)">
      <g id="Group_948" data-name="Group 948">
        <path id="Path_1099" data-name="Path 1099" class="cls-6" d="M72.267,36.176l4.438,6.254c0,.2.2.4.4.605a.625.625,0,0,0,.4.2c.2,0,.4,0,.4-.2.2-.2.2-.4.4-.605l4.438-6.254c.2-.4.2-.807-.2-1.009-.605-.2-1.009-.2-1.21.2l-4.035,5.649-3.833-5.649c-.2-.4-.605-.4-1.009-.2S72.065,35.772,72.267,36.176Z" transform="translate(-72.134 -35.034)"/>
      </g>
    </g>
    <g id="Group_951" data-name="Group 951" transform="translate(0.02)">
      <g id="Group_950" data-name="Group 950">
        <path id="Path_1100" data-name="Path 1100" class="cls-6" d="M72.257,32.876l4.438,6.254c0,.2.2.4.4.605a.7.7,0,0,1,.4.2c.2,0,.4,0,.4-.2.2-.2.2-.4.4-.605l4.438-6.254c.2-.4.2-.807-.2-1.009s-.807-.2-1.009.2L77.7,37.718,73.87,32.069c-.2-.4-.605-.4-1.009-.2C72.055,32.069,72.055,32.472,72.257,32.876Z" transform="translate(-72.144 -31.734)"/>
      </g>
    </g>
  </g>
  <g id="Group_961" data-name="Group 961" transform="translate(215.467 77.944)">
    <g id="Group_954" data-name="Group 954" transform="translate(0.252 16.14)">
      <g id="Group_953" data-name="Group 953">
        <path id="Path_1101" data-name="Path 1101" class="cls-6" d="M107.076,47.574l3.43,5.044a.7.7,0,0,0,.2.4c.2,0,.2.2.4.2s.2,0,.4-.2c.2,0,.2-.2.2-.4l3.43-5.044a.588.588,0,0,0-1.009-.605l-3.026,4.438-3.228-4.438c-.2-.2-.605-.4-.807-.2A.614.614,0,0,0,107.076,47.574Z" transform="translate(-106.925 -46.634)"/>
      </g>
    </g>
    <g id="Group_956" data-name="Group 956" transform="translate(0.202 10.894)">
      <g id="Group_955" data-name="Group 955">
        <path id="Path_1102" data-name="Path 1102" class="cls-6" d="M107.1,44.974l3.43,5.044a.7.7,0,0,0,.2.4c.2,0,.2.2.4.2s.2,0,.4-.2c.2,0,.2-.2.2-.4l3.43-5.044a.588.588,0,1,0-1.009-.605l-3.228,4.438-3.228-4.438c-.2-.2-.605-.4-.807-.2A2.011,2.011,0,0,0,107.1,44.974Z" transform="translate(-106.9 -44.034)"/>
      </g>
    </g>
    <g id="Group_958" data-name="Group 958" transform="translate(0 5.447)">
      <g id="Group_957" data-name="Group 957">
        <path id="Path_1103" data-name="Path 1103" class="cls-6" d="M107,42.274l3.43,5.044a.7.7,0,0,0,.2.4c.2,0,.2.2.4.2s.2,0,.4-.2c.2,0,.2-.2.2-.4l3.43-5.044a.588.588,0,1,0-1.009-.605l-3.228,4.438-3.228-4.438c-.2-.2-.605-.4-.807-.2A1.213,1.213,0,0,0,107,42.274Z" transform="translate(-106.8 -41.334)"/>
      </g>
    </g>
    <g id="Group_960" data-name="Group 960">
      <g id="Group_959" data-name="Group 959">
        <path id="Path_1104" data-name="Path 1104" class="cls-6" d="M107,39.574l3.43,5.044a.7.7,0,0,0,.2.4c.2,0,.2.2.4,0h.4c.2,0,.2-.2.2-.4l3.43-5.044a.588.588,0,1,0-1.009-.605l-3.228,4.438-3.228-4.438c-.2-.2-.605-.4-.807-.2A1.213,1.213,0,0,0,107,39.574Z" transform="translate(-106.8 -38.634)"/>
      </g>
    </g>
  </g>
  <g id="Group_1011" data-name="Group 1011" transform="translate(230.729 74.849)">
    <g id="Group_963" data-name="Group 963">
      <g id="Group_962" data-name="Group 962">
        <path id="Path_1105" data-name="Path 1105" class="cls-2" d="M126.339,48.4c.4-.605-.2-1.614.2-2.824,1.009-3.631-.2-5.044-.2-5.044,0-1.412-1.009-2.421-2.824-3.026a10.222,10.222,0,0,0-2.623-.4,6.452,6.452,0,0,0-3.631,1.009,3.428,3.428,0,0,0-1.816,2.421c0,.605.807,1.614,0,2.824-1.816,3.026-1.009,4.64,0,5.245,1.009.4,2.017.605,2.623.807C120.892,50.819,124.927,50.617,126.339,48.4Z" transform="translate(-114.365 -37.1)"/>
      </g>
    </g>
    <g id="Group_964" data-name="Group 964" transform="translate(8.948 14.324)">
      <path id="Path_1106" data-name="Path 1106" class="cls-10" d="M130.7,54.287a7.168,7.168,0,0,0,2.017-.4.957.957,0,1,0-.605-1.816c-3.228.807-5.851.4-7.868-1.009a9.29,9.29,0,0,1-3.631-6.052c0-.605-.605-.807-1.009-.807-.605,0-.807.605-.807,1.009a10.965,10.965,0,0,0,4.438,7.263A9.542,9.542,0,0,0,130.7,54.287Z" transform="translate(-118.8 -44.2)"/>
    </g>
    <g id="Group_965" data-name="Group 965" transform="translate(8.909 13.921)">
      <path id="Path_1107" data-name="Path 1107" class="cls-4" d="M121.442,46.824h.605a4.021,4.021,0,0,1-.4-1.614A1.334,1.334,0,0,0,120.232,44h-.2c-.807.2-1.412.807-1.21,1.614a12.744,12.744,0,0,0,.807,2.623C119.425,47.43,120.232,46.824,121.442,46.824Z" transform="translate(-118.781 -44)"/>
    </g>
    <g id="Group_967" data-name="Group 967" transform="translate(5.317 13.315)">
      <g id="Group_966" data-name="Group 966">
        <path id="Path_1108" data-name="Path 1108" class="cls-10" d="M121.438,46.323a1.028,1.028,0,0,0,.2-1.614,3.341,3.341,0,0,0-2.421-1.009h-.2A2.483,2.483,0,0,0,117,44.709C117.4,45.717,120.026,46.928,121.438,46.323Z" transform="translate(-117 -43.7)"/>
      </g>
    </g>
    <g id="Group_969" data-name="Group 969" transform="translate(6.527 10.894)">
      <g id="Group_968" data-name="Group 968">
        <path id="Path_1109" data-name="Path 1109" class="cls-10" d="M119.214,43.105v3.026H117.6V42.5A2.683,2.683,0,0,0,119.214,43.105Z" transform="translate(-117.6 -42.5)"/>
      </g>
    </g>
    <g id="Group_972" data-name="Group 972" transform="translate(6.527 11.096)">
      <g id="Group_971" data-name="Group 971">
        <g id="Group_970" data-name="Group 970">
          <path id="Path_1110" data-name="Path 1110" class="cls-10" d="M119.214,43.205v1.009a2.491,2.491,0,0,1-1.614-.807V42.6A2.683,2.683,0,0,0,119.214,43.205Z" transform="translate(-117.6 -42.6)"/>
        </g>
      </g>
    </g>
    <g id="Group_974" data-name="Group 974" transform="translate(3.501 1.412)">
      <g id="Group_973" data-name="Group 973">
        <path id="Path_1111" data-name="Path 1111" class="cls-10" d="M120.337,48.493h0a4.186,4.186,0,0,1-3.43-1.816,4.055,4.055,0,0,1-.807-2.623V42.238a4.761,4.761,0,0,1,1.412-3.228,4.106,4.106,0,0,1,3.026-1.21h0a4.067,4.067,0,0,1,2.219.605,4.326,4.326,0,0,1,2.219,3.833v1.816a4.326,4.326,0,0,1-2.219,3.833A3.639,3.639,0,0,1,120.337,48.493Z" transform="translate(-116.1 -37.8)"/>
      </g>
    </g>
    <g id="Group_976" data-name="Group 976" transform="translate(2.756 23.334)">
      <g id="Group_975" data-name="Group 975">
        <path id="Path_1112" data-name="Path 1112" class="cls-7" d="M125.554,51.963c.605,2.219-2.219,4.438-4.64,5.044a4.234,4.234,0,0,1-1.816-8.272C121.318,48.331,124.949,49.743,125.554,51.963Z" transform="translate(-115.731 -48.666)"/>
      </g>
    </g>
    <g id="Group_978" data-name="Group 978" transform="translate(8.141 9.886)">
      <g id="Group_977" data-name="Group 977">
        <path id="Path_1113" data-name="Path 1113" class="cls-11" d="M118.4,42a1.13,1.13,0,0,0,1.21,1.009A1.279,1.279,0,0,0,120.821,42Z" transform="translate(-118.4 -42)"/>
      </g>
    </g>
    <g id="Group_980" data-name="Group 980" transform="translate(8.746 14.808)">
      <g id="Group_979" data-name="Group 979">
        <path id="Path_1114" data-name="Path 1114" class="cls-4" d="M122.13,46.579a1.608,1.608,0,0,1-1.412,1.816,2.631,2.631,0,0,1-2.017-1.816c0-.807,1.211-2.623,1.614-2.017C120.919,45.368,121.928,45.973,122.13,46.579Z" transform="translate(-118.7 -44.44)"/>
      </g>
    </g>
    <g id="Group_982" data-name="Group 982" transform="translate(3.097 14.122)">
      <g id="Group_981" data-name="Group 981">
        <path id="Path_1115" data-name="Path 1115" class="cls-4" d="M118.119,44.1a2.291,2.291,0,0,0-.605,1.614s1.412,6.658-1.614,10.087c0,0,5.245,3.026,9.482,1.009,0-3.026-1.816-5.044-1.614-9.886a3.835,3.835,0,0,0-1.009-2.623C122.759,45.916,119.531,44.1,118.119,44.1Z" transform="translate(-115.9 -44.1)"/>
      </g>
    </g>
    <g id="Group_989" data-name="Group 989" transform="translate(9.724 45.393)">
      <g id="Group_985" data-name="Group 985">
        <g id="Group_984" data-name="Group 984">
          <g id="Group_983" data-name="Group 983">
            <path id="Path_1116" data-name="Path 1116" class="cls-5" d="M119.216,61.819v2.017c0,.4,1.816.807,2.017,1.816.4,1.614,2.421,1.614,2.623,1.816.807.2,1.614-.2,1.21-1.009-.605-1.009-1.009-1.21-1.614-2.219-1.009-1.614-1.009-2.824-1.614-3.833a1.539,1.539,0,0,0-1.412-.807A1.981,1.981,0,0,0,119.216,61.819Z" transform="translate(-119.184 -59.6)"/>
          </g>
        </g>
      </g>
      <g id="Group_988" data-name="Group 988" transform="translate(1.619 0.253)">
        <g id="Group_987" data-name="Group 987">
          <g id="Group_986" data-name="Group 986">
            <path id="Path_1117" data-name="Path 1117" class="cls-10" d="M121.425,64.718c-.605-.807-1.614-3.43-1.412-4.237s1.614-1.009,1.816-.4c.4,1.009.2,3.026,1.614,5.044C123.241,65.726,122.031,65.726,121.425,64.718Z" transform="translate(-119.987 -59.726)"/>
          </g>
        </g>
      </g>
    </g>
    <g id="Group_996" data-name="Group 996" transform="translate(33.268 26.638)">
      <g id="Group_992" data-name="Group 992" transform="translate(0.445)">
        <g id="Group_991" data-name="Group 991">
          <g id="Group_990" data-name="Group 990">
            <path id="Path_1118" data-name="Path 1118" class="cls-5" d="M133.95,58.366c.807-.605,1.412-1.009,1.614-1.21s-.605-2.017.2-2.824c1.009-1.21,0-2.824-.2-3.228-.4-.807-1.211-1.21-1.614-.2s-.2,1.412-.807,2.824c-.807,1.816-1.614,2.623-2.017,3.631,0,.2-.2,1.009.2,1.412A2.213,2.213,0,0,0,133.95,58.366Z" transform="translate(-131.075 -50.303)"/>
          </g>
        </g>
      </g>
      <g id="Group_995" data-name="Group 995" transform="translate(0 1.985)">
        <g id="Group_994" data-name="Group 994">
          <g id="Group_993" data-name="Group 993">
            <path id="Path_1119" data-name="Path 1119" class="cls-10" d="M134.78,53.129c-.4,1.009-1.816,3.43-2.421,3.631-.807.4-1.816-.605-1.412-1.21.605-1.009,2.421-2.017,3.026-4.237C134.376,51.111,135.183,52.12,134.78,53.129Z" transform="translate(-130.854 -51.287)"/>
          </g>
        </g>
      </g>
    </g>
    <g id="Group_997" data-name="Group 997" transform="translate(4.153 27.888)">
      <path id="Path_1120" data-name="Path 1120" class="cls-7" d="M129.086,55.718h0L119,51.078a1.855,1.855,0,0,0-1.412,3.43h0l8.473,3.833L123.034,68.63l2.623.807,4.237-11.7A1.53,1.53,0,0,0,129.086,55.718Z" transform="translate(-116.423 -50.923)"/>
    </g>
    <g id="Group_998" data-name="Group 998" transform="translate(2.29 14.797)">
      <path id="Path_1121" data-name="Path 1121" class="cls-10" d="M120.948,56.672h1.614c.605,0,.807-.605.807-1.009,0-.605-.605-.807-1.009-.807-1.816.2-4.035.2-4.842-1.21-1.21-2.017,1.009-6.456,2.017-7.868.2-.4.2-1.009-.2-1.21s-1.009-.2-1.21.2c-.4.605-4.035,6.456-2.017,9.886C116.913,55.865,118.527,56.672,120.948,56.672Z" transform="translate(-115.5 -44.434)"/>
    </g>
    <g id="Group_1000" data-name="Group 1000" transform="translate(2.896 0.73)">
      <g id="Group_999" data-name="Group 999">
        <path id="Path_1122" data-name="Path 1122" class="cls-2" d="M115.8,43.188s3.228,1.21,5.044-.2c2.018-1.412,2.825-3.43,2.018-4.64s-3.228-1.21-5.044.2C115.8,39.758,115.8,43.188,115.8,43.188Z" transform="translate(-115.8 -37.462)"/>
      </g>
    </g>
    <g id="Group_1001" data-name="Group 1001" transform="translate(6.729 27.64)">
      <path id="Path_1123" data-name="Path 1123" class="cls-7" d="M117.7,50.8s1.816,0,4.438.2c1.21,0,2.824.2,4.438.2a42.475,42.475,0,0,1,5.044.4h2.824l2.421.605c.807.2,1.614.4,2.219.605.807.2,1.412.4,2.018.605,1.21.4,2.219.605,3.026.807a6.5,6.5,0,0,1,1.211.4l-.605,2.421a5.646,5.646,0,0,1-1.21-.2q-1.21-.3-3.026-.605c-.605-.2-1.412-.2-2.018-.4-.807-.2-1.412-.2-2.219-.4a10.127,10.127,0,0,0-2.421-.4h-2.017c-1.816,0-3.43-.2-5.044-.2s-3.228-.2-4.438-.2c-2.623-.2-4.438-.2-4.438-.2Z" transform="translate(-117.7 -50.8)"/>
    </g>
    <g id="Group_1007" data-name="Group 1007" transform="translate(6.527 16.745)">
      <g id="Group_1002" data-name="Group 1002" transform="translate(0.807 11.5)">
        <path id="Path_1124" data-name="Path 1124" class="cls-4" d="M118,51.705a.535.535,0,0,1,.605-.605h20.377c.4,0,.807.2.807.605s-.4.605-.807.605H118.605q-.605-.3-.605-.605Z" transform="translate(-118 -51.1)"/>
      </g>
      <g id="Group_1003" data-name="Group 1003" transform="translate(0 11.5)">
        <path id="Path_1125" data-name="Path 1125" class="cls-2" d="M117.6,51.705a.535.535,0,0,0,.605.605h7.666a.605.605,0,0,0,0-1.21h-7.666A.644.644,0,0,0,117.6,51.705Z" transform="translate(-117.6 -51.1)"/>
      </g>
      <g id="Group_1004" data-name="Group 1004" transform="translate(7.465)">
        <path id="Path_1126" data-name="Path 1126" class="cls-2" d="M136.431,46.207V56.5a.868.868,0,0,1-.807.807H122.107a.868.868,0,0,1-.807-.807V46.207a.868.868,0,0,1,.807-.807h13.517A.868.868,0,0,1,136.431,46.207Z" transform="translate(-121.3 -45.4)"/>
      </g>
      <g id="Group_1005" data-name="Group 1005" transform="translate(8.07)">
        <path id="Path_1127" data-name="Path 1127" class="cls-2" d="M136.731,46.207V56.5a.868.868,0,0,1-.807.807H122.407a.868.868,0,0,1-.807-.807V46.207a.868.868,0,0,1,.807-.807h13.517A.868.868,0,0,1,136.731,46.207Z" transform="translate(-121.6 -45.4)"/>
      </g>
      <g id="Group_1006" data-name="Group 1006" transform="translate(13.315 5.245)">
        <path id="Path_1128" data-name="Path 1128" class="cls-6" d="M124.2,48.807h0a.868.868,0,0,1,.807-.807h2.824a.868.868,0,0,1,.807.807h0a.868.868,0,0,1-.807.807h-2.824A.868.868,0,0,1,124.2,48.807Z" transform="translate(-124.2 -48)"/>
      </g>
    </g>
    <g id="Group_1008" data-name="Group 1008" transform="translate(3.097 13.921)">
      <path id="Path_1129" data-name="Path 1129" class="cls-4" d="M116.505,46.623a2,2,0,0,1,2.018,1.412,14.637,14.637,0,0,1,1.009-1.816,1.565,1.565,0,0,0-.4-2.017,1.581,1.581,0,0,0-2.018.4c-.2.4-.605,1.009-1.21,2.017Z" transform="translate(-115.9 -44)"/>
    </g>
    <g id="Group_1010" data-name="Group 1010" transform="translate(8.913 23.857)">
      <g id="Group_1009" data-name="Group 1009">
        <path id="Path_1130" data-name="Path 1130" class="cls-10" d="M123.256,50.287a2.228,2.228,0,0,1,0,1.614l-3.228,1.412a2.066,2.066,0,0,1-1.009-1.21,2.211,2.211,0,0,1,1.211-3.026A2.378,2.378,0,0,1,123.256,50.287Z" transform="translate(-118.782 -48.925)"/>
      </g>
    </g>
  </g>
  <g id="Group_1012" data-name="Group 1012" transform="translate(53.06 223.134)">
    <path id="Path_1131" data-name="Path 1131" class="cls-6" d="M289.582,113.828H27.914a1.614,1.614,0,0,1,0-3.228H289.582a1.591,1.591,0,0,1,1.614,1.614C290.994,113.223,290.389,113.828,289.582,113.828Z" transform="translate(-26.3 -110.6)"/>
  </g>
  <g id="Group_1015" data-name="Group 1015" transform="translate(192.065 233.826)">
    <g id="Group_1013" data-name="Group 1013" transform="translate(22.192)">
      <path id="Path_1132" data-name="Path 1132" class="cls-6" d="M148.164,119.128h-40.35a1.591,1.591,0,0,1-1.614-1.614,1.485,1.485,0,0,1,1.614-1.614h40.35a1.591,1.591,0,0,1,1.614,1.614A1.485,1.485,0,0,1,148.164,119.128Z" transform="translate(-106.2 -115.9)"/>
    </g>
    <g id="Group_1014" data-name="Group 1014">
      <path id="Path_1133" data-name="Path 1133" class="cls-6" d="M106.9,119.128H96.814a1.591,1.591,0,0,1-1.614-1.614,1.485,1.485,0,0,1,1.614-1.614H106.9a1.591,1.591,0,0,1,1.614,1.614A1.485,1.485,0,0,1,106.9,119.128Z" transform="translate(-95.2 -115.9)"/>
    </g>
  </g>
  <g id="Group_1026" data-name="Group 1026" transform="translate(89.576 81.103)">
    <g id="Group_1020" data-name="Group 1020">
      <g id="Group_1017" data-name="Group 1017">
        <g id="Group_1016" data-name="Group 1016">
          <path id="Path_1134" data-name="Path 1134" class="cls-6" d="M47.224,47.463H44.4V41.612A1.379,1.379,0,0,1,45.812,40.2h5.649v2.824H47.224Z" transform="translate(-44.4 -40.2)"/>
        </g>
      </g>
      <g id="Group_1019" data-name="Group 1019" transform="translate(24.815)">
        <g id="Group_1018" data-name="Group 1018">
          <path id="Path_1135" data-name="Path 1135" class="cls-6" d="M63.761,47.463H60.937V43.024H56.7V40.2h5.649a1.379,1.379,0,0,1,1.412,1.412Z" transform="translate(-56.7 -40.2)"/>
        </g>
      </g>
    </g>
    <g id="Group_1025" data-name="Group 1025" transform="translate(0 25.622)">
      <g id="Group_1022" data-name="Group 1022" transform="translate(24.815)">
        <g id="Group_1021" data-name="Group 1021">
          <path id="Path_1136" data-name="Path 1136" class="cls-6" d="M62.349,60.163H56.7V57.338h4.237V52.9h2.824v5.851A1.516,1.516,0,0,1,62.349,60.163Z" transform="translate(-56.7 -52.9)"/>
        </g>
      </g>
      <g id="Group_1024" data-name="Group 1024">
        <g id="Group_1023" data-name="Group 1023">
          <path id="Path_1137" data-name="Path 1137" class="cls-6" d="M51.461,60.163H45.812A1.379,1.379,0,0,1,44.4,58.751V52.9h2.824v4.438h4.237Z" transform="translate(-44.4 -52.9)"/>
        </g>
      </g>
    </g>
  </g>
  <g id="Group_1037" data-name="Group 1037" transform="translate(180.161 79.691)">
    <g id="Group_1031" data-name="Group 1031">
      <g id="Group_1028" data-name="Group 1028" transform="translate(0 0)">
        <g id="Group_1027" data-name="Group 1027">
          <path id="Path_1138" data-name="Path 1138" class="cls-6" d="M91.721,45.956H89.3V40.71a1.3,1.3,0,0,1,1.21-1.21h5.044v2.421H91.721Z" transform="translate(-89.3 -39.5)"/>
        </g>
      </g>
      <g id="Group_1030" data-name="Group 1030" transform="translate(22.596)">
        <g id="Group_1029" data-name="Group 1029">
          <path id="Path_1139" data-name="Path 1139" class="cls-6" d="M106.754,45.956h-2.421V41.921H100.5V39.5h5.044a1.3,1.3,0,0,1,1.21,1.21Z" transform="translate(-100.5 -39.5)"/>
        </g>
      </g>
    </g>
    <g id="Group_1036" data-name="Group 1036" transform="translate(0.202 23.201)">
      <g id="Group_1033" data-name="Group 1033" transform="translate(22.394)">
        <g id="Group_1032" data-name="Group 1032">
          <path id="Path_1140" data-name="Path 1140" class="cls-6" d="M105.544,57.456H100.5V55.035h3.833V51h2.421v5.245A1.07,1.07,0,0,1,105.544,57.456Z" transform="translate(-100.5 -51)"/>
        </g>
      </g>
      <g id="Group_1035" data-name="Group 1035">
        <g id="Group_1034" data-name="Group 1034">
          <path id="Path_1141" data-name="Path 1141" class="cls-6" d="M95.654,57.456H90.61a1.3,1.3,0,0,1-1.211-1.21V51h2.421v4.035h3.833Z" transform="translate(-89.4 -51)"/>
        </g>
      </g>
    </g>
  </g>
  <g id="Group_1121" data-name="Group 1121" transform="translate(219.073 195.293)">
    <g id="Group_1040" data-name="Group 1040" transform="translate(5.372 14.362)">
      <g id="Group_1039" data-name="Group 1039">
        <g id="Group_1038" data-name="Group 1038">
          <path id="Path_1142" data-name="Path 1142" class="cls-4" d="M118.614,124.056a1.831,1.831,0,0,1-1.412-.605l-5.649-7.868a1.833,1.833,0,0,1,0-2.017l7.465-9.079a1.576,1.576,0,1,1,2.421,2.017l-6.658,8.07,5.044,6.859a1.433,1.433,0,0,1-.4,2.219C119.219,124.056,119.017,124.056,118.614,124.056Z" transform="translate(-111.25 -103.919)"/>
        </g>
      </g>
    </g>
    <g id="Group_1043" data-name="Group 1043" transform="translate(20.239 14.362)">
      <g id="Group_1042" data-name="Group 1042">
        <g id="Group_1041" data-name="Group 1041">
          <path id="Path_1143" data-name="Path 1143" class="cls-4" d="M122.011,124.056c-.4,0-.605-.2-1.009-.4a1.642,1.642,0,0,1-.4-2.219l5.044-6.859-6.658-8.07a1.576,1.576,0,0,1,2.421-2.017l7.465,9.079a1.833,1.833,0,0,1,0,2.017l-5.649,7.868A1.22,1.22,0,0,1,122.011,124.056Z" transform="translate(-118.619 -103.919)"/>
        </g>
      </g>
    </g>
    <g id="Group_1046" data-name="Group 1046" transform="translate(13.543)">
      <g id="Group_1045" data-name="Group 1045">
        <g id="Group_1044" data-name="Group 1044">
          <path id="Path_1144" data-name="Path 1144" class="cls-7" d="M124.984,101.642a4.842,4.842,0,1,1-4.842-4.842A5.05,5.05,0,0,1,124.984,101.642Z" transform="translate(-115.3 -96.8)"/>
        </g>
      </g>
    </g>
    <g id="Group_1049" data-name="Group 1049" transform="translate(16.569 8.877)">
      <g id="Group_1048" data-name="Group 1048">
        <g id="Group_1047" data-name="Group 1047">
          <path id="Path_1145" data-name="Path 1145" class="cls-10" d="M120.431,103.016v7.465H116.8l.2-7.263.2-2.017Z" transform="translate(-116.8 -101.2)"/>
        </g>
      </g>
    </g>
    <g id="Group_1052" data-name="Group 1052" transform="translate(12.883 13.837)">
      <g id="Group_1051" data-name="Group 1051">
        <g id="Group_1050" data-name="Group 1050">
          <path id="Path_1146" data-name="Path 1146" class="cls-4" d="M115.431,107.575a4.312,4.312,0,0,1,2.421-3.43c1.816-1.009,4.842-.2,5.649.2a5.1,5.1,0,0,1,2.421,4.842l.2,10.491h-11.1C114.826,119.882,115.229,110.8,115.431,107.575Z" transform="translate(-114.973 -103.659)"/>
        </g>
      </g>
    </g>
    <g id="Group_1055" data-name="Group 1055" transform="translate(15.964 13.792)">
      <g id="Group_1054" data-name="Group 1054">
        <g id="Group_1053" data-name="Group 1053">
          <path id="Path_1147" data-name="Path 1147" class="cls-10" d="M121.342,104.168a5.793,5.793,0,0,0-4.842,0l1.21,1.21a1.72,1.72,0,0,0,2.623,0A5.35,5.35,0,0,0,121.342,104.168Z" transform="translate(-116.5 -103.636)"/>
        </g>
      </g>
    </g>
    <g id="Group_1058" data-name="Group 1058" transform="translate(14.734 2.219)">
      <g id="Group_1057" data-name="Group 1057">
        <g id="Group_1056" data-name="Group 1056">
          <path id="Path_1148" data-name="Path 1148" class="cls-10" d="M120.55,97.9h-1.816a2.647,2.647,0,0,0-2.824,2.824,21.676,21.676,0,0,1,0,3.631c0,1.412,1.614,4.237,3.026,4.237h1.412c1.412,0,3.026-2.824,3.026-4.237a21.487,21.487,0,0,1,0-3.631A2.758,2.758,0,0,0,120.55,97.9Z" transform="translate(-115.89 -97.9)"/>
        </g>
      </g>
    </g>
    <g id="Group_1061" data-name="Group 1061" transform="translate(16.973 10.491)">
      <g id="Group_1060" data-name="Group 1060">
        <g id="Group_1059" data-name="Group 1059">
          <path id="Path_1149" data-name="Path 1149" class="cls-11" d="M117,102a1.731,1.731,0,0,0,1.412,1.21,1.349,1.349,0,0,0,1.412-1.21Z" transform="translate(-117 -102)"/>
        </g>
      </g>
    </g>
    <g id="Group_1064" data-name="Group 1064" transform="translate(12.478 30.061)">
      <g id="Group_1063" data-name="Group 1063">
        <g id="Group_1062" data-name="Group 1062">
          <path id="Path_1150" data-name="Path 1150" class="cls-5" d="M122.495,121.787h-3.631a4.144,4.144,0,0,1-4.035-4.842l.2-5.245h11.1l.2,5.245A3.908,3.908,0,0,1,122.495,121.787Z" transform="translate(-114.772 -111.7)"/>
        </g>
      </g>
    </g>
    <g id="Group_1067" data-name="Group 1067" transform="translate(0 32.885)">
      <g id="Group_1066" data-name="Group 1066">
        <g id="Group_1065" data-name="Group 1065">
          <path id="Path_1151" data-name="Path 1151" class="cls-5" d="M110.631,114.512l15.333-1.412.4,4.64-15.333,1.412a2.129,2.129,0,0,1-2.421-2.017h0A2.313,2.313,0,0,1,110.631,114.512Z" transform="translate(-108.587 -113.1)"/>
        </g>
      </g>
    </g>
    <g id="Group_1070" data-name="Group 1070" transform="translate(16.771 32.885)">
      <g id="Group_1069" data-name="Group 1069">
        <g id="Group_1068" data-name="Group 1068">
          <path id="Path_1152" data-name="Path 1152" class="cls-5" d="M132.636,114.512,117.3,113.1l-.4,4.64,15.333,1.412a2.129,2.129,0,0,0,2.421-2.017h0A2.313,2.313,0,0,0,132.636,114.512Z" transform="translate(-116.9 -113.1)"/>
        </g>
      </g>
    </g>
    <g id="Group_1073" data-name="Group 1073" transform="translate(10.719 26.429)">
      <g id="Group_1072" data-name="Group 1072">
        <g id="Group_1071" data-name="Group 1071">
          <path id="Path_1153" data-name="Path 1153" class="cls-2" d="M127.821,120.794H115.11a1.3,1.3,0,0,1-1.21-1.21V111.11a1.3,1.3,0,0,1,1.21-1.21h12.71a1.3,1.3,0,0,1,1.21,1.21v8.473A1.07,1.07,0,0,1,127.821,120.794Z" transform="translate(-113.9 -109.9)"/>
        </g>
      </g>
    </g>
    <g id="Group_1076" data-name="Group 1076" transform="translate(10.719 27.034)">
      <g id="Group_1075" data-name="Group 1075">
        <g id="Group_1074" data-name="Group 1074">
          <path id="Path_1154" data-name="Path 1154" class="cls-6" d="M127.821,121.094H115.11a1.3,1.3,0,0,1-1.21-1.21V111.41a1.3,1.3,0,0,1,1.21-1.21h12.71a1.3,1.3,0,0,1,1.21,1.21v8.473A1.163,1.163,0,0,1,127.821,121.094Z" transform="translate(-113.9 -110.2)"/>
        </g>
      </g>
    </g>
    <g id="Group_1079" data-name="Group 1079" transform="translate(15.964 31.675)">
      <g id="Group_1078" data-name="Group 1078">
        <g id="Group_1077" data-name="Group 1077">
          <path id="Path_1155" data-name="Path 1155" class="cls-2" d="M120.737,114.114h-3.43a.868.868,0,0,1-.807-.807h0a.868.868,0,0,1,.807-.807h3.43a.868.868,0,0,1,.807.807h0A.868.868,0,0,1,120.737,114.114Z" transform="translate(-116.5 -112.5)"/>
        </g>
      </g>
    </g>
    <g id="Group_1095" data-name="Group 1095" transform="translate(10.996 36.311)">
      <g id="Group_1082" data-name="Group 1082">
        <g id="Group_1081" data-name="Group 1081">
          <g id="Group_1080" data-name="Group 1080">
            <path id="Path_1156" data-name="Path 1156" class="cls-2" d="M115.374,120.451l4.438-.2h0a.4.4,0,1,0,.807,0v-.2h.4v.2a.4.4,0,1,0,.807,0v-.4l2.824-.2h.605a2.491,2.491,0,1,0-1.816-4.64h0l-8.877,3.228c-.2,0-.2.2-.4.2C113.76,119.442,114.366,120.653,115.374,120.451Z" transform="translate(-114.037 -114.798)"/>
          </g>
        </g>
      </g>
      <g id="_x38_._Right_shoe_2_" transform="translate(0.087 0.687)">
        <g id="Group_1085" data-name="Group 1085" transform="translate(7.985)">
          <g id="Group_1084" data-name="Group 1084">
            <g id="Group_1083" data-name="Group 1083">
              <path id="Path_1157" data-name="Path 1157" class="cls-7" d="M118.163,118.491a2.491,2.491,0,1,1,3.228,1.412A2.259,2.259,0,0,1,118.163,118.491Z" transform="translate(-118.038 -115.138)"/>
            </g>
          </g>
        </g>
        <g id="Group_1088" data-name="Group 1088" transform="translate(0 0.198)">
          <g id="Group_1087" data-name="Group 1087">
            <g id="Group_1086" data-name="Group 1086">
              <path id="Path_1158" data-name="Path 1158" class="cls-7" d="M114.725,118.593l8.877-3.228a1.644,1.644,0,0,1,2.219,1.009h0c.4,1.009-.2,3.43-1.009,3.833l-9.482.605a1.278,1.278,0,0,1-1.009-2.017A.625.625,0,0,1,114.725,118.593Z" transform="translate(-114.08 -115.236)"/>
            </g>
          </g>
        </g>
        <g id="Group_1091" data-name="Group 1091" transform="translate(7.101 4.159)">
          <g id="Group_1090" data-name="Group 1090">
            <g id="Group_1089" data-name="Group 1089">
              <path id="Path_1159" data-name="Path 1159" class="cls-2" d="M118.205,117.2h0a.434.434,0,0,1,.4.4l-.2,1.009a.434.434,0,0,1-.4.4h0a.434.434,0,0,1-.4-.4l.2-1.009A.434.434,0,0,1,118.205,117.2Z" transform="translate(-117.6 -117.2)"/>
            </g>
          </g>
        </g>
        <g id="Group_1094" data-name="Group 1094" transform="translate(5.689 4.159)">
          <g id="Group_1093" data-name="Group 1093">
            <g id="Group_1092" data-name="Group 1092">
              <path id="Path_1160" data-name="Path 1160" class="cls-2" d="M117.505,117.2h0a.434.434,0,0,1,.4.4l-.2,1.009a.434.434,0,0,1-.4.4h0a.434.434,0,0,1-.4-.4l.2-1.009A.434.434,0,0,1,117.505,117.2Z" transform="translate(-116.9 -117.2)"/>
            </g>
          </g>
        </g>
      </g>
    </g>
    <g id="Group_1098" data-name="Group 1098" transform="translate(19.759 35.182)">
      <g id="Group_1097" data-name="Group 1097">
        <g id="Group_1096" data-name="Group 1096">
          <path id="Path_1161" data-name="Path 1161" class="cls-10" d="M130.121,114.363l-10.289,2.824a1.858,1.858,0,0,0-1.412,2.219h0a1.858,1.858,0,0,0,2.219,1.412l10.289-2.825a1.858,1.858,0,0,0,1.412-2.219h0A1.619,1.619,0,0,0,130.121,114.363Z" transform="translate(-118.381 -114.238)"/>
        </g>
      </g>
    </g>
    <g id="Group_1114" data-name="Group 1114" transform="translate(10.594 36.311)">
      <g id="Group_1101" data-name="Group 1101" transform="translate(0.12)">
        <g id="Group_1100" data-name="Group 1100">
          <g id="Group_1099" data-name="Group 1099">
            <path id="Path_1162" data-name="Path 1162" class="cls-2" d="M125.4,120.451l-4.438-.2h0a.4.4,0,1,1-.807,0v-.2h-.4v.2a.4.4,0,1,1-.807,0v-.4l-2.824-.2h-.605a2.491,2.491,0,0,1,1.816-4.64h0l8.877,3.228c.2,0,.2.2.4.2C127.016,119.442,126.41,120.653,125.4,120.451Z" transform="translate(-113.898 -114.798)"/>
          </g>
        </g>
      </g>
      <g id="_x38_._Right_shoe_1_" transform="translate(0 0.687)">
        <g id="Group_1104" data-name="Group 1104">
          <g id="Group_1103" data-name="Group 1103">
            <g id="Group_1102" data-name="Group 1102">
              <path id="Path_1163" data-name="Path 1163" class="cls-7" d="M118.6,118.491a2.491,2.491,0,1,0-3.228,1.412A2.259,2.259,0,0,0,118.6,118.491Z" transform="translate(-113.838 -115.138)"/>
            </g>
          </g>
        </g>
        <g id="Group_1107" data-name="Group 1107" transform="translate(1.005 0.198)">
          <g id="Group_1106" data-name="Group 1106">
            <g id="Group_1105" data-name="Group 1105">
              <path id="Path_1164" data-name="Path 1164" class="cls-7" d="M125.561,118.593l-8.877-3.228a1.644,1.644,0,0,0-2.219,1.009h0c-.4,1.009.2,3.43,1.009,3.833l9.482.605a1.278,1.278,0,0,0,1.009-2.017A.625.625,0,0,0,125.561,118.593Z" transform="translate(-114.336 -115.236)"/>
            </g>
          </g>
        </g>
        <g id="Group_1110" data-name="Group 1110" transform="translate(4.765 4.159)">
          <g id="Group_1109" data-name="Group 1109">
            <g id="Group_1108" data-name="Group 1108">
              <path id="Path_1165" data-name="Path 1165" class="cls-2" d="M116.6,117.2h0a.434.434,0,0,0-.4.4l.2,1.009a.434.434,0,0,0,.4.4h0a.434.434,0,0,0,.4-.4l-.2-1.009A.434.434,0,0,0,116.6,117.2Z" transform="translate(-116.2 -117.2)"/>
            </g>
          </g>
        </g>
        <g id="Group_1113" data-name="Group 1113" transform="translate(6.177 4.159)">
          <g id="Group_1112" data-name="Group 1112">
            <g id="Group_1111" data-name="Group 1111">
              <path id="Path_1166" data-name="Path 1166" class="cls-2" d="M117.3,117.2h0a.434.434,0,0,0-.4.4l.2,1.009a.434.434,0,0,0,.4.4h0a.434.434,0,0,0,.4-.4l-.2-1.009A.434.434,0,0,0,117.3,117.2Z" transform="translate(-116.9 -117.2)"/>
            </g>
          </g>
        </g>
      </g>
    </g>
    <g id="Group_1117" data-name="Group 1117" transform="translate(0.794 35.182)">
      <g id="Group_1116" data-name="Group 1116">
        <g id="Group_1115" data-name="Group 1115">
          <path id="Path_1167" data-name="Path 1167" class="cls-10" d="M111.239,114.363l10.289,2.824a1.858,1.858,0,0,1,1.412,2.219h0a1.858,1.858,0,0,1-2.219,1.412l-10.289-2.825a1.858,1.858,0,0,1-1.412-2.219h0A1.619,1.619,0,0,1,111.239,114.363Z" transform="translate(-108.981 -114.238)"/>
        </g>
      </g>
    </g>
    <g id="Group_1120" data-name="Group 1120" transform="translate(12.534 0.202)">
      <g id="Group_1119" data-name="Group 1119">
        <g id="Group_1118" data-name="Group 1118">
          <path id="Path_1168" data-name="Path 1168" class="cls-7" d="M120.651,96.9c-3.228,0-5.851,3.43-5.851,3.43,4.035,2.421,6.658.605,7.666-.2a1.879,1.879,0,0,0,.807-1.412Z" transform="translate(-114.8 -96.9)"/>
        </g>
      </g>
    </g>
  </g>
  <g id="Group_1165" data-name="Group 1165" transform="translate(64.682 109.869)">
    <g id="Group_1123" data-name="Group 1123" transform="translate(4.114 29.337)">
      <g id="Group_1122" data-name="Group 1122">
        <path id="Path_1169" data-name="Path 1169" class="cls-10" d="M36.521,87.763c.2-.4,4.438-11.9,4.438-18.763H38.337c0,6.456-4.237,17.754-4.237,17.956Z" transform="translate(-34.1 -69)"/>
      </g>
    </g>
    <g id="Group_1125" data-name="Group 1125" transform="translate(13.395 26.109)">
      <g id="Group_1124" data-name="Group 1124">
        <path id="Path_1170" data-name="Path 1170" class="cls-10" d="M42.937,79.908l4.237-7.061a1.512,1.512,0,0,0,.2-1.009c0-.4-.4-.605-.605-.807L39.91,67.4,38.7,69.619l5.649,3.026L40.717,78.7Z" transform="translate(-38.7 -67.4)"/>
      </g>
    </g>
    <g id="Group_1127" data-name="Group 1127" transform="translate(0 0.602)">
      <g id="Group_1126" data-name="Group 1126">
        <path id="Path_1171" data-name="Path 1171" class="cls-4" d="M37.385,57.87a22.3,22.3,0,0,1,2.421-2.623,1.571,1.571,0,0,1,2.421.2c6.859-1.009,8.07,8.675,5.044,11.3-2.623,2.017-4.64.605-4.64.605A9.785,9.785,0,0,1,39,68.764a6.082,6.082,0,0,1-3.026-.605,2.412,2.412,0,0,1-3.43-.605,2.788,2.788,0,0,1,1.816-4.237,1.765,1.765,0,0,1,.605-2.824C35.771,59.686,37.385,57.87,37.385,57.87Z" transform="translate(-32.061 -54.757)"/>
      </g>
    </g>
    <g id="Group_1129" data-name="Group 1129" transform="translate(9.561 13.197)">
      <g id="Group_1128" data-name="Group 1128">
        <path id="Path_1172" data-name="Path 1172" class="cls-10" d="M41.037,63.623a1.028,1.028,0,0,0,.2-1.614A3.24,3.24,0,0,0,39.019,61h-.2a3.082,3.082,0,0,0-2.017.807C37.2,63.017,39.826,64.228,41.037,63.623Z" transform="translate(-36.8 -61)"/>
      </g>
    </g>
    <g id="Group_1131" data-name="Group 1131" transform="translate(10.974 10.776)">
      <g id="Group_1130" data-name="Group 1130">
        <path id="Path_1173" data-name="Path 1173" class="cls-10" d="M38.912,60.405V63.23H37.5V59.8A1.5,1.5,0,0,0,38.912,60.405Z" transform="translate(-37.5 -59.8)"/>
      </g>
    </g>
    <g id="Group_1134" data-name="Group 1134" transform="translate(10.974 10.978)">
      <g id="Group_1133" data-name="Group 1133">
        <g id="Group_1132" data-name="Group 1132">
          <path id="Path_1174" data-name="Path 1174" class="cls-10" d="M38.912,60.3v1.009a2.306,2.306,0,0,1-1.412-.605V59.9A1.921,1.921,0,0,0,38.912,60.3Z" transform="translate(-37.5 -59.9)"/>
        </g>
      </g>
    </g>
    <g id="Group_1136" data-name="Group 1136" transform="translate(6.052 1.899)">
      <g id="Group_1135" data-name="Group 1135">
        <path id="Path_1175" data-name="Path 1175" class="cls-10" d="M42.2,64.882h0a4.273,4.273,0,0,1-3.833,0,5.722,5.722,0,0,1-2.017-1.816l-.807-1.412a4.049,4.049,0,0,1-.2-3.43A4.711,4.711,0,0,1,37.359,55.8h0a3.638,3.638,0,0,1,2.017-.4,4.478,4.478,0,0,1,3.631,2.421l.807,1.412a4.487,4.487,0,0,1-.2,4.237C43.614,64.075,43.008,64.479,42.2,64.882Z" transform="translate(-35.061 -55.4)"/>
      </g>
    </g>
    <g id="Group_1138" data-name="Group 1138" transform="translate(4.573 0.713)">
      <g id="Group_1137" data-name="Group 1137">
        <path id="Path_1176" data-name="Path 1176" class="cls-4" d="M38.307,61.042c3.026.4,3.43-2.824,3.228-4.237-.4-2.824-4.035-2.219-5.447-.807a7.312,7.312,0,0,0-1.614,6.254c.605,3.026,3.631,4.842,3.631,4.842,3.228-2.421-.2-4.64-.2-4.64Z" transform="translate(-34.327 -54.812)"/>
      </g>
    </g>
    <g id="Group_1140" data-name="Group 1140" transform="translate(7.265 22.942)">
      <g id="Group_1139" data-name="Group 1139">
        <path id="Path_1177" data-name="Path 1177" class="cls-8" d="M43.607,69a4.037,4.037,0,1,1-4.842-3.026A3.866,3.866,0,0,1,43.607,69Z" transform="translate(-35.662 -65.83)"/>
      </g>
    </g>
    <g id="Group_1142" data-name="Group 1142" transform="translate(12.991 8.154)">
      <g id="Group_1141" data-name="Group 1141">
        <path id="Path_1178" data-name="Path 1178" class="cls-11" d="M38.5,59.509a1.337,1.337,0,0,0,1.412.4,1.231,1.231,0,0,0,.605-1.412Z" transform="translate(-38.5 -58.5)"/>
      </g>
    </g>
    <g id="Group_1144" data-name="Group 1144" transform="translate(6.055 24.8)">
      <g id="Group_1143" data-name="Group 1143">
        <path id="Path_1179" data-name="Path 1179" class="cls-8" d="M47.244,70.078a41.561,41.561,0,0,1-11.9,6.859s-1.21-6.859,1.412-9.684c1.21-1.412,7.666.605,7.666.605Z" transform="translate(-35.062 -66.751)"/>
      </g>
    </g>
    <g id="Group_1146" data-name="Group 1146" transform="translate(13.193 14.811)">
      <g id="Group_1145" data-name="Group 1145">
        <path id="Path_1180" data-name="Path 1180" class="cls-8" d="M41.424,63.414a1.293,1.293,0,0,1-1.21,1.614c-.807,0-1.614-.4-1.614-1.21S39.81,61.195,40.214,62C40.416,62.607,41.223,62.809,41.424,63.414Z" transform="translate(-38.6 -61.8)"/>
      </g>
    </g>
    <g id="Group_1148" data-name="Group 1148" transform="translate(7.491 14.19)">
      <g id="Group_1147" data-name="Group 1147">
        <path id="Path_1181" data-name="Path 1181" class="cls-8" d="M37.844,61.508a2.179,2.179,0,0,0-.605,1.412s.4,6.658-1.412,9.684c-.807,1.412,7.868,1.21,7.868,1.21l-.2-9.886a3.341,3.341,0,0,0-1.009-2.421C42.283,63.122,39.256,61.306,37.844,61.508Z" transform="translate(-35.774 -61.492)"/>
      </g>
    </g>
    <g id="Group_1150" data-name="Group 1150" transform="translate(10.772 2.303)">
      <g id="Group_1149" data-name="Group 1149">
        <path id="Path_1182" data-name="Path 1182" class="cls-8" d="M37.6,69.924c1.614,0,11.7-.4,17.552-13.114L52.733,55.6C47.487,67.3,37.8,67.3,37.4,67.3l.2,2.623Z" transform="translate(-37.4 -55.6)"/>
      </g>
    </g>
    <g id="Group_1152" data-name="Group 1152" transform="translate(25.013)">
      <g id="Group_1151" data-name="Group 1151">
        <path id="Path_1183" data-name="Path 1183" class="cls-10" d="M45.55,54.744a1.772,1.772,0,0,1,1.412-.2l1.816,2.824a2.689,2.689,0,0,1-1.009,1.21,2.108,2.108,0,0,1-3.026-.807A2.327,2.327,0,0,1,45.55,54.744Z" transform="translate(-44.459 -54.459)"/>
      </g>
    </g>
    <g id="Group_1157" data-name="Group 1157" transform="translate(13.871 37.279)">
      <g id="Group_1154" data-name="Group 1154">
        <g id="Group_1153" data-name="Group 1153">
          <path id="Path_1184" data-name="Path 1184" class="cls-4" d="M42.091,75.082a1.595,1.595,0,1,1-1.009-2.017A1.443,1.443,0,0,1,42.091,75.082Z" transform="translate(-38.936 -72.936)"/>
        </g>
      </g>
      <g id="Group_1156" data-name="Group 1156" transform="translate(0.278 0.106)">
        <g id="Group_1155" data-name="Group 1155">
          <path id="Path_1185" data-name="Path 1185" class="cls-4" d="M45.986,77.853l-6.052-1.816a1.147,1.147,0,0,1-.807-1.412h0c.2-.605,1.412-1.816,2.017-1.614l5.245,3.43a.783.783,0,0,1-.2,1.412Z" transform="translate(-39.074 -72.989)"/>
        </g>
      </g>
    </g>
    <g id="Group_1162" data-name="Group 1162" transform="translate(3.47 46.85)">
      <g id="Group_1159" data-name="Group 1159">
        <g id="Group_1158" data-name="Group 1158">
          <path id="Path_1186" data-name="Path 1186" class="cls-4" d="M37.048,78.93a1.664,1.664,0,1,1-2.017-1.21A1.789,1.789,0,0,1,37.048,78.93Z" transform="translate(-33.781 -77.681)"/>
        </g>
      </g>
      <g id="Group_1161" data-name="Group 1161" transform="translate(0.605 0.039)">
        <g id="Group_1160" data-name="Group 1160">
          <path id="Path_1187" data-name="Path 1187" class="cls-4" d="M41.585,79.314l-6.052,1.614a1.147,1.147,0,0,1-1.412-.807h0A2.715,2.715,0,0,1,35.129,77.7l6.254.2a.892.892,0,0,1,.605,1.412Z" transform="translate(-34.08 -77.7)"/>
        </g>
      </g>
    </g>
    <g id="Group_1164" data-name="Group 1164" transform="translate(8.149 24.495)">
      <g id="Group_1163" data-name="Group 1163">
        <path id="Path_1188" data-name="Path 1188" class="cls-8" d="M40.538,68.012a6.863,6.863,0,0,0,2.017-.2v-.4A9.738,9.738,0,0,1,36.3,66.6l-.2.4A12.375,12.375,0,0,0,40.538,68.012Z" transform="translate(-36.1 -66.6)"/>
      </g>
    </g>
  </g>
  <g id="Group_1223" data-name="Group 1223" transform="translate(67.182 173.171)">
    <g id="Group_1167" data-name="Group 1167" transform="translate(14.929 2.148)">
      <g id="Group_1166" data-name="Group 1166">
        <path id="Path_1189" data-name="Path 1189" class="cls-3" d="M43.121,94.566c-1.21,0-2.421-1.614-2.421-3.833,0-2.017,1.009-3.833,2.421-3.833,1.21,0,2.421,1.614,2.421,3.833C45.542,92.751,44.533,94.566,43.121,94.566Z" transform="translate(-40.7 -86.9)"/>
      </g>
    </g>
    <g id="Group_1169" data-name="Group 1169" transform="translate(16.137)">
      <g id="Group_1168" data-name="Group 1168">
        <path id="Path_1190" data-name="Path 1190" class="cls-3" d="M54.012,97.466c-1.614-.807-3.228-3.026-2.623-5.044,1.412-4.438-2.017-6.052-3.833-6.456a5.589,5.589,0,0,0-4.237.807c-1.614,1.211-1.009,3.43-.2,5.245a1.861,1.861,0,0,0-.807,2.623c1.21,1.816.2,4.438-.605,6.052-1.21,2.421.4,5.447,3.228,6.859a10.965,10.965,0,0,0,9.079,0,6.391,6.391,0,0,0,3.228-2.824C58.854,102.308,57.038,99.08,54.012,97.466Z" transform="translate(-41.298 -85.835)"/>
      </g>
    </g>
    <g id="Group_1171" data-name="Group 1171" transform="translate(6.859 16.069)">
      <g id="Group_1170" data-name="Group 1170">
        <path id="Path_1191" data-name="Path 1191" class="cls-10" d="M39.726,106.51c-.605,0-1.412.2-2.017.2a1.009,1.009,0,1,1,0-2.017c3.43,0,5.851-1.009,7.465-3.026a10.121,10.121,0,0,0,2.017-6.859.913.913,0,1,1,1.816-.2,12,12,0,0,1-2.421,8.473A11.183,11.183,0,0,1,39.726,106.51Z" transform="translate(-36.7 -93.8)"/>
      </g>
    </g>
    <g id="Group_1172" data-name="Group 1172" transform="translate(10.087 15.425)">
      <path id="Path_1192" data-name="Path 1192" class="cls-7" d="M46.168,93.519c-.807.2-1.614,1.009-1.412,1.816,0,0,.4,3.833-1.816,6.254a7.905,7.905,0,0,1-4.64,2.421,4.049,4.049,0,0,1,.2,3.43,10.466,10.466,0,0,0,7.061-3.631,12.561,12.561,0,0,0,2.623-8.877A1.663,1.663,0,0,0,46.168,93.519Z" transform="translate(-38.3 -93.481)"/>
    </g>
    <g id="Group_1174" data-name="Group 1174" transform="translate(17.587 14.455)">
      <g id="Group_1173" data-name="Group 1173">
        <path id="Path_1193" data-name="Path 1193" class="cls-10" d="M42.588,95.623a1.207,1.207,0,0,1-.4-1.614A3.341,3.341,0,0,1,44.605,93h.2a3.24,3.24,0,0,1,2.219,1.009C46.825,95.017,44,96.026,42.588,95.623Z" transform="translate(-42.017 -93)"/>
      </g>
    </g>
    <g id="Group_1176" data-name="Group 1176" transform="translate(19.771 11.63)">
      <g id="Group_1175" data-name="Group 1175">
        <path id="Path_1194" data-name="Path 1194" class="cls-10" d="M43.1,92.205v3.026h1.614V91.6A1.352,1.352,0,0,1,43.1,92.205Z" transform="translate(-43.1 -91.6)"/>
      </g>
    </g>
    <g id="Group_1179" data-name="Group 1179" transform="translate(19.771 12.034)">
      <g id="Group_1178" data-name="Group 1178">
        <g id="Group_1177" data-name="Group 1177">
          <path id="Path_1195" data-name="Path 1195" class="cls-10" d="M43.1,92.405v1.009a2.491,2.491,0,0,0,1.614-.807V91.8A2.291,2.291,0,0,1,43.1,92.405Z" transform="translate(-43.1 -91.8)"/>
        </g>
      </g>
    </g>
    <g id="Group_1181" data-name="Group 1181" transform="translate(15.509 2.35)">
      <g id="Group_1180" data-name="Group 1180">
        <path id="Path_1196" data-name="Path 1196" class="cls-10" d="M45.653,97.894h0a4.9,4.9,0,0,0,3.631-1.816,4.632,4.632,0,0,0,.807-2.824V91.438a4.761,4.761,0,0,0-1.412-3.228A4.582,4.582,0,0,0,45.451,87h0a4.468,4.468,0,0,0-4.438,4.64v1.816a4.775,4.775,0,0,0,2.219,3.833A10.642,10.642,0,0,0,45.653,97.894Z" transform="translate(-40.987 -87)"/>
      </g>
    </g>
    <g id="Group_1183" data-name="Group 1183" transform="translate(16.617 24.616)">
      <g id="Group_1182" data-name="Group 1182">
        <path id="Path_1197" data-name="Path 1197" class="cls-4" d="M41.665,101.393a4.355,4.355,0,1,0,5.245-3.228A4.4,4.4,0,0,0,41.665,101.393Z" transform="translate(-41.536 -98.036)"/>
      </g>
    </g>
    <g id="Group_1185" data-name="Group 1185" transform="translate(17.552 10.823)">
      <g id="Group_1184" data-name="Group 1184">
        <path id="Path_1198" data-name="Path 1198" class="cls-11" d="M44.421,91.2a1.13,1.13,0,0,1-1.21,1.009A1.279,1.279,0,0,1,42,91.2Z" transform="translate(-42 -91.2)"/>
      </g>
    </g>
    <g id="Group_1187" data-name="Group 1187" transform="translate(15.907 15.882)">
      <g id="Group_1186" data-name="Group 1186">
        <path id="Path_1199" data-name="Path 1199" class="cls-7" d="M41.216,95.508c-.2.807.605,1.614,1.412,1.816a1.938,1.938,0,0,0,1.816-1.412c0-.807-1.21-2.824-1.614-2.017C42.225,94.5,41.418,94.9,41.216,95.508Z" transform="translate(-41.184 -93.707)"/>
      </g>
    </g>
    <g id="Group_1189" data-name="Group 1189" transform="translate(16.745 15.246)">
      <g id="Group_1188" data-name="Group 1188">
        <path id="Path_1200" data-name="Path 1200" class="cls-7" d="M47.652,93.408a2.291,2.291,0,0,1,.605,1.614s-.4,7.061,1.614,10.491l-8.272.605.2-9.886A3.835,3.835,0,0,1,42.81,93.61C42.81,95.022,46.038,93.206,47.652,93.408Z" transform="translate(-41.6 -93.392)"/>
      </g>
    </g>
    <g id="Group_1196" data-name="Group 1196" transform="translate(13.486 46.936)">
      <g id="Group_1192" data-name="Group 1192">
        <g id="Group_1191" data-name="Group 1191">
          <g id="Group_1190" data-name="Group 1190">
            <path id="Path_1201" data-name="Path 1201" class="cls-3" d="M43.647,109.1a1.3,1.3,0,0,0-1.21,1.009c-.4,1.21-.2,2.219-1.009,4.237-.4,1.21-1.009,1.614-1.412,2.623-.2.807.605,1.21,1.412.807.4-.2,2.421-.605,2.421-2.219a7.435,7.435,0,0,1,.2-3.026c.4-1.009.605-.4.807-.2,0,.2.4.807.4,1.009,0,0,.2.2.2,0h0s.2-.2,0-.2a3.742,3.742,0,0,1-.4-2.017A1.719,1.719,0,0,0,43.647,109.1Z" transform="translate(-39.984 -109.1)"/>
          </g>
        </g>
      </g>
      <g id="Group_1195" data-name="Group 1195" transform="translate(0.838 0.577)">
        <g id="Group_1194" data-name="Group 1194">
          <g id="Group_1193" data-name="Group 1193">
            <path id="Path_1202" data-name="Path 1202" class="cls-10" d="M42.417,114.458c.4-1.009,1.009-3.833.605-4.438-.2-.807-1.816-.807-2.017-.2-.2,1.211.4,3.228-.605,5.447C40.6,115.668,42.014,115.467,42.417,114.458Z" transform="translate(-40.4 -109.386)"/>
          </g>
        </g>
      </g>
    </g>
    <g id="Group_1198" data-name="Group 1198" transform="translate(9.324 29.431)">
      <g id="Group_1197" data-name="Group 1197">
        <path id="Path_1203" data-name="Path 1203" class="cls-4" d="M50.992,104.008,40.7,108.85l1.009-2.219,3.833,12.307a1.443,1.443,0,0,1-1.009,1.816,1.629,1.629,0,0,1-1.816-.807l-4.64-12.307a1.7,1.7,0,0,1,.807-2.219h0l10.087-4.842a2.072,2.072,0,0,1,2.623,1.009c.807.807.4,1.816-.605,2.421Z" transform="translate(-37.922 -100.423)"/>
      </g>
    </g>
    <g id="Group_1205" data-name="Group 1205" transform="translate(3.184 42.892)">
      <g id="Group_1201" data-name="Group 1201" transform="translate(0 0.073)">
        <g id="Group_1200" data-name="Group 1200">
          <g id="Group_1199" data-name="Group 1199">
            <path id="Path_1204" data-name="Path 1204" class="cls-3" d="M41.983,107.27c-.605-.4-1.412.2-1.614.2-.807.807-1.21,2.018-2.824,3.228a12.523,12.523,0,0,1-2.421,1.614c-.605.605,0,1.21.807,1.412.4,0,2.421.605,3.228-.807a11.438,11.438,0,0,1,1.614-2.623c.807-.807.807,0,.807.2v1.21a.2.2,0,0,0,.2.2h0a.2.2,0,0,0,.2-.2,8.643,8.643,0,0,1,.605-2.017A2.04,2.04,0,0,0,41.983,107.27Z" transform="translate(-34.878 -107.131)"/>
          </g>
        </g>
      </g>
      <g id="Group_1204" data-name="Group 1204" transform="translate(1.838)">
        <g id="Group_1203" data-name="Group 1203">
          <g id="Group_1202" data-name="Group 1202">
            <path id="Path_1205" data-name="Path 1205" class="cls-10" d="M37.829,111.947c.807-.605,2.623-3.026,2.623-3.631,0-.807-1.21-1.614-1.614-1.009-.605,1.009-1.21,3.026-3.026,4.438C35.609,112.149,36.82,112.552,37.829,111.947Z" transform="translate(-35.789 -107.095)"/>
          </g>
        </g>
      </g>
    </g>
    <g id="Group_1207" data-name="Group 1207" transform="translate(7.061 28.981)">
      <g id="Group_1206" data-name="Group 1206">
        <path id="Path_1206" data-name="Path 1206" class="cls-4" d="M51.326,104.437l-11.3-.605,2.017-1.614-2.421,12.71a1.427,1.427,0,1,1-2.824-.4l1.412-12.71a1.913,1.913,0,0,1,1.816-1.614h0l11.3.4a1.99,1.99,0,0,1,1.816,2.017,1.693,1.693,0,0,1-1.816,1.816Z" transform="translate(-36.8 -100.2)"/>
      </g>
    </g>
    <g id="Group_1209" data-name="Group 1209" transform="translate(19.771 15.968)">
      <g id="Group_1208" data-name="Group 1208">
        <path id="Path_1207" data-name="Path 1207" class="cls-10" d="M45.723,106.763c-.4,0-1.009.2-1.614.2a.913.913,0,1,1-.2-1.816c1.816-.2,4.035-.605,4.64-2.017,1.009-2.219-2.219-6.456-3.43-7.666a1,1,0,0,1,1.412-1.412c.605.605,5.245,5.851,3.833,9.684C49.758,105.351,48.144,106.359,45.723,106.763Z" transform="translate(-43.1 -93.75)"/>
      </g>
    </g>
    <g id="Group_1210" data-name="Group 1210" transform="translate(21.003 15.06)">
      <path id="Path_1208" data-name="Path 1208" class="cls-7" d="M46.514,93.905A2.179,2.179,0,0,0,45.1,93.3a1.109,1.109,0,0,0-1.009.605,1.817,1.817,0,0,0,0,2.219c1.412,1.412,3.833,5.044,3.228,6.859a2.785,2.785,0,0,1-.605.807,1.629,1.629,0,0,0-.807,1.816h0a1.808,1.808,0,0,0,2.421,1.21,5.134,5.134,0,0,0,2.219-2.421C52.163,100.361,47.522,94.914,46.514,93.905Z" transform="translate(-43.711 -93.3)"/>
    </g>
    <g id="Group_1212" data-name="Group 1212" transform="translate(16.719 25.349)">
      <g id="Group_1211" data-name="Group 1211">
        <path id="Path_1209" data-name="Path 1209" class="cls-10" d="M41.613,101.023a1.832,1.832,0,0,0,.605,1.412l3.43-.2a2.174,2.174,0,0,0,.4-1.614A2.579,2.579,0,0,0,43.631,98.4,2.429,2.429,0,0,0,41.613,101.023Z" transform="translate(-41.587 -98.4)"/>
      </g>
    </g>
    <g id="Group_1214" data-name="Group 1214" transform="translate(4.64 25.753)">
      <g id="Group_1213" data-name="Group 1213">
        <path id="Path_1210" data-name="Path 1210" class="cls-10" d="M35.6,101.223a1.832,1.832,0,0,0,.605,1.412l3.631-.2a1.569,1.569,0,0,0,.4-1.614A2.422,2.422,0,0,0,37.819,98.6,2.99,2.99,0,0,0,35.6,101.223Z" transform="translate(-35.6 -98.6)"/>
      </g>
    </g>
    <g id="Group_1216" data-name="Group 1216" transform="translate(17.009 1.383)">
      <g id="Group_1215" data-name="Group 1215">
        <path id="Path_1211" data-name="Path 1211" class="cls-3" d="M50.142,90.917c-.605,1.412-2.824,2.017-5.044,1.21-2.421-.807-3.833-2.623-3.228-4.035s2.824-2.018,5.044-1.21C49.335,87.689,50.747,89.505,50.142,90.917Z" transform="translate(-41.731 -86.521)"/>
      </g>
    </g>
    <g id="Group_1222" data-name="Group 1222" transform="translate(0 17.078)">
      <g id="Group_1217" data-name="Group 1217" transform="translate(0.605 11.701)">
        <path id="Path_1212" data-name="Path 1212" class="cls-4" d="M55.994,100.705a.535.535,0,0,0-.605-.605H34.407c-.4,0-.807.2-.807.605s.4.605.807.605H55.389a.644.644,0,0,0,.605-.605Z" transform="translate(-33.6 -100.1)"/>
      </g>
      <g id="Group_1218" data-name="Group 1218" transform="translate(14.526 11.701)">
        <path id="Path_1213" data-name="Path 1213" class="cls-2" d="M49.78,100.705a.535.535,0,0,1-.605.605h-8.07a.605.605,0,0,1,0-1.211h8.07A.535.535,0,0,1,49.78,100.705Z" transform="translate(-40.5 -100.1)"/>
      </g>
      <g id="Group_1219" data-name="Group 1219" transform="translate(0.605)">
        <path id="Path_1214" data-name="Path 1214" class="cls-2" d="M33.6,95.107V105.8a.868.868,0,0,0,.807.807H48.529a.868.868,0,0,0,.807-.807V95.107a.868.868,0,0,0-.807-.807H34.609A.923.923,0,0,0,33.6,95.107Z" transform="translate(-33.6 -94.3)"/>
      </g>
      <g id="Group_1220" data-name="Group 1220">
        <path id="Path_1215" data-name="Path 1215" class="cls-3" d="M33.3,95.107V105.8a.868.868,0,0,0,.807.807H48.028a.868.868,0,0,0,.807-.807V95.107a.868.868,0,0,0-.807-.807H34.107A.868.868,0,0,0,33.3,95.107Z" transform="translate(-33.3 -94.3)"/>
      </g>
      <g id="Group_1221" data-name="Group 1221" transform="translate(5.649 5.245)">
        <path id="Path_1216" data-name="Path 1216" class="cls-2" d="M40.538,97.707h0a.868.868,0,0,0-.807-.807H36.907a.868.868,0,0,0-.807.807h0a.868.868,0,0,0,.807.807h2.824C40.135,98.716,40.538,98.312,40.538,97.707Z" transform="translate(-36.1 -96.9)"/>
      </g>
    </g>
  </g>
</svg>
