<svg xmlns="http://www.w3.org/2000/svg" viewBox="0 0 146 253.943">
  <defs>
    <style>
      .cls-1 {
        fill: #5e3417;
      }

      .cls-2 {
        fill: #f8b887;
      }

      .cls-3 {
        fill: #27597c;
      }

      .cls-4 {
        fill: #5eb4e4;
      }

      .cls-5 {
        fill: #78caef;
      }

      .cls-6 {
        fill: #404041;
      }

      .cls-7 {
        fill: #29b473;
      }

      .cls-8 {
        fill: #58595b;
      }

      .cls-9 {
        fill: #4787ab;
        opacity: 0.5;
      }

      .cls-10 {
        fill: #7a441c;
      }

      .cls-11 {
        fill: #f48837;
      }

      .cls-12 {
        fill: #f6a05f;
      }

      .cls-13 {
        fill: #3d220e;
      }

      .cls-14 {
        fill: #fff;
      }
    </style>
  </defs>
  <g id="people" transform="translate(0 0)">
    <path id="Path_483" data-name="Path 483" class="cls-1" d="M43.408,41.583s-2.859,5.3-.178,18.742c-5.9-1.922-16.621-9.371-16.621-9.371L29.824,38.94Z" transform="translate(-1.749 -2.948)"/>
    <path id="Path_484" data-name="Path 484" class="cls-2" d="M47.377,19.084a14.254,14.254,0,0,0-28.16,4.427s.076.48.272,1.284a.288.288,0,0,0,.047.185c.719,2.985,2.5,10.23,7.474,14.786,3.821,3.521,12.725,3.7,12.725,3.7l6.708-5.545S47.638,20.747,47.377,19.084Z" transform="translate(-1.251 -0.54)"/>
    <path id="Path_485" data-name="Path 485" class="cls-2" d="M24.975,37.91,21.64,49.933,29.5,53.7l6.232-5.979-2.541-.194.215-7.107Z" transform="translate(-1.422 -2.87)"/>
    <path id="Path_486" data-name="Path 486" class="cls-3" d="M15.348,245.039,7.5,244.845l4.391-68.664L9.985,120.723l19.657-1.063-3.457,57.094-.019.277Z" transform="translate(-0.493 -9.071)"/>
    <path id="Path_487" data-name="Path 487" class="cls-3" d="M49.236,245.4l-9.3-.36L34.7,178.233,28.14,119.66l19.424.425.953,57.445Z" transform="translate(-1.849 -9.071)"/>
    <path id="Path_488" data-name="Path 488" class="cls-4" d="M146.2,56.112a7.688,7.688,0,0,0-9.081-5.915l-4.97,1.017,8.866,42.511L129.27,113.769l10.277,7.707,14.948-25.6Z" transform="translate(-8.496 -3.79)"/>
    <path id="Path_489" data-name="Path 489" class="cls-5" d="M142.655,120.874l-3.363,3.438,1.953-4.5-8.25-6.2-4.485,7.67,11.053,6.321,4.26-5.767Z" transform="translate(-8.446 -8.612)"/>
    <path id="Path_490" data-name="Path 490" class="cls-6" d="M146.654,268.98s-1.037,4.334-8.782,2.135V269.83l-3.737.379s-11.062-3.641-13.547-5.7a5.826,5.826,0,0,1-.234-2.939,46.013,46.013,0,0,1,5.942-2.218L146.177,261Z" transform="translate(-7.904 -19.666)"/>
    <path id="Path_491" data-name="Path 491" class="cls-6" d="M116.335,270.6s-1.205,4.38-9.941,3v-1.266l-4.214.758S89.7,270.627,86.9,268.843a5,5,0,0,1-.252-2.874,64.955,64.955,0,0,1,6.736-2.772l22.535-.407Z" transform="translate(-5.688 -19.927)"/>
    <path id="Path_492" data-name="Path 492" class="cls-2" d="M48.792,127.515,37.581,89.107,35.6,48.5l3.532.055a6.412,6.412,0,0,1,6.3,5.6L45.877,88.7l4.279,28.344.075,6.192Z" transform="translate(-2.34 -3.673)"/>
    <path id="Path_493" data-name="Path 493" class="cls-7" d="M43.735,66.2,34.673,48.4l-2.261-.129s.832,1.349.374,1.58c-6.83,3.576-10.912.323-17.116-2.615a5.3,5.3,0,0,0-4.124,1.649,5.176,5.176,0,0,0-1.379,4.183l2.588,21.32c2.8,18.16-2.149,36.966-6.615,55.163,8.409,6.469,37.147,5.24,42.183.527C40.634,86.414,34.972,82.135,43.735,66.2Z" transform="translate(-0.404 -3.577)"/>
    <path id="Path_494" data-name="Path 494" class="cls-8" d="M117.222,256.563c-2.709,3.475-14.892,3.318-17.63-1.784a11.973,11.973,0,0,0-1.112-4.417l1.42-3.844,1.56-46.845-1.467-3.983,1.775-3.567,1.523-61.142,15.528.111-1.756,115.242-.794,1.895,1.756,2.292C116.8,253.356,116.717,254.631,117.222,256.563Z" transform="translate(-6.472 -9.929)"/>
    <path id="Path_495" data-name="Path 495" class="cls-8" d="M129.686,253.172l-1.439-3.623.878-3.475-.551-2.772-5.083-44.452L119.4,131.72l15.472.314,4.363,65.559,5.606,43.269,1.439,4.621-.4,3.235,1.018,5.656C145.242,256.48,131.041,256.249,129.686,253.172Z" transform="translate(-7.847 -9.986)"/>
    <path id="Path_496" data-name="Path 496" class="cls-2" d="M22.993,97.132,2.728,90.285c-1.2-.749-3.2-2.809-2.625-4.87L9.679,51.221a5.314,5.314,0,0,1,2.528-3.2,5.415,5.415,0,0,1,4.077-.494h0a5.354,5.354,0,0,1,3.238,2.5,5.254,5.254,0,0,1,.5,4.033L7.2,84.139,23.8,93.815Z" transform="translate(0 -3.585)"/>
    <path id="Path_497" data-name="Path 497" class="cls-2" d="M138.432,21.885A16.727,16.727,0,0,0,121.615,5.25c-9.287,0-15.705,6.229-15.705,15.415,0,.333,2.074,19.407,2.074,19.407A55.89,55.89,0,0,0,119.1,40.6c7.474-.213,13.659-4.473,17.527-11.09a18.639,18.639,0,0,0,1.8-7.624Z" transform="translate(-6.961 -0.393)"/>
    <path id="Path_498" data-name="Path 498" class="cls-2" d="M116.944,39.761l-.794,10.582,14.519,1.1.962-14.833Z" transform="translate(-7.633 -2.772)"/>
    <path id="Path_499" data-name="Path 499" class="cls-5" d="M114.1,49.05l.308-2.772s2.4-2.384,11.744-1.562c6.166.536,6.83,2.689,6.83,2.689l.327,3.013Z" transform="translate(-7.499 -3.373)"/>
    <path id="Path_500" data-name="Path 500" class="cls-4" d="M144.269,58.481c-5.5,23.039-8.792,45.653-8.147,69.857-4.148,6.1-27.337,6.312-34.886-.213-.112-7.005-.065-14.315.084-21.708.131-6.293.336-12.661.579-18.964.271-7.061.6-14.047.934-20.766.1-.286.747-2.19,1.588-4.676,1.532-4.5,3.737-10.9,4.382-12.938l.224-.656a125.839,125.839,0,0,1,28.963,1.4,7.57,7.57,0,0,1,4.972,3.029A7.413,7.413,0,0,1,144.269,58.481Z" transform="translate(-6.649 -3.646)"/>
    <path id="Path_501" data-name="Path 501" class="cls-2" d="M106.257,25.32l-1.037,5.6,2.709,1.026-.953-6.866Z" transform="translate(-6.915 -1.897)"/>
    <path id="Path_502" data-name="Path 502" class="cls-1" d="M113.926,15.71s-5.69-4.621-12.146-3.262A25.9,25.9,0,0,1,121.269,0C124.623-.268,138.5,9.675,138.5,9.675l3.354,17.679s-11.7,6.839-9.2,11.894a6.133,6.133,0,0,1-5.213-3.364c-.785,1.211-.336,2.9.215,4.621a6.7,6.7,0,0,1-3.186-4.528,4.753,4.753,0,0,0-1.28,4.1C118.719,36.356,114.729,30.672,113.926,15.71Z" transform="translate(-6.689 0.006)"/>
    <path id="Path_503" data-name="Path 503" class="cls-2" d="M119.491,26.518a2.981,2.981,0,1,1-2.98-2.948A2.964,2.964,0,0,1,119.491,26.518Z" transform="translate(-7.461 -1.782)"/>
    <path id="Path_504" data-name="Path 504" class="cls-9" d="M101.29,109.036c.14-6.3.374-14.962.617-21.255l3.055-35.45,4.073,8.6,1.327,39.572C110.231,105.349,101.29,109.036,101.29,109.036Z" transform="translate(-6.657 -3.964)"/>
    <path id="Path_505" data-name="Path 505" class="cls-10" d="M70.339,94.38l-.2,3.345-.28,4.371h-6.9L62.6,97.725l-.234-3.281a10.382,10.382,0,0,0,3.952.508C68.34,94.953,70.022,94.713,70.339,94.38Z" transform="translate(-4.099 -7.153)"/>
    <path id="Path_506" data-name="Path 506" class="cls-11" d="M70.433,93.059v1.155c-.318.333-2,.573-4.017.573a10.382,10.382,0,0,1-3.952-.508l-.093-1.22c0-.24,1.411-.859,4.092-.859C69.807,92.2,70.377,93.032,70.433,93.059Z" transform="translate(-4.099 -6.988)"/>
    <path id="Path_507" data-name="Path 507" class="cls-12" d="M70.43,93.033c0,.453-1.869.813-4.055.813s-4.055-.36-4.055-.813,1.813-.813,4.055-.813S70.43,92.58,70.43,93.033Z" transform="translate(-4.096 -6.99)"/>
    <path id="Path_508" data-name="Path 508" class="cls-11" d="M69.693,92.95c0,.342-1.485.61-3.317.61s-3.317-.268-3.317-.61,1.486-.61,3.317-.61S69.693,92.654,69.693,92.95Z" transform="translate(-4.144 -6.999)"/>
    <path id="Path_509" data-name="Path 509" class="cls-13" d="M69.458,93.1c0,.083-.159.157-.364.157s-.374-.074-.374-.157.168-.157.374-.157S69.458,93,69.458,93.1Z" transform="translate(-4.516 -7.044)"/>
    <path id="Path_510" data-name="Path 510" class="cls-11" d="M70.16,98l-.28,4.371h-6.9L62.62,98C63.321,99.266,69.076,99.054,70.16,98Z" transform="translate(-4.116 -7.428)"/>
    <path id="Path_511" data-name="Path 511" class="cls-2" d="M73.76,99.12l-3.8.268s-.934.989-4.41.989c-3.261,0-2.943-.924-2.943-.924l-.467.2a1.754,1.754,0,0,0-1.028,1.627l.523,5.231a2.139,2.139,0,0,0,1.373,1.737c1.616.749,5.073.924,8.6-.268,1.037-.148,2.27.12,3.345-.083C81.561,104.073,73.76,99.12,73.76,99.12Z" transform="translate(-4.016 -7.513)"/>
    <path id="Path_512" data-name="Path 512" class="cls-4" d="M99.651,101.64l-25.179,2.865c-2.551-.73-3.485-8.151-1.355-9.62l21.031-4.713-.476-1.257,1.3-.795L96.287,58.5c.056-5.757,5.606-10.415,11.408-9.944l-1.981,46.466a7.044,7.044,0,0,1-6.063,6.617Z" transform="translate(-4.728 -3.675)"/>
    <path id="Path_513" data-name="Path 513" class="cls-5" d="M76.38,97.28l-3.4,1.063s-1.756,1.525-.934,5.785,2.5,4.26,2.5,4.26l3.616-.259s-1.28-.36-2.074-2.523a17.721,17.721,0,0,1-2.289.416l2.13-1.211S74.268,100.043,76.38,97.28Z" transform="translate(-4.72 -7.373)"/>
    <path id="Path_514" data-name="Path 514" class="cls-9" d="M140.957,90.493,140.91,59.83l3.2,30.876-2.326,3.724Z" transform="translate(-9.261 -4.533)"/>
    <path id="Path_515" data-name="Path 515" class="cls-1" d="M44.236,16.178S48.58,19.117,47.973,26.2c2.5-6.839,3.457-12.495-1.784-16.265A18.05,18.05,0,0,0,31.651,6.512C27.372,7.334,44.236,16.178,44.236,16.178Z" transform="translate(-2.035 -0.463)"/>
    <path id="Path_516" data-name="Path 516" class="cls-1" d="M41.122,15.188s-1.28,13.188-10.95,18.6-7.979,7.957-4.8,13.123c8.119,14.167-2.3,21.182,4.139,31.865-11.744-8.687.047-18.64-11.931-32.3a4.411,4.411,0,0,0-6.848.573c1.719-7.393,5.26-13.816,4.774-21.108S17.924,6.649,29,6.169,41.122,15.188,41.122,15.188Z" transform="translate(-0.705 -0.461)"/>
    <path id="Path_517" data-name="Path 517" class="cls-14" d="M38.76,106.036l-6.082-.185L31.36,94.53l9.4.3Z" transform="translate(-2.061 -7.165)"/>
    <path id="Path_518" data-name="Path 518" class="cls-14" d="M31.419,104.356h-.131a4.276,4.276,0,0,1-3.868-2.73,4.2,4.2,0,0,1,1.065-4.58,4.312,4.312,0,0,1,6.045.185,4.209,4.209,0,0,1-.178,5.979,4.314,4.314,0,0,1-2.934,1.146Zm0-6.6a2.375,2.375,0,1,0,2.392,2.44h0a2.379,2.379,0,0,0-2.317-2.431Z" transform="translate(-1.784 -7.269)"/>
    <path id="Path_519" data-name="Path 519" class="cls-2" d="M25.335,97.62l5.26.277.14,4.639-4.615-.018-2.14-1.987Z" transform="translate(-1.576 -7.399)"/>
    <path id="Path_520" data-name="Path 520" class="cls-2" d="M13.809,262.124a16.749,16.749,0,0,0,3.625-1.691,14.323,14.323,0,0,1-.934-2.357l-.794-5.6L7.8,251.45l-.262.924C8.026,253.649,10.829,260.507,13.809,262.124Z" transform="translate(-0.496 -19.067)"/>
    <path id="Path_521" data-name="Path 521" class="cls-6" d="M20.832,265.146a15.014,15.014,0,0,1-3.5-4.621A16.753,16.753,0,0,1,13.7,262.2c-2.98-1.617-5.783-8.474-6.3-9.777L5.94,257.466l4.148,7.051a47.371,47.371,0,0,0,4.671,4.1C16.152,269.461,21.795,268.306,20.832,265.146Z" transform="translate(-0.391 -19.141)"/>
    <path id="Path_522" data-name="Path 522" class="cls-2" d="M53.27,260.838a9.886,9.886,0,0,1-3.2-7.134l-9.343-.2-.243,1.164,8.063,7.2Z" transform="translate(-2.66 -19.223)"/>
    <path id="Path_523" data-name="Path 523" class="cls-6" d="M57.589,263.3H56.1a20.1,20.1,0,0,1-2.915-2.394l-4.746,1.026-8.063-7.2-1.14,5.3,9.632,7.051H60.149V265.82A2.546,2.546,0,0,0,57.589,263.3Z" transform="translate(-2.579 -19.316)"/>
    <path id="Path_524" data-name="Path 524" class="cls-6" d="M5.923,257.87l-.093,2.782,2.111,2.569,1.1-.139-.981-2.865Z" transform="translate(-0.383 -19.554)"/>
    <path id="Path_525" data-name="Path 525" class="cls-6" d="M39.24,260.5l.056,5.046,3.672,1.072,1.915-1.146.234-4.186Z" transform="translate(-2.579 -19.754)"/>
  </g>
</svg>
